<svg width="176" height="110" viewBox="0 0 176 110" fill="none" xmlns="http://www.w3.org/2000/svg">
<g clip-path="url(#clip0_802_25407)">
<path d="M173.865 89.221C174.01 89.3497 174.222 89.2458 174.365 89.367C174.245 89.7506 174.487 89.7357 174.745 89.7036C174.762 89.857 174.727 90.0104 174.877 90.1441C175.286 90.4719 175.553 90.9404 175.627 91.4557C175.652 91.7031 175.72 91.8838 175.99 91.9333V94.0368C175.625 94.0368 175.625 94.0368 175.627 94.5441L175.597 94.8881C175.472 94.8881 175.3 94.841 175.247 94.9499C175.05 95.3558 174.637 95.6527 174.622 96.1477L174.387 96.165C173.91 96.165 173.91 96.165 173.845 96.608L173.492 96.65C173.032 96.5758 173.032 96.5758 172.992 96.999L172.142 97.0361C171.96 96.9904 171.771 96.9778 171.585 96.999C169.315 96.999 167.045 96.994 164.775 96.9841C164.775 96.8208 164.752 96.655 164.752 96.4892C164.752 91.7708 164.752 87.0515 164.752 82.3315C164.752 81.3936 164.642 81.542 165.542 81.5371C167.312 81.5371 169.082 81.5371 170.85 81.5569C170.83 81.7301 170.827 81.8935 171.07 81.9058C171.294 81.9491 171.524 81.9491 171.747 81.9058L172.097 81.938C172.11 82.2944 172.3 82.4329 172.645 82.3735L172.995 82.4032C172.995 82.7398 173.195 82.814 173.495 82.7843C173.527 82.918 173.495 83.0788 173.627 83.1753C173.96 83.3762 174.215 83.681 174.352 84.0415C174.402 84.2122 174.602 84.1528 174.73 84.1528C174.73 84.2692 174.747 84.3879 174.755 84.5043C174.755 85.1601 174.755 85.8158 174.737 86.4716C174.737 86.7636 174.802 87.0804 174.455 87.2734C174.39 87.3081 174.412 87.5011 174.395 87.6224L174.342 87.9515C173.967 87.9169 173.842 88.1099 173.862 88.4464C173.51 88.3499 173.452 88.5454 173.462 88.83C173.472 89.1146 173.5 89.3349 173.865 89.221ZM171.75 90.587C171.67 90.0921 171.25 90.1441 170.932 90.1342C170.02 90.0995 169.105 90.107 168.182 90.1119C167.805 90.1119 167.805 90.1317 167.8 90.6068C167.8 91.7353 167.8 92.8654 167.8 93.9972C167.8 94.4575 167.8 94.4698 168.195 94.4748C169.025 94.4748 169.855 94.4748 170.695 94.4748C171.265 94.4748 171.817 94.4946 172.292 94.0244C172.467 93.8512 172.59 93.7398 172.59 93.5072L172.627 93.1657C172.857 93.1657 173.017 93.1211 173.02 92.8365C173.044 92.4943 173.037 92.1506 173 91.8095C172.982 91.6957 173 91.5621 172.87 91.4928C172.572 91.3121 172.46 90.9706 172.215 90.7355C172.159 90.6707 172.086 90.6226 172.003 90.5964C171.921 90.5702 171.834 90.5669 171.75 90.587ZM171.23 87.563C171.375 87.5778 171.617 87.605 171.632 87.5135C171.692 87.1819 172.09 87.0656 172.1 86.7265C172.11 86.3875 172.1 86.0336 172.12 85.6896C172.132 85.4224 171.942 85.41 171.76 85.3778C171.76 85.2615 171.742 85.1452 171.732 85.0289C171.747 84.7542 171.695 84.534 171.352 84.5191C171.212 84.5191 171.005 84.4795 170.952 84.3904C170.762 84.0662 170.452 84.1207 170.177 84.1083C169.512 84.0761 168.845 84.1083 168.177 84.0885C167.837 84.0885 167.722 84.232 167.815 84.5488C167.815 85.5139 167.792 86.4766 167.8 87.4392C167.8 87.954 167.822 87.9564 168.3 87.9564C168.985 87.9564 169.667 87.9564 170.352 87.9441C170.832 88.001 170.832 88.001 170.877 87.6026L171.23 87.563Z" fill="#101212"/>
<path d="M64.4831 0.473311H66.5981L69.3981 0.460938L69.8756 0.495583C69.9731 0.606944 69.9706 0.792546 70.1881 0.814818C70.6656 0.866787 71.1381 1.00537 71.6256 0.88411L71.9831 0.906382C72.0306 1.15385 72.1056 1.3642 72.4281 1.33945C72.5856 1.32708 72.7456 1.33945 72.9056 1.33945L73.2556 1.36915C73.2556 1.73788 73.4656 1.78985 73.7556 1.73045L74.1056 1.76015C74.1113 1.8257 74.13 1.88949 74.1608 1.94778C74.1917 2.00607 74.2339 2.05769 74.2851 2.09962C74.3363 2.14156 74.3955 2.17297 74.4591 2.19201C74.5227 2.21106 74.5895 2.21736 74.6556 2.21054H75.1406H75.3656C75.4306 2.47781 75.5381 2.69063 75.8806 2.5867L76.2156 2.63867C76.0731 3.1534 76.6906 3.02224 76.8131 3.32663C76.8856 3.50233 77.0956 3.44541 77.2556 3.45284L77.5006 3.46521C77.5906 3.68546 77.6231 3.96015 77.9706 3.9255C78.4706 3.87849 78.7206 4.27444 79.0131 4.56397C79.1223 4.67265 79.26 4.74894 79.4106 4.78422L79.7781 4.7966C79.7781 5.1381 79.9731 5.23214 80.2781 5.16285L80.6131 5.20987C80.5976 5.31686 80.62 5.42587 80.6765 5.51836C80.7331 5.61085 80.8202 5.6811 80.9231 5.71718C81.18 5.83422 81.3971 6.02247 81.5481 6.25914C81.7056 6.54373 81.9231 6.50661 82.1656 6.50661L82.3781 6.53135C82.4406 6.93968 82.4406 6.93968 82.8781 6.92978C82.7856 7.27871 83.1281 7.34058 83.2781 7.52123C83.54 7.86062 83.8949 8.11832 84.3006 8.26364C84.3781 8.28838 84.4981 8.28096 84.5306 8.33045C84.7928 8.70377 85.1215 9.02664 85.5006 9.28321C85.9556 9.64204 86.3331 10.09 86.8031 10.4438C87.0531 10.6319 87.3856 10.7309 87.5531 10.919C87.8843 11.2312 88.1973 11.5616 88.4906 11.9089C88.6556 12.1341 88.8131 12.1068 89.0056 12.1266C89.0056 12.2825 88.9731 12.4162 89.1431 12.5547C89.5531 12.8888 89.8931 13.2972 90.3131 13.6288C90.5781 13.8366 90.7056 14.2474 91.1406 14.2177C91.1455 14.3203 91.1728 14.4205 91.2208 14.5115C91.2687 14.6025 91.336 14.6822 91.4181 14.7449C91.6381 14.9651 92.0156 15.0443 92.1131 15.4353C92.1481 15.5689 92.4281 15.6828 92.5381 15.8906C92.5881 15.9847 92.7881 15.9673 92.8381 15.8288C92.8691 15.7125 92.8834 15.5926 92.8806 15.4724C92.8806 14.1971 92.8865 12.9218 92.8981 11.6465C93.0181 11.6218 93.1831 11.602 93.1906 11.4684C93.2131 10.9264 93.4731 10.3993 93.2881 9.84744C93.3056 9.61729 93.3231 9.38715 93.3431 9.157C93.5781 9.10256 93.7306 9.00852 93.7306 8.71403C93.6959 8.27133 93.8257 7.8313 94.0956 7.47668C94.1571 7.39474 94.198 7.29949 94.215 7.1988C94.2319 7.0981 94.2244 6.99487 94.1931 6.89761L94.2356 6.56847C94.6431 6.52393 94.6431 6.52393 94.6306 6.07354C95.0756 6.02899 95.0756 6.02899 95.0556 5.5786L95.0831 5.36577C95.2106 5.27174 95.4656 5.3237 95.4856 5.13563C95.5306 4.75453 96.0756 4.78175 96.0706 4.38085C96.5381 4.1804 96.7331 3.65329 97.2106 3.45284C97.3331 3.40087 97.2831 3.23507 97.2631 3.11381C97.4256 3.04204 97.6781 3.11381 97.6906 2.81437C97.7031 2.51493 97.9681 2.66836 98.1031 2.58175C98.3831 2.62134 98.5156 2.50503 98.4931 2.22539C98.5261 2.21002 98.5617 2.20079 98.5981 2.19817C99.3631 2.25509 99.3631 2.25509 99.5206 1.76757L99.8631 1.73293C100.131 1.77995 100.363 1.78737 100.268 1.40132C100.603 1.31966 101.018 1.43349 101.213 1.00784C101.266 0.898958 101.438 0.936078 101.558 0.926179C101.866 0.898958 102.173 0.87916 102.478 0.854413C102.823 0.945977 103.168 0.854413 103.513 0.854413C103.763 0.854413 103.746 0.67871 103.751 0.515381L105.476 0.473311C105.864 0.520312 106.256 0.525291 106.646 0.488159C107.818 0.488159 108.993 0.488159 110.166 0.500533C110.37 0.527901 110.578 0.51529 110.778 0.463412L112.501 0.495583C112.516 0.656438 112.501 0.832141 112.751 0.83709C113.096 0.83709 113.438 0.933603 113.781 0.83709C114.043 0.856888 114.308 0.856888 114.566 0.901432C114.768 0.936078 115.016 0.901432 115.098 1.1984C115.156 1.40627 115.381 1.28748 115.518 1.3444C115.588 1.7849 115.591 1.7849 116.018 1.69086L116.383 1.73045C116.451 1.97792 116.543 2.1957 116.868 2.17095C117.011 2.15858 117.156 2.17095 117.301 2.17095L117.638 2.20312C117.681 2.49513 117.798 2.69806 118.138 2.5867C118.453 2.5867 118.533 2.85149 118.653 3.06679C118.628 3.41077 118.851 3.46769 119.123 3.46521L119.373 3.48253C119.401 3.70031 119.373 3.94778 119.708 3.97747C119.749 3.97938 119.788 3.99691 119.816 4.02641C119.845 4.0559 119.861 4.0951 119.861 4.13585C119.886 4.44766 120.111 4.38332 120.316 4.38332C120.314 4.44093 120.325 4.49823 120.346 4.5519C120.367 4.60556 120.399 4.65453 120.439 4.69596C120.48 4.73739 120.528 4.77046 120.581 4.79326C120.635 4.81606 120.692 4.82813 120.751 4.82877C120.684 5.15872 120.811 5.27998 121.133 5.19255C121.133 5.49693 121.133 5.82112 121.398 6.02899C121.501 6.10818 121.606 6.15273 121.606 6.29626C121.606 6.61054 121.856 6.55857 122.053 6.5957C122.076 6.70706 122.096 6.82089 122.116 6.93225C122.033 7.35048 122.033 7.35048 122.486 7.42719C122.486 7.5435 122.503 7.65981 122.513 7.77612C122.492 7.95037 122.492 8.12651 122.513 8.30076C122.513 8.59525 122.673 8.66701 122.911 8.69423L122.971 9.46634C122.891 9.79967 122.911 10.1488 123.028 10.4711C123.049 10.5476 123.093 10.6162 123.153 10.6681C123.214 10.7201 123.289 10.7532 123.368 10.7631V11.1269C123.276 11.8024 123.368 12.4805 123.368 13.1561C123.355 27.3328 123.346 41.5095 123.341 55.6861C123.319 55.8521 123.333 56.0206 123.381 56.1811C123.381 56.5869 123.363 56.9928 123.356 57.3986C123.226 57.4432 123.061 57.4456 123.046 57.6461C122.991 58.3266 122.796 58.9973 122.938 59.6877L122.893 60.7122C122.668 60.7469 122.508 60.836 122.501 61.0983C122.501 61.321 122.466 61.5437 122.448 61.7689C122.448 61.8902 122.463 62.056 122.348 62.103C122.021 62.2366 122.058 62.5212 122.036 62.7712C122.013 63.0211 121.628 63.1028 121.648 63.4195C121.634 63.6398 121.534 63.8459 121.368 63.9937C121.221 64.1669 121.043 64.4342 121.228 64.7163C121.211 64.8276 121.196 64.939 121.178 65.0504C120.856 65.0652 120.631 65.1617 120.721 65.5453C120.471 65.5453 120.298 65.6344 120.328 65.9239C120.171 65.9462 119.921 65.8893 119.896 66.065C119.856 66.3421 119.543 66.3916 119.508 66.5203C119.411 66.8569 119.138 66.8099 118.936 66.9014C118.848 66.9307 118.771 66.9851 118.714 67.0578C118.658 67.1305 118.624 67.2182 118.618 67.3098C118.476 67.3098 118.308 67.2751 118.213 67.3889C117.837 67.8221 117.313 68.1031 116.741 68.1784C116.491 68.2204 116.388 68.3293 116.373 68.5595L116.021 68.5793C115.838 68.5533 115.653 68.5533 115.471 68.5793C115.166 68.5793 115.096 68.7624 115.098 69.0123L114.258 69.0668C113.908 68.9901 113.561 69.094 113.211 69.0816C112.946 69.0693 112.921 69.2524 112.873 69.4306H112.513H108.103L107.248 69.4058C107.223 69.2549 107.248 69.0866 106.998 69.0643C106.623 69.0297 106.248 68.9059 105.868 69.0198L105.516 69.0024C105.496 68.7302 105.388 68.557 105.071 68.5644C104.911 68.5488 104.749 68.5529 104.591 68.5768L104.243 68.557C104.168 68.4283 104.218 68.2081 103.973 68.2031C103.606 68.2031 103.243 68.0423 102.868 68.161L102.516 68.1363C102.491 67.9408 102.516 67.7701 102.223 67.676C101.851 67.5487 101.5 67.3705 101.178 67.1464C100.918 66.9647 100.615 66.853 100.298 66.8222C100.108 66.795 99.8906 66.8569 99.7981 66.5748C99.7481 66.3941 99.5181 66.451 99.3581 66.4486C99.1631 66.0576 99.0231 65.9833 98.5606 66.0229C98.3781 65.9264 98.0606 66.0229 98.0606 65.6616C98.0606 65.5453 97.8556 65.6047 97.7456 65.57C97.6381 65.1098 97.6381 65.1098 97.1856 65.1716L96.8631 65.1296C96.8156 64.9464 96.8631 64.7039 96.5631 64.6866C96.5218 64.6882 96.4812 64.6755 96.4483 64.6507C96.4155 64.6258 96.3924 64.5904 96.3831 64.5505C96.3231 64.2065 96.0756 64.2411 95.8281 64.2684L95.6131 64.2535C95.5806 63.8774 95.3631 63.7586 95.0106 63.8328C95.0431 63.5433 94.9081 63.4319 94.6256 63.4789C94.2879 63.4076 93.9831 63.2285 93.7581 62.9691C93.9381 62.5163 93.3456 62.5806 93.2756 62.2663C93.2381 62.0906 93.0031 62.1574 92.8506 62.1426L92.6281 62.108C92.6141 62.0801 92.5923 62.0569 92.5652 62.041C92.5381 62.0252 92.507 62.0175 92.4756 62.0189L92.4506 61.7862C92.4606 61.6786 92.4369 61.5706 92.3828 61.4768C92.3287 61.3829 92.2468 61.3078 92.1481 61.2616C91.827 61.1072 91.5207 60.9241 91.2331 60.7147C90.915 60.3617 90.5725 60.031 90.2081 59.7248C89.8531 59.4774 89.4581 59.2942 89.1206 59.022C89.0931 58.9997 89.0381 59.022 88.9956 59.022C89.0206 58.6186 89.0206 58.6186 88.6231 58.6483C88.5863 58.6491 88.5503 58.6377 88.5206 58.6162C88.5206 58.245 88.5206 58.245 88.1381 58.2672C88.1681 57.9233 88.0606 57.708 87.6631 57.7723C87.6806 57.5026 87.5506 57.3739 87.2806 57.3838C87.2556 57.218 87.3581 57.0002 87.1006 56.9235L86.3731 56.3197C86.3381 56.0202 86.0931 56.0722 85.9006 56.0474C85.9331 55.6688 85.9331 55.6688 85.5231 55.6861C85.2381 55.6416 85.1306 55.4164 85.0231 55.1912C85.1056 54.8695 84.9656 54.7606 84.6556 54.815C84.6031 54.7062 84.5606 54.5676 84.4056 54.5799C84.2506 54.5923 84.2156 54.7235 84.1981 54.8423C84.1844 54.9854 84.1793 55.1292 84.1831 55.2729C84.1681 56.403 84.1548 57.5331 84.1431 58.6632C83.9206 58.6186 83.7756 58.6756 83.7806 58.928C83.7806 59.2942 83.6906 59.6555 83.7631 60.0218L83.7481 60.3831C83.5931 60.4326 83.4656 60.4796 83.4081 60.6726C83.2883 61.033 83.2558 61.4161 83.3131 61.7912L83.2881 62.1278C83.2389 62.1189 83.1883 62.1205 83.1397 62.1327C83.0912 62.1448 83.0458 62.1671 83.0067 62.198C82.9676 62.229 82.9357 62.2679 82.913 62.3121C82.8904 62.3564 82.8777 62.4049 82.8756 62.4544C82.8406 62.6326 82.8906 62.8825 82.6456 62.9741C82.3556 63.083 82.4156 63.3082 82.4406 63.526L82.4206 63.7734C82.2656 63.8105 81.9981 63.6695 82.0406 64.0209C82.0206 64.1273 82.0006 64.2362 81.9781 64.3451C81.6431 64.2733 81.5656 64.4366 81.6281 64.7262C81.5231 64.8375 81.6081 65.1098 81.4881 65.1023C81.0881 65.0801 81.1756 65.6938 80.7631 65.5973C80.4956 65.6121 80.2481 65.6468 80.3281 66.0155C80.2631 66.2382 80.2681 66.5253 79.9031 66.4783C79.5506 66.3793 79.4756 66.7975 79.2356 66.8396C78.9256 66.894 78.9231 67.0994 78.8731 67.3048L78.6231 67.3172C78.4581 67.2974 78.2006 67.2776 78.1581 67.384C78.0306 67.7057 77.7581 67.6859 77.5156 67.7478C77.4106 67.775 77.3156 67.8047 77.2831 67.9185C77.2131 68.1512 77.0106 68.1338 76.8306 68.166C76.6473 68.198 76.4617 68.2154 76.2756 68.218C76.0006 68.218 75.9281 68.3764 75.8881 68.5917L75.5406 68.609C75.1281 68.609 74.6481 68.4333 74.4931 69.0396L74.1381 69.0643C73.5031 68.9356 72.8881 69.1311 72.2606 69.1509C72.0606 69.1509 72.1106 69.3662 72.0106 69.4578L71.5381 69.4776C70.3881 69.4776 69.2381 69.4504 68.0881 69.4504C67.6377 69.412 67.1845 69.4195 66.7356 69.4726L65.8856 69.4479C65.8206 69.3341 65.8731 69.1311 65.6681 69.1262C65.1556 69.1138 64.6506 68.9604 64.1356 69.0618L63.7806 69.042C63.7585 68.9125 63.6871 68.7962 63.5811 68.7171C63.4751 68.6379 63.3426 68.6019 63.2106 68.6164C62.9256 68.6164 62.6456 68.5322 62.3606 68.6164L62.0106 68.5991C61.9581 68.4308 61.9556 68.2328 61.6856 68.2328C61.4624 68.1973 61.2354 68.1915 61.0106 68.2155C60.8281 68.2155 60.6431 68.2155 60.4606 68.1957C60.3881 68.1957 60.2606 68.2155 60.2681 68.1066C60.2931 67.7156 59.9606 67.8072 59.7681 67.7206C59.8256 67.3939 59.6681 67.3048 59.3706 67.3741L58.9181 67.3122C58.9356 67.0326 58.8456 66.8742 58.5281 66.9707C58.4006 66.8198 58.1856 66.9336 58.0506 66.8099C58.0806 66.451 58.0806 66.451 57.6656 66.4659C57.5355 66.4149 57.421 66.3313 57.3333 66.2232C57.2456 66.1152 57.1879 65.9865 57.1656 65.8497C57.1506 65.5602 56.9156 65.6443 56.7806 65.5899C56.7806 65.4166 56.8356 65.2038 56.5856 65.1518C56.4156 65.1172 56.3781 65.0108 56.3356 64.8722C56.2631 64.6792 56.0706 64.7336 55.9156 64.7361C55.9312 64.5734 55.9124 64.4092 55.8603 64.2541C55.8082 64.099 55.724 63.9564 55.6131 63.8353C55.3631 63.568 54.9831 63.2785 55.0006 62.8033C55.0006 62.5361 54.7506 62.5955 54.5906 62.5311L54.5706 62.3282C54.6181 61.9125 54.7431 61.4893 54.3206 61.1601C54.1981 61.0636 54.2006 60.8632 54.1856 60.6999C54.1495 60.454 54.1312 60.2059 54.1306 59.9574C54.1481 59.6531 53.9531 59.5813 53.7281 59.512C53.7056 59.1309 53.6806 58.7523 53.6556 58.3712C53.7522 58.1871 53.7839 57.9763 53.7456 57.7723C53.7456 57.3194 53.7456 56.8641 53.7456 56.4112C53.7456 43.0132 53.7456 29.6153 53.7456 16.2173C53.7456 15.997 53.8156 15.7595 53.6406 15.564L53.7256 13.4333C53.8531 13.3269 54.0831 13.3467 54.0881 13.0868C54.0881 12.3246 54.2156 11.5624 54.1481 10.7977L54.1631 10.4339C54.4381 10.3943 54.5206 10.1865 54.5481 9.96127C54.6372 9.52847 54.6465 9.08329 54.5756 8.64721L54.5981 8.32303C54.8356 8.26859 55.0006 8.17455 55.0106 7.88253C55.0543 7.63152 55.1387 7.38916 55.2606 7.16487C55.4681 6.63282 55.9656 6.21212 55.9181 5.5786C55.9056 5.40042 56.0681 5.33113 56.1531 5.21729C56.3606 4.94013 56.8281 4.81392 56.7481 4.3462L56.7781 4.12348C56.808 4.11441 56.8343 4.09649 56.8535 4.07215C56.8727 4.04781 56.8839 4.01822 56.8856 3.98737L57.1131 3.96262C57.4656 3.98737 57.6331 3.82404 57.6131 3.46769L57.6456 3.24991L57.7581 3.11628L57.9881 3.09401C58.0931 3.09694 58.1973 3.07433 58.2914 3.02817C58.3856 2.982 58.4668 2.91369 58.5281 2.82922C58.7631 2.55453 58.9906 2.19322 59.4956 2.17095C59.7656 2.17095 60.0306 1.84181 60.2831 1.64384C60.3206 1.61414 60.2831 1.49041 60.2831 1.41122L60.6281 1.3741C61.0456 1.3741 61.5106 1.50031 61.6581 0.916281H61.8931C62.5456 1.03754 63.1856 0.83709 63.8331 0.832141C64.0656 0.832141 64.0481 0.629216 64.1406 0.515381L64.4831 0.473311ZM76.3331 27.6231C76.3156 27.2297 76.3156 27.2297 75.8731 27.2247C75.5498 27.1789 75.2215 27.1789 74.8981 27.2247C74.7831 27.2247 74.6206 27.1975 74.6131 27.3707C74.6006 27.7073 74.3106 27.5539 74.1581 27.6405C73.7781 27.5811 73.7131 27.7939 73.7531 28.0983L73.7206 28.4472C73.3206 28.4472 73.2856 28.6947 73.2881 29.0189C73.2881 29.6796 73.2881 29.6796 73.7256 29.8454C73.7256 29.9642 73.7406 30.0929 73.7506 30.1993C73.6881 30.6695 73.6881 30.6695 74.1156 30.6942C74.1281 30.8081 74.1406 30.9194 74.1556 31.0333C74.0831 31.3871 74.2131 31.5826 74.5956 31.5727L74.6356 31.9242C74.5081 32.2533 74.6506 32.481 74.8856 32.726C75.1206 32.9709 75.3856 33.1194 75.4581 33.4164C75.5306 33.7134 75.7331 33.6094 75.9006 33.6391C75.9202 33.6708 75.9456 33.6985 75.9756 33.7208C75.8631 34.0945 75.8981 34.1316 76.3056 34.0895C76.3381 34.2281 76.3706 34.3667 76.4006 34.5053C76.3731 34.7973 76.4431 35.0002 76.8031 34.9458L76.8306 34.9754C76.8081 35.1314 76.7331 35.3368 76.9906 35.3442C77.2931 35.3442 77.2406 35.1462 77.1731 34.9606C77.1967 34.9266 77.2144 34.889 77.2256 34.8492C77.2406 33.117 77.2681 31.3599 77.2006 29.6153C77.2006 29.4346 77.2006 29.1649 77.0881 29.0906C76.7056 28.8258 76.8181 28.4398 76.7481 28.1008C76.7806 27.8087 76.7231 27.591 76.3506 27.638L76.3331 27.6231ZM72.8681 8.66206C72.7831 8.22652 72.7831 8.22652 72.3231 8.25126L71.6706 8.18445C71.6356 7.93698 71.5306 7.77365 71.2406 7.78107C71.0389 7.75633 70.8349 7.75633 70.6331 7.78107C70.4731 7.31088 70.1106 7.28613 69.7031 7.36532L68.5506 7.29356C68.5956 7.02629 68.4756 6.9273 68.2081 6.91741C67.1256 6.88771 66.0456 6.9174 64.9581 6.94215C64.6706 6.94215 64.6181 7.10796 64.5806 7.32325L64.1181 7.3678C63.4081 7.26386 63.3556 7.28861 63.2456 7.78355L62.9031 7.82067C62.4281 7.70683 62.3406 8.26611 61.9731 8.34283C62.0156 8.68433 61.5306 8.68681 61.5356 9.02832C61.5023 9.28345 61.4042 9.52608 61.2506 9.7336C61.0006 10.1988 60.9181 10.7458 60.7106 11.2481C60.5666 11.7016 60.5451 12.1845 60.6481 12.6488C60.6481 13.0522 60.6256 13.4555 60.6131 13.8589C60.3481 13.8589 60.2681 13.9975 60.2656 14.2474C60.2506 14.97 60.2006 15.6902 60.1956 16.4103C60.1806 18.1599 60.1956 19.912 60.1956 21.6641C60.1956 33.5096 60.1956 45.3568 60.1956 57.2056C60.1956 57.7203 60.2256 58.2351 60.2656 58.7473C60.2856 59.0171 60.4256 59.0938 60.6381 59.1457L60.6631 59.4897C60.6631 59.6308 60.5981 59.8461 60.7156 59.8906C61.1656 60.0639 61.2156 60.5439 61.4656 60.8533C61.6481 61.0792 61.9015 61.2386 62.1856 61.3062C62.4506 61.3829 62.5281 61.8382 62.9231 61.6798L63.2506 61.717C63.3056 62.1129 63.3056 62.1129 63.7706 62.0956L64.1206 62.1203C64.3081 62.5361 64.4756 62.6029 65.0606 62.499L66.2131 62.5633C66.238 62.6814 66.3075 62.7856 66.4074 62.8546C66.5073 62.9236 66.6301 62.9522 66.7506 62.9345C67.9256 62.9221 69.1006 62.9469 70.2756 62.9345C70.5004 62.9185 70.7235 62.8854 70.9431 62.8355C71.0906 62.8108 71.1256 62.687 71.1681 62.5707L72.8181 62.4891C72.9601 62.5542 73.1192 62.5737 73.2729 62.5448C73.4267 62.516 73.5675 62.4402 73.6756 62.3282C73.7931 62.2292 73.8856 62.1228 74.0381 62.1426C74.4831 62.2045 74.6431 61.7442 75.0006 61.6353C75.0981 61.6081 75.0781 61.4175 75.0356 61.2963L75.4831 61.222C75.9256 61.4274 75.9231 60.8335 76.2631 60.7939C76.4131 60.7741 76.3631 60.5118 76.3481 60.3484C76.3856 60.2346 76.3331 60.0144 76.4306 60.0119C76.8231 59.997 76.6656 59.6184 76.8206 59.4922C77.0054 59.3285 77.1221 59.1027 77.1481 58.8587C77.2125 58.5144 77.2385 58.1642 77.2256 57.8144C77.2256 54.3325 77.2256 50.8481 77.2256 47.3637C77.2256 46.901 77.4381 46.3269 76.7831 46.067C76.8481 45.7304 76.5331 45.77 76.3731 45.6537C76.3731 45.1316 76.3231 45.045 75.8956 44.894C76.1156 44.4387 75.4306 44.4337 75.4556 44.0427C75.4556 43.9338 75.1831 43.9338 75.0256 43.9091C74.9831 43.7903 75.0656 43.5874 74.8581 43.5799C74.5531 43.5799 74.6631 43.3325 74.6081 43.1964C74.6081 43.033 74.6706 42.8029 74.5131 42.7485C74.2881 42.6742 74.2106 42.5233 74.1031 42.3525C74.0356 42.2436 73.8756 42.2956 73.7531 42.3104C73.7981 41.959 73.6731 41.7586 73.2856 41.7957C73.2706 41.6843 73.2531 41.573 73.2381 41.4591C73.2206 41.2884 73.2531 41.13 73.0481 40.9939C72.8003 40.8471 72.6039 40.6286 72.4856 40.3678C72.2906 39.7937 71.8081 39.4324 71.5306 38.925C71.4456 38.7716 71.2806 38.8285 71.1406 38.8384C71.1106 38.7221 71.1081 38.5192 71.0481 38.5019C70.5481 38.3484 70.5681 37.7817 70.2306 37.512C70.2681 37.3957 70.3106 37.2522 70.2306 37.168C69.9156 36.8587 69.5056 36.6434 69.2831 36.2326C69.2581 36.188 69.0931 36.2153 68.9956 36.2103L68.9331 35.8837C69.0081 35.4902 68.9706 35.1413 68.5031 35.0249C68.5681 34.6884 68.4481 34.4954 68.0831 34.4879L68.0256 34.1514C68.1156 33.9955 68.1106 33.7703 67.9731 33.7332C67.6031 33.6366 67.6456 33.3644 67.6431 33.1194C67.6431 32.8324 67.5256 32.7111 67.2381 32.7458L67.1531 31.9242C67.3031 31.5777 67.1856 31.2486 67.0931 30.9145C67.0431 30.7363 66.9031 30.7215 66.7681 30.667C66.7681 30.5062 66.7556 30.3453 66.7481 30.1869C66.7631 29.5361 66.7681 28.8877 66.7906 28.2393C66.7804 27.959 66.8581 27.6823 67.0131 27.4474C67.1275 27.291 67.2 27.1083 67.2236 26.9165C67.2472 26.7248 67.2212 26.5303 67.1481 26.3512L67.2331 25.5271C67.4156 25.5147 67.6181 25.5271 67.6306 25.2623C67.6431 24.9975 67.6706 24.6609 68.0406 24.5199C68.1231 24.4902 68.1406 24.2724 68.0581 24.1239C68.1256 23.9878 68.0281 23.7502 68.3081 23.7453C68.5581 23.7453 68.4656 23.5226 68.5106 23.3914C68.9156 23.3543 68.9156 23.3543 68.8781 22.8965C69.0656 22.8693 69.3181 22.9757 69.3781 22.6663C69.3825 22.6251 69.401 22.5867 69.4306 22.5574C69.4602 22.5281 69.499 22.5098 69.5406 22.5055C70.1856 22.3892 70.5406 21.8101 71.0806 21.5329C71.1931 21.476 71.1706 21.3152 71.1406 21.1914L71.4931 21.1543C71.778 21.1712 72.0639 21.1571 72.3456 21.1122C72.5956 21.1122 72.6881 20.9415 72.7381 20.7336L73.1856 20.6816C73.6717 20.7725 74.1716 20.7616 74.6531 20.6495C75.0586 20.5728 75.4751 20.5728 75.8806 20.6495C76.3438 20.7494 76.8212 20.7669 77.2906 20.7014L77.6181 20.7237C77.6631 20.9316 77.7131 21.1098 77.9956 21.1122C78.3275 21.1502 78.6617 21.1643 78.9956 21.1543C79.0131 21.4686 79.1131 21.6864 79.4956 21.5725L79.7131 21.5898C79.7806 21.7655 79.7306 22.0229 80.0331 22.0353C80.0851 22.034 80.1359 22.0506 80.1769 22.0821C80.2179 22.1137 80.2466 22.1584 80.2581 22.2085C80.3331 22.5203 80.5731 22.456 80.7956 22.456L81.0456 22.4857C81.0231 22.6688 80.9706 22.8668 81.2581 22.8891C81.5756 22.8346 81.5356 23.087 81.5881 23.2627C81.5656 23.6933 81.5656 23.6933 82.0106 23.7577C82.1298 23.8205 82.2316 23.9114 82.307 24.0223C82.3824 24.1332 82.4291 24.2607 82.4431 24.3937C82.4531 24.4785 82.4741 24.5617 82.5056 24.6411C82.4181 24.9505 82.5381 25.0767 82.8531 25.0297L82.9281 25.4677C82.8656 25.7523 82.9656 25.8983 83.2756 25.8587L83.3281 26.3239C83.2641 26.6616 83.2874 27.0097 83.3956 27.3361C83.4149 27.4136 83.4588 27.4828 83.521 27.5337C83.5831 27.5845 83.6601 27.6141 83.7406 27.6182L83.7681 28.0933C83.7369 28.5789 83.7419 29.0661 83.7831 29.5509C83.7831 29.7984 83.9306 29.8553 84.1456 29.833C84.1456 30.0384 84.1631 30.2438 84.1631 30.4492L84.1781 43.9066C84.1781 44.4015 84.1781 44.4015 84.6181 44.4461C84.5876 44.6143 84.604 44.7876 84.6657 44.9472C84.7274 45.1068 84.832 45.2467 84.9681 45.3518C85.1531 45.5028 85.2181 45.8047 85.5456 45.7428C85.6456 45.7601 85.8256 45.77 85.8281 45.7948C85.8656 46.1833 86.3281 46.2897 86.3931 46.6461C86.3056 46.9826 86.4606 47.0742 86.7706 47.0148C86.8006 47.1831 86.7081 47.4182 86.9606 47.4702C87.2831 47.537 87.2731 47.9651 87.6106 48.0047C87.7681 48.5244 88.3481 48.705 88.5756 49.1752C88.6206 49.2668 88.7556 49.2445 88.8531 49.1925C89.0131 49.2618 88.9706 49.4078 88.9881 49.5316C89.0056 49.6553 89.0131 49.6677 89.1131 49.6429C89.2131 49.6182 89.3481 49.6108 89.3631 49.7419C89.3621 49.8209 89.3899 49.8976 89.4413 49.9581C89.4927 50.0185 89.5643 50.0586 89.6431 50.0711C89.9131 50.1478 89.8931 50.5858 90.2506 50.6056C90.2106 50.9545 90.5381 50.8753 90.7031 50.9867C90.7031 51.3826 90.7031 51.3826 91.0981 51.3802C91.1756 51.5014 91.0606 51.7365 91.2956 51.7637C91.3353 51.762 91.3749 51.7684 91.4119 51.7826C91.4489 51.7967 91.4826 51.8183 91.5107 51.846C91.5389 51.8736 91.561 51.9068 91.5756 51.9433C91.5902 51.9798 91.597 52.019 91.5956 52.0582C91.6231 52.2909 91.8581 52.1745 91.9831 52.2513C91.9831 52.6645 91.9831 52.6645 92.4531 52.7462C92.4856 52.8576 92.4306 53.0506 92.5806 53.0555C92.9456 53.0555 92.9031 53.595 93.2781 53.5505C93.2781 53.8474 93.4981 53.9365 93.7406 54.0033C93.7656 54.0033 93.7606 54.1172 93.7681 54.1766C93.7231 54.2904 93.7681 54.33 93.8806 54.3102L94.1131 54.3325C94.1306 54.6616 94.2406 54.8868 94.6356 54.7977C94.6356 54.9487 94.5756 55.1343 94.8106 55.1813C94.8726 55.1842 94.9316 55.2087 94.9773 55.2503C95.023 55.2919 95.0525 55.348 95.0606 55.409C95.1106 55.7059 95.3481 55.6218 95.5356 55.6391C95.9631 55.6243 96.1881 56.0128 96.3431 56.2429C96.4981 56.4731 96.6981 56.4582 96.8556 56.577C96.8231 56.9259 96.8231 56.9259 97.2506 56.9136C97.1456 57.3318 97.6706 57.3392 97.7506 57.656C97.7831 57.7921 98.0006 57.7401 98.1381 57.7624C98.1381 58.0396 98.2456 58.2227 98.5581 58.2573C98.6856 58.2747 98.8756 58.2301 98.9331 58.4083C99.0356 58.7176 99.2906 58.6162 99.5006 58.6384C99.525 58.7575 99.5831 58.8672 99.6681 58.9548C99.7531 59.0425 99.8615 59.1044 99.9806 59.1334C100.088 59.1705 100.231 59.1334 100.268 59.2893C100.336 59.5763 100.563 59.4996 100.756 59.5021C100.893 59.9698 101.256 60.0094 101.658 59.9649L101.993 60.0119C101.801 60.4895 102.428 60.3856 102.493 60.7073C102.531 60.8855 102.763 60.831 102.923 60.7939L103.373 60.8483C103.373 61.0513 103.396 61.1948 103.656 61.2344C103.833 61.2616 104.088 61.2072 104.181 61.373C104.416 61.7937 104.788 61.7095 105.151 61.6947L105.498 61.7392C105.436 61.9595 105.498 62.0882 105.748 62.1179C105.948 62.1401 106.226 62.0783 106.331 62.2564C106.581 62.6945 106.948 62.5534 107.306 62.5039L108.088 62.5534C108.191 62.687 108.163 62.9147 108.431 62.9221C109.338 62.9679 110.246 62.9679 111.153 62.9221C111.368 62.9073 111.621 62.8677 111.666 62.5707L112.878 62.5336C113.271 62.6177 113.668 62.6375 113.991 62.3628C114.413 62.0065 114.921 61.7813 115.298 61.3383C115.481 61.1255 115.581 60.9993 115.516 60.7469L115.531 60.5192C115.898 60.44 116.066 60.2321 115.966 59.8535L115.991 59.5095C116.181 59.4798 116.351 59.4501 116.351 59.1903C116.351 58.8463 116.453 58.5023 116.381 58.1559C116.381 57.75 116.403 57.3442 116.416 56.9359C116.681 56.9359 116.831 56.827 116.828 56.5275C116.828 55.9089 116.856 55.2902 116.856 54.674C116.856 40.9098 116.856 27.1455 116.856 13.3813C116.856 12.9086 116.856 12.4335 116.818 11.9608C116.798 11.6639 116.793 11.3273 116.391 11.2333C116.391 11.1145 116.378 10.9858 116.371 10.8744C116.443 10.5379 116.331 10.3275 115.966 10.283L115.951 10.0355C115.951 9.82022 115.971 9.64451 115.701 9.49603C115.475 9.33166 115.288 9.1216 115.151 8.87984C115.1 8.78817 115.021 8.71484 114.925 8.67038C114.829 8.62592 114.722 8.61261 114.618 8.63237C114.568 8.20919 114.568 8.20919 114.118 8.20672L113.783 8.16465C113.783 7.94688 113.763 7.76375 113.471 7.7687C113.271 7.74396 113.068 7.74396 112.868 7.7687C112.656 7.36037 112.526 7.30593 111.936 7.3678L110.783 7.29851C110.783 7.06589 110.713 6.90503 110.426 6.91741C110.138 6.92978 109.816 6.92978 109.501 6.92978C108.236 6.90998 106.971 6.91741 105.708 6.97432C105.436 6.9867 105.153 6.97432 105.123 7.3579L104.668 7.38512C104.393 7.3032 104.1 7.30839 103.828 7.39997C103.621 7.44946 103.388 7.51875 103.366 7.80087C103.329 7.80865 103.291 7.81279 103.253 7.81324C102.641 7.64496 102.151 7.9147 101.686 8.25374C101.551 8.35025 101.581 8.50121 101.598 8.63979C101.22 8.92727 100.898 9.28028 100.648 9.68163C100.488 9.90188 100.148 10.0256 100.233 10.3943C99.8581 10.4117 99.8581 10.4117 99.9006 10.8027C99.8831 11.1912 99.8506 11.5822 99.8481 11.9707C99.8481 15.6135 99.8481 19.2546 99.8481 22.894C99.8481 23.1217 99.8731 23.3469 99.8781 23.5721C99.8781 23.7552 100.016 23.7428 100.128 23.7502C100.135 23.7804 100.153 23.8072 100.177 23.8265C100.202 23.8458 100.232 23.8564 100.263 23.8567C100.283 23.973 100.263 24.1487 100.408 24.1511C100.758 24.1511 100.686 24.4308 100.748 24.6213C100.536 25.0519 101.141 25.0544 101.163 25.3934C101.163 25.5518 101.438 25.5048 101.596 25.5122C101.491 25.8686 101.703 25.9577 101.998 25.9775L102.018 26.2249C101.946 26.5937 102.138 26.7372 102.478 26.752C102.513 26.9179 102.461 27.0837 102.678 27.2222C102.933 27.389 103.142 27.6161 103.286 27.883C103.408 28.1107 103.566 28.0859 103.743 28.0958C103.686 28.3235 103.693 28.6526 103.821 28.7368C104.086 28.9125 104.096 29.2713 104.388 29.3851C104.641 29.5207 104.842 29.7333 104.963 29.9914C105.138 30.2834 105.298 30.5903 105.486 30.8873C105.603 31.0753 105.898 31.0159 105.908 31.2783C105.921 31.5851 106.171 31.5257 106.363 31.5628C106.333 31.9192 106.308 32.2261 106.688 32.4958C106.861 32.6171 106.938 32.8695 107.223 32.8126C107.146 33.1788 107.313 33.3372 107.673 33.3347L107.746 33.6564C107.912 34.0345 108.104 34.4015 108.318 34.7552C108.448 34.9482 108.453 35.265 108.616 35.3293C108.733 35.3657 108.835 35.4401 108.905 35.5406C108.975 35.6411 109.008 35.7619 109.001 35.8837C109.001 36.1905 109.211 36.2425 109.438 36.2895C109.438 36.4009 109.461 36.5147 109.471 36.6261C109.395 36.9544 109.413 37.2972 109.523 37.6159C109.542 37.7038 109.587 37.7841 109.652 37.847C109.717 37.9098 109.799 37.9525 109.888 37.9698L109.913 38.3212C109.836 38.7889 109.958 39.2542 109.948 39.7194C109.948 39.9669 110.138 39.9966 110.293 40.0783L110.281 41.8105C110.086 41.8328 109.921 41.865 109.916 42.1273C109.908 42.4347 109.881 42.7413 109.836 43.0454C109.816 43.2038 109.848 43.4166 109.703 43.5032C109.308 43.7507 109.391 44.0675 109.473 44.4065L109.428 44.743C109.128 44.8049 108.916 44.9311 109.023 45.2875C108.578 45.3493 108.578 45.3493 108.603 45.7651L108.558 45.9779C108.163 46.1215 107.986 46.5149 107.671 46.755C107.448 46.9257 107.098 47.0618 107.103 47.4429L106.883 47.485C106.483 47.339 106.438 47.6063 106.406 47.8884C106.136 47.8463 105.786 47.8141 105.656 48.0022C105.478 48.2497 105.263 48.2497 105.036 48.2967C104.938 48.3215 104.786 48.3289 104.758 48.3833C104.631 48.7421 104.313 48.6976 104.046 48.7174C103.778 48.7372 103.703 48.8857 103.721 49.1183C102.462 49.2148 101.197 49.2148 99.9381 49.1183C99.9656 48.8708 99.8981 48.7149 99.6131 48.7248C99.0706 48.7446 98.7606 48.121 98.1906 48.2126C98.0581 47.8933 97.7631 47.881 97.4831 47.8438C97.4407 47.8473 97.3981 47.8418 97.358 47.8278C97.3179 47.8137 97.2813 47.7913 97.2506 47.7622C96.8081 47.245 96.3581 46.7401 95.6731 46.5248C95.6231 46.51 95.5481 46.4456 95.5506 46.4085C95.5856 46.0225 95.2181 45.8418 95.1106 45.5448C95.0031 45.2479 94.8306 45.2974 94.6306 45.2974C94.6131 45.1885 94.5981 45.0771 94.5831 44.9658C94.5156 44.4708 94.1831 44.1293 93.9331 43.7284C93.9081 43.6888 93.8206 43.6913 93.7631 43.6765C93.7586 43.6402 93.7503 43.6045 93.7381 43.57C93.8081 43.2632 93.7081 42.9588 93.7256 42.6544C93.7431 42.35 93.5656 42.2684 93.3331 42.204L93.3031 41.5062C93.4381 40.8157 93.2256 40.1451 93.1906 39.4645C93.1906 39.2789 93.0256 39.2591 92.8906 39.2171C92.8906 35.0926 92.8906 30.9598 92.8906 26.8189C92.9194 26.5119 92.9017 26.2025 92.8381 25.9008C92.8381 25.782 92.8731 25.6533 92.7581 25.5568C92.4681 25.3093 92.2381 25.0123 91.9706 24.75C91.6358 24.4732 91.3413 24.1517 91.0956 23.7948C90.7456 23.8121 90.8456 23.4013 90.6281 23.2999C90.0981 23.0672 89.8456 22.5574 89.4706 22.1714C89.3281 22.0303 89.0381 22.0873 89.0281 21.8225C89.0156 21.481 88.7631 21.5156 88.5281 21.5057L88.5031 21.2582C88.5181 21.1444 88.4681 21.1122 88.3631 21.1518L88.1356 21.1246C88.1356 20.5406 88.0831 20.308 87.2456 20.1545L87.2206 19.9293C87.235 19.8613 87.232 19.7909 87.212 19.7243C87.1919 19.6577 87.1554 19.5972 87.1058 19.548C87.0562 19.4989 86.995 19.4628 86.9277 19.443C86.8605 19.4231 86.7893 19.4202 86.7206 19.4344C86.2881 19.4839 86.2981 18.9122 85.9256 18.8801C85.9456 18.4965 85.4056 18.5262 85.3781 18.1673C85.3781 18.1476 85.2256 18.1401 85.1456 18.1278C85.1281 17.8085 85.0431 17.5611 84.6456 17.6625C84.6131 17.4522 84.5856 17.2319 84.2806 17.2666C84.2431 17.0958 84.3056 16.8681 84.0656 16.8063C83.7131 16.7172 83.5656 16.4004 83.3806 16.1604C83.3283 16.0797 83.2526 16.0164 83.1634 15.9789C83.0742 15.9414 82.9757 15.9313 82.8806 15.95C83.0681 15.5071 82.4781 15.5392 82.4206 15.22C82.3906 15.0468 82.1456 15.1136 81.9906 15.1012C81.8556 14.9898 81.7881 14.7696 81.5981 14.7622C81.1706 14.7399 81.1556 14.1707 80.7356 14.1608C80.7356 13.8564 80.5331 13.8045 80.2931 13.7871C80.3131 13.6288 80.3606 13.4159 80.1631 13.3763C80.0768 13.3605 79.9963 13.3224 79.9296 13.2659C79.8629 13.2094 79.8124 13.1366 79.7831 13.0546C79.7106 12.921 79.5331 12.973 79.3881 12.973C79.4381 12.4632 78.9806 12.2825 78.6781 12.1662C78.2619 12.0064 77.896 11.74 77.6181 11.3941C77.4956 11.2432 77.3681 11.2778 77.2381 11.2679C77.2606 10.9017 77.0906 10.7458 76.7231 10.8051L76.3881 10.7705C76.4181 10.3894 76.1956 10.33 75.8881 10.3844L75.5431 10.3399C75.5581 10.1766 75.5981 9.9687 75.3981 9.9192C75.0531 9.83507 74.8731 9.53563 74.6156 9.3525C74.4771 9.24066 74.3169 9.15795 74.145 9.10945C73.9731 9.06094 73.7929 9.04765 73.6156 9.07039L73.4031 9.05554C73.3431 8.76352 73.2331 8.55812 72.8681 8.66206ZM100.726 35.3887C100.838 34.8938 100.263 34.8666 100.138 34.53C100.126 34.4929 99.9256 34.5102 99.8881 34.6315C99.8674 34.7491 99.8582 34.8684 99.8606 34.9878C99.8456 36.7201 99.7981 38.4524 99.8931 40.1847C99.8081 40.3381 99.8706 40.499 99.8606 40.6549C99.8381 40.9592 100.018 41.031 100.266 41.0533L100.313 41.3973C100.256 41.8625 100.746 41.9615 100.923 42.2733C100.941 42.303 101.076 42.2733 101.156 42.2733C101.59 42.324 102.029 42.324 102.463 42.2733C102.868 42.2733 102.868 42.2733 102.886 41.8402C103.303 41.9862 103.308 41.5804 103.478 41.4022C103.728 41.13 103.841 40.0956 103.623 39.8234C103.573 39.759 103.438 39.7541 103.343 39.7219L103.308 39.3903C103.406 39.0339 103.263 38.8508 102.893 38.836C102.821 38.6949 102.966 38.4351 102.696 38.4078C102.426 38.3806 102.528 38.148 102.468 38.0094C102.468 37.267 102.468 37.267 101.986 37.1284C101.986 36.97 102.026 36.8117 101.853 36.6879C101.511 36.4405 101.168 36.1633 101.103 35.6981C101.071 35.4382 100.901 35.4258 100.711 35.4085L100.726 35.3887Z" fill="#101212"/>
<path d="M6.63656 84.632L6.65156 84.8795C6.62906 85.0428 6.63406 85.3052 6.74906 85.32C7.11156 85.3621 6.97406 85.7927 7.24906 85.8669C7.65656 85.9783 7.43406 86.3421 7.53906 86.5747C7.62406 86.7627 7.80906 86.7256 7.95156 86.785L7.99906 87.1067C7.89406 87.5002 8.39656 87.5571 8.44656 87.8863C8.46406 88.0125 8.69656 87.9828 8.82906 88.005C8.82906 88.2525 8.91906 88.4307 9.20406 88.4455C9.20406 88.4629 9.17406 88.4876 9.17906 88.4975C9.1987 88.5314 9.22218 88.5629 9.24906 88.5915L9.27156 88.8192C9.27156 89.282 9.27156 89.282 9.65406 89.3018L9.70406 89.6606C9.49406 90.1358 10.1741 90.1209 10.1791 90.502C10.1791 90.6183 10.4291 90.5861 10.5541 90.6134L10.6541 91.0662C10.4916 91.3978 10.5141 91.4226 10.9766 91.4572C10.9916 91.6824 10.9766 91.9299 11.3316 91.8829C11.3316 92.1031 11.3741 92.3184 11.6541 92.311C11.9341 92.3036 11.8441 92.0635 11.8666 91.8903C11.8728 91.8079 11.8728 91.7252 11.8666 91.6428C11.8666 88.5858 11.8666 85.5295 11.8666 82.4741C11.8989 82.2707 11.8765 82.0624 11.8016 81.8703C11.8016 81.6946 11.8016 81.5412 12.0516 81.5412C12.9241 81.5412 13.8016 81.5412 14.6716 81.5412C14.8266 81.5412 14.8941 81.6154 14.8941 81.7663C14.8941 81.9173 14.9091 82.0955 14.9091 82.2613C14.9091 87.0176 14.9091 91.774 14.9091 96.5303C14.9341 96.6969 14.917 96.867 14.8591 97.0253L10.9991 97.0104L10.9516 96.6788C11.0816 96.3497 10.7016 96.2507 10.6516 96.0527C10.6292 95.934 10.5638 95.8274 10.4675 95.7531C10.3713 95.6788 10.2509 95.6419 10.1291 95.6494L10.1116 95.4019C10.1291 95.1198 10.1116 94.8575 9.71406 94.9069L9.66656 94.5803C9.81906 94.0557 9.22156 93.9196 9.10156 93.536C9.10156 93.5162 8.95156 93.536 8.87156 93.536L8.81656 93.1969C9.01406 92.7168 8.29906 92.754 8.31656 92.3432C8.31656 92.2021 8.06656 92.259 7.95406 92.1749L7.94156 91.9571C7.97156 91.7938 7.99156 91.5513 7.86406 91.5067C7.74729 91.4662 7.64834 91.3868 7.58407 91.2821C7.51979 91.1774 7.49417 91.0539 7.51156 90.9326C7.51156 90.6035 7.10906 90.6505 7.10156 90.3882C7.10156 90.0541 6.85156 90.0739 6.62656 90.0541L6.57906 89.72C6.66656 89.3983 6.52656 89.2374 6.20656 89.2053L6.19406 88.985C6.24906 88.6361 6.10406 88.453 5.74406 88.4505C5.76656 88.1684 5.72406 87.9407 5.35156 87.9753L5.31656 87.6314C5.31656 87.5299 5.35156 87.3839 5.29906 87.3344C5.05093 87.0806 4.87125 86.7692 4.77656 86.4287C4.68656 86.2109 4.41656 86.2579 4.21906 86.2678C3.96906 86.2802 4.02406 86.4905 4.01406 86.6464C4.01406 86.7504 4.01406 86.8543 4.01406 86.9558C4.01406 88.853 4.01406 90.7503 4.01406 92.6476C4.01406 93.9468 4.01406 95.246 4.01406 96.5427C4.01406 96.9832 4.00156 96.9931 3.56406 96.9956C2.71156 96.9956 1.85656 96.9956 1.00406 96.9956C1.00406 96.8323 0.976562 96.6665 0.976562 96.5007V82.3553C0.976562 81.5312 0.976562 81.5313 1.79156 81.5313C2.70656 81.5313 3.62406 81.5461 4.54156 81.5313C4.83156 81.5313 4.89156 81.6575 4.88656 81.8926C4.88656 82.3875 4.88656 82.3875 5.31656 82.4345L5.36156 82.781C5.31906 83.0829 5.39406 83.2759 5.75906 83.2512C5.65156 83.6298 5.87156 83.7461 6.19156 83.7906L6.25406 84.1322C6.06406 84.5405 6.41656 84.5306 6.63656 84.632Z" fill="#101212"/>
<path d="M108.607 97.0095C108.534 96.8161 108.513 96.607 108.547 96.4032C108.547 91.7442 108.547 87.0835 108.547 82.4212C108.547 81.5377 108.547 81.5303 109.442 81.5402C110.172 81.5402 110.9 81.4957 111.627 81.5724V87.1949C111.627 88.0041 111.627 88.0115 112.45 88.0115C114.137 88.0115 115.825 88.0115 117.512 88.0115C118.557 88.0115 118.555 87.9991 118.575 86.987C118.605 85.1731 118.487 83.3616 118.637 81.5427C119.49 81.5427 120.34 81.5278 121.192 81.5427C121.61 81.5427 121.612 81.56 121.63 81.998C121.63 82.0995 121.63 82.2034 121.63 82.3074C121.63 87.0555 121.63 91.8052 121.63 96.5566C121.63 96.7002 121.615 96.8437 121.607 96.9872C120.9 96.9872 120.192 96.9872 119.485 96.9872C118.61 96.9872 118.61 96.9872 118.61 96.0889C118.61 94.4828 118.61 92.8718 118.61 91.2707C118.61 90.5951 118.587 90.5852 117.925 90.5555C117.82 90.5555 117.715 90.5555 117.612 90.5555C115.927 90.5555 114.242 90.5555 112.557 90.5555C111.557 90.5555 111.645 90.5035 111.635 91.4637C111.62 93.1515 111.635 94.8417 111.635 96.5294C111.635 96.9699 111.622 96.9798 111.19 96.9847C110.315 97.0095 109.462 97.0095 108.607 97.0095Z" fill="#101212"/>
<path d="M140.793 81.9113C140.793 84.089 140.797 86.2675 140.805 88.4469C140.805 91.0965 140.805 93.7477 140.805 96.4006C140.833 96.6042 140.815 96.8115 140.75 97.0069C140.023 97.0069 139.293 97.0069 138.565 97.0069C137.67 97.0069 137.755 97.138 137.753 96.2298C137.753 94.6213 137.753 93.0127 137.753 91.4042C137.753 90.5925 137.74 90.5801 136.925 90.5776C135.175 90.5776 133.425 90.5776 131.675 90.5776C130.81 90.5776 130.808 90.5776 130.805 91.4314C130.805 93.1018 130.805 94.7722 130.805 96.4426C130.805 97.0069 130.805 97.0093 130.218 97.0118H127.78C127.78 96.8262 127.755 96.6431 127.755 96.4575C127.755 91.7655 127.755 87.0735 127.755 82.3814C127.755 81.4039 127.633 81.5772 128.57 81.5574C129.298 81.5425 130.025 81.5574 130.753 81.5574C130.77 81.9905 130.798 82.4235 130.8 82.8541C130.8 84.3587 130.8 85.8658 130.8 87.3704C130.8 87.9569 130.83 87.9891 131.43 88.0188C131.888 88.0411 132.348 88.0312 132.805 88.0312C134.2 88.0312 135.595 88.0485 136.99 88.0312C137.74 88.0312 137.74 88.0064 137.74 87.2615C137.74 85.6951 137.74 84.1286 137.74 82.5596C137.735 82.3737 137.743 82.1877 137.763 82.0028C137.763 81.9457 137.775 81.8892 137.799 81.8373C137.824 81.7855 137.859 81.7394 137.903 81.7025C137.947 81.6655 137.999 81.6385 138.054 81.6232C138.11 81.608 138.168 81.6049 138.225 81.6143C139.095 81.6465 139.983 81.4534 140.793 81.9113Z" fill="#101212"/>
<path d="M29.7205 83.2915L29.7505 83.6429C29.6905 83.9127 29.663 84.2814 29.8555 84.3853C30.1655 84.5685 30.1055 84.8135 30.1605 85.056C30.178 85.1352 30.1605 85.2639 30.218 85.2837C30.593 85.4495 30.5655 85.7959 30.6355 86.1053C30.683 86.3107 30.8405 86.2636 30.9855 86.2265L31.033 86.6967C30.9776 87.0354 31.0085 87.3825 31.123 87.7064C31.183 87.9019 31.3155 87.9539 31.478 87.9761L31.528 88.4315C31.4405 88.7334 31.528 88.8967 31.8705 88.8324C31.9505 89.1664 31.8455 89.5476 32.2755 89.7851C32.413 89.8618 32.358 90.2801 32.3905 90.5473C32.3556 90.7446 32.3556 90.9464 32.3905 91.1437C32.3905 91.4085 32.568 91.4184 32.7605 91.4209L32.783 91.7748C32.7617 91.954 32.7617 92.135 32.783 92.3143C32.783 92.6186 32.973 92.6805 33.223 92.6805L33.288 93.1284C33.2255 93.4031 33.288 93.5739 33.623 93.5244L33.663 93.9946C33.593 94.2816 33.688 94.5637 33.6805 94.8483C33.673 95.1329 33.873 95.222 34.1005 95.2765C34.1205 95.4274 34.1405 95.5784 34.158 95.7293C34.133 95.91 34.0855 96.0758 34.323 96.1896C34.608 96.3282 34.5105 96.6252 34.478 96.8429C34.4455 97.0607 34.2055 96.9716 34.058 96.9741C33.3755 96.9865 32.6905 96.9741 32.008 96.9741C31.443 96.9741 31.508 96.932 31.508 96.5138C31.508 96.202 31.3955 96.051 31.073 96.0832L30.9955 95.2666C31.0355 94.6825 31.023 94.6578 30.6355 94.5093C30.6355 93.9772 30.6355 93.9772 30.1605 93.9946H24.113C23.938 93.9574 23.673 93.8906 23.653 94.1035C23.628 94.3979 23.403 94.5415 23.3055 94.7766C23.2455 94.9424 23.1155 95.1008 23.3055 95.2715L23.2205 95.7343C22.9405 95.7615 22.7605 95.8828 22.768 96.1896C22.7668 96.2726 22.7593 96.3553 22.7455 96.4371C22.6805 96.979 22.6805 96.9815 22.103 96.9889C21.5855 96.9889 21.068 96.9889 20.5505 96.9889C19.7505 97.0063 19.7505 97.0063 19.7505 96.2416C19.7464 96.2008 19.7398 96.1603 19.7305 96.1203L19.7505 95.7689C20.1455 95.7887 20.163 95.5487 20.1055 95.2591L20.1555 94.7988C20.5855 94.6875 20.6555 94.3831 20.583 94.0045L20.6105 93.6654C20.808 93.6085 20.998 93.564 20.988 93.2819C21.0146 93.0817 21.0188 92.8792 21.0005 92.678L21.023 92.3217C21.1479 92.3184 21.2664 92.2664 21.3526 92.1769C21.4388 92.0874 21.4857 91.9677 21.483 91.8441C21.483 91.708 21.443 91.4976 21.573 91.4456C21.8755 91.3219 21.8405 91.0645 21.8805 90.8369C21.928 90.5424 21.903 90.2306 22.2455 90.0573C22.378 89.9905 22.3355 89.8099 22.303 89.6589L22.3755 88.8398C22.5405 88.8398 22.718 88.8843 22.738 88.6393C22.7842 88.4198 22.7842 88.1932 22.738 87.9736L22.763 87.6198C23.1955 87.5208 23.1955 87.5208 23.1855 87.0704L23.2105 86.7363C23.403 86.6769 23.603 86.6447 23.598 86.3602C23.6255 86.1601 23.633 85.9578 23.6205 85.7563L23.643 85.395C23.908 85.4074 24.0805 85.3282 24.073 85.0189C24.0947 84.8359 24.0888 84.6507 24.0555 84.4695L24.0805 84.1379C24.283 84.1057 24.4855 84.0933 24.4805 83.8013C24.5117 83.6245 24.5117 83.4436 24.4805 83.2668L24.518 82.9228C24.9655 82.8288 24.9655 82.8288 24.9255 82.3635L24.9705 81.9107C25.243 81.9404 25.393 81.8389 25.368 81.5469H28.853C28.813 81.8463 28.963 81.9428 29.2405 81.9082L29.273 82.2497C29.2392 82.4463 29.2392 82.647 29.273 82.8436C29.2638 82.9041 29.2691 82.9658 29.2883 83.0239C29.3074 83.0821 29.34 83.135 29.3835 83.1784C29.4269 83.2219 29.48 83.2548 29.5385 83.2744C29.597 83.294 29.6593 83.2999 29.7205 83.2915ZM25.3705 89.3347C24.793 89.6094 24.893 90.0945 24.973 90.5721V90.9482C24.9005 91.4209 24.9005 91.4432 25.288 91.4432C26.5163 91.4432 27.7446 91.4432 28.973 91.4432C29.358 91.4432 29.358 91.4258 29.293 90.9482L29.2755 90.5745C29.3272 90.5219 29.3562 90.4513 29.3562 90.3778C29.3562 90.3043 29.3272 90.2337 29.2755 90.1811C28.928 89.9336 28.8905 89.5649 28.8855 89.1912C28.8855 88.8744 28.688 88.8299 28.4505 88.7977L28.4255 88.4587C28.5114 88.1638 28.5018 87.8496 28.398 87.5604C28.3889 87.468 28.346 87.382 28.2774 87.3187C28.2088 87.2553 28.1192 87.219 28.0255 87.2164L27.9805 86.7586C28.003 86.2933 28.003 86.2933 27.5905 86.1943L27.5605 85.8603C27.6705 85.6573 27.5605 85.4767 27.5205 85.2787C27.4455 84.957 27.193 85.0139 26.988 84.9916C26.783 84.9694 26.763 85.1822 26.718 85.3307C26.6773 85.4131 26.6562 85.5037 26.6562 85.5955C26.6562 85.6872 26.6773 85.7778 26.718 85.8603L26.693 86.1968C26.443 86.2488 26.243 86.3255 26.2655 86.6447C26.248 86.7993 26.248 86.9554 26.2655 87.11L26.2305 87.454C25.783 87.5505 25.783 87.5505 25.8355 88.0182L25.808 88.3399C25.5405 88.377 25.363 88.4884 25.373 88.8002C25.3526 88.9378 25.3585 89.078 25.3905 89.2135C25.3902 89.2547 25.3834 89.2956 25.3705 89.3347Z" fill="#101212"/>
<path d="M157.785 95.053L157.763 95.2832C157.42 95.2684 157.333 95.4614 157.365 95.7559C157.065 95.7163 156.853 95.7856 156.865 96.1444L156.525 96.1815C156.065 96.1271 155.92 96.6022 155.573 96.7433C155.525 96.7631 155.573 96.8917 155.613 96.9635L154.763 97.0303C153.963 97.0303 153.163 97.018 152.365 97.0303C151.813 97.0303 151.258 96.9511 150.708 97.0452L150 97.0056C149.968 96.6121 149.968 96.6121 149.5 96.6393L149.15 96.5973C149.15 96.4389 149.188 96.2285 148.993 96.1716C148.633 96.0677 148.463 95.7583 148.205 95.543C147.948 95.3277 147.838 94.9615 147.668 94.6719C147.498 94.3824 147.378 94.083 147.228 93.7934C147.193 93.7417 147.145 93.7009 147.087 93.6758C147.03 93.6508 146.967 93.6427 146.905 93.6524C146.905 93.494 146.883 93.3381 146.87 93.1797V91.3905C146.87 88.1173 146.87 84.8425 146.87 81.566C147.765 81.566 148.658 81.566 149.553 81.5412C149.803 81.5412 149.943 81.5982 149.93 81.8778C149.918 82.1574 149.943 82.3727 149.943 82.6202L149.975 91.8087C149.818 92.1255 149.935 92.4521 149.93 92.7739C149.925 93.0956 150.11 93.1649 150.373 93.1698C150.123 93.6351 150.753 93.6351 150.818 93.9617C150.848 94.1077 151.098 94.0557 151.258 94.0261C151.283 94.2117 151.303 94.3948 151.563 94.4047C152.538 94.4443 153.52 94.7784 154.445 94.0929C154.695 93.9172 154.79 93.8157 154.765 93.5559C154.865 93.5559 155.015 93.593 155.058 93.5559C155.308 93.1698 155.808 92.8704 155.595 92.2913C155.605 89.4339 155.615 86.5764 155.625 83.719C155.625 83.0409 155.625 82.3628 155.64 81.6848C155.672 81.6841 155.702 81.6714 155.724 81.6493C155.747 81.6271 155.759 81.5973 155.76 81.566C156.713 81.5289 157.668 81.5313 158.623 81.566C158.623 81.8332 158.648 82.1005 158.648 82.3678C158.648 85.6971 158.648 89.0272 158.648 92.3581C158.614 92.644 158.621 92.9331 158.67 93.2168L158.61 94.036C158.265 93.9691 158.185 94.1325 158.263 94.4294C157.878 94.4665 157.71 94.6719 157.785 95.053Z" fill="#101212"/>
<path d="M88.9675 86.3432L89 85.873C89.41 85.9051 89.405 85.6478 89.3625 85.378C89.3625 85.279 89.3825 85.1825 89.385 85.0835C89.3801 84.9474 89.4245 84.8139 89.5102 84.7073C89.596 84.6007 89.7173 84.5279 89.8525 84.502C89.9525 84.502 90.1025 84.5193 90.145 84.4649C90.4175 84.1308 90.7425 83.8511 91.0425 83.5492C91.1 83.4898 91.08 83.3587 91.0975 83.2597C91.16 83.0122 91.2375 82.8143 91.565 82.8143C91.76 82.8143 92.04 82.8489 92.0325 82.5049C92.505 82.3713 92.7825 81.812 93.3675 81.9184C93.7225 81.9407 94.13 82.0842 94.245 81.5472C94.7773 81.5292 95.3065 81.4595 95.825 81.3393C96.4003 81.1462 97.0294 81.1863 97.575 81.4507C97.855 81.5992 98.185 81.5101 98.4925 81.5472C98.535 81.7526 98.605 81.911 98.8725 81.9135C99.0694 81.9427 99.2688 81.951 99.4675 81.9382L99.8325 81.9753C99.7875 82.3936 99.9675 82.4406 100.375 82.4059L100.715 82.4505C100.675 82.6138 100.64 82.7796 100.86 82.8464C100.978 82.8811 101.11 82.891 101.14 83.0394C101.217 83.3216 101.452 83.235 101.64 83.2473C101.925 83.2127 102.065 83.3265 102.025 83.6185C101.973 83.9798 102.132 84.1481 102.497 84.1357C102.442 84.4352 102.57 84.5564 102.87 84.5094C102.828 84.846 102.927 85.0637 103.32 85.0365L103.365 85.3756C103.342 85.6676 103.44 85.9596 103.365 86.2491C103.33 86.2611 103.292 86.2669 103.255 86.2664C103.115 86.2314 102.97 86.2247 102.827 86.2466C102.52 86.2466 102.442 86.4174 102.452 86.6772L102.113 86.7045C101.96 86.6564 101.796 86.6542 101.642 86.6983C101.488 86.7423 101.351 86.8306 101.247 86.9519C101.097 87.1202 100.92 87.0757 100.747 87.1177C100.73 86.655 100.73 86.655 100.298 86.6005C100.298 86.5114 100.285 86.4223 100.277 86.3333C100.277 86.0561 100.263 85.8012 99.8675 85.8878C100.04 85.3929 99.4075 85.4572 99.325 85.1157C99.2925 84.9722 99.0525 84.9994 98.895 85.0019L98.645 84.987C98.5075 84.549 98.5075 84.549 97.9775 84.5515L97.62 84.5342C97.575 84.3832 97.575 84.205 97.3375 84.2026C96.805 84.2026 96.27 84.1902 95.7375 84.1852C95.4875 84.1852 95.5025 84.3585 95.4875 84.5218L94.7575 84.554C94.205 84.554 94.205 84.554 94.085 84.9846L93.835 84.9994C93.48 84.9227 93.4175 85.3508 93.1725 85.3978C92.845 85.4572 92.8775 85.6676 92.86 85.8804C92.7375 85.8532 92.565 85.8136 92.51 85.915C92.28 86.3407 91.8375 86.697 92.01 87.2712C92.01 87.3875 91.9925 87.5038 91.9825 87.6201C91.7325 87.6201 91.6225 87.7661 91.595 87.9963C91.4862 88.9117 91.4938 89.837 91.6175 90.7506C91.6525 90.9981 91.8075 91.0352 91.985 91.0871C91.985 91.2035 92 91.3222 92.01 91.4385C91.8025 92.0176 92.32 92.327 92.51 92.7576C92.865 92.7576 92.89 93.3738 93.34 93.2055C93.265 93.5346 93.4125 93.6336 93.72 93.5668C93.72 93.9182 93.8875 94.0914 94.26 94.0122L94.97 94.0617C94.9925 94.2547 95.03 94.4156 95.29 94.4304C96.0783 94.4812 96.8692 94.4812 97.6575 94.4304C97.7042 94.434 97.7511 94.4271 97.7946 94.4101C97.8382 94.3932 97.8773 94.3667 97.9091 94.3326C97.9408 94.2986 97.9644 94.2579 97.978 94.2135C97.9916 94.1692 97.9948 94.1223 97.9875 94.0766C98.1591 94.0879 98.331 94.0593 98.4894 93.9932C98.6479 93.927 98.7885 93.825 98.9 93.6955C99.04 93.5198 99.455 93.6237 99.4 93.2302C99.8475 93.2005 99.8475 93.2005 99.8875 92.7576C100.175 92.7576 100.265 92.6066 100.257 92.3542C100.407 92.3195 100.648 92.3814 100.675 92.1909C100.738 91.7751 100.98 91.8469 101.255 91.9112C101.312 91.9338 101.375 91.9405 101.436 91.9304C101.496 91.9204 101.553 91.8941 101.6 91.8543L101.948 91.884C102.143 92.3542 102.142 92.3542 102.868 92.3146L103.335 92.3567C103.295 92.6487 103.37 92.8516 103.72 92.8318C103.72 92.9456 103.698 93.057 103.688 93.1708C103.2 92.9382 103.355 93.5717 103.055 93.6286C102.805 93.6732 102.905 93.9182 102.878 94.0865C102.81 94.1954 102.925 94.423 102.738 94.4304C102.385 94.4453 102.47 94.7051 102.412 94.8932C102.272 94.866 102.08 94.8314 102.027 94.9699C102.003 95.0616 101.956 95.1459 101.891 95.215C101.825 95.2841 101.743 95.336 101.652 95.3659C101.515 95.4178 101.555 95.6134 101.573 95.7519L101.137 95.8361C100.845 95.7717 100.72 95.8955 100.743 96.1825C100.04 96.0291 99.645 96.7195 99.0275 96.8062C99.0025 96.8062 98.995 96.9546 98.98 97.0338C98.4841 97.0707 97.9908 97.1359 97.5025 97.2293C96.787 97.3664 96.051 97.3614 95.3375 97.2145C94.8128 97.1155 94.2827 97.047 93.75 97.0091C93.75 96.7294 93.6375 96.5859 93.335 96.6849L92.89 96.6131C92.865 96.3459 92.7575 96.1677 92.45 96.1504C92.3125 96.1504 92.1025 96.1825 92.05 96.0539C91.8675 95.6109 91.5025 95.747 91.1775 95.7396L91.155 95.7222C91.31 95.2125 90.8075 94.9972 90.655 94.6284C90.58 94.4478 90.385 94.4676 90.225 94.4428C89.9475 94.4651 89.83 94.3315 89.8475 94.0642C89.9025 93.7128 89.73 93.5519 89.39 93.5346C89.3775 93.4208 89.3675 93.3069 89.355 93.1931C89.4275 92.8937 89.355 92.6982 89.0025 92.6784C89.0025 92.5596 88.99 92.4309 88.9825 92.3245C89.06 92.0374 88.9575 91.7553 88.9625 91.4707C88.9675 91.1861 88.775 91.097 88.54 91.0451L88.5 90.0799C88.6175 89.5492 88.6175 88.9996 88.5 88.4689C88.515 88.1868 88.5275 87.9047 88.5425 87.6226C88.6088 87.6153 88.673 87.5949 88.7313 87.5626C88.7895 87.5304 88.8406 87.4869 88.8816 87.4348C88.9227 87.3827 88.9527 87.3229 88.97 87.2591C88.9873 87.1953 88.9916 87.1287 88.9825 87.0633C88.9625 86.8257 89.0625 86.5832 88.9675 86.3432Z" fill="#101212"/>
<path d="M78.5148 87.9586L82.5523 87.9809C82.7798 87.9809 83.0073 87.9809 83.2348 87.9982C83.2348 88.6961 83.2623 89.3964 83.2623 90.0968C83.2623 90.5546 83.2498 90.5645 82.7623 90.5645C81.4523 90.5645 80.1398 90.5645 78.8298 90.5645C78.1323 90.5645 78.0798 90.6189 78.0573 91.2821C78.039 92.0839 78.039 92.8874 78.0573 93.6925C78.0573 94.3433 78.1523 94.4151 78.8348 94.4201C79.8748 94.4201 80.9148 94.4201 81.9548 94.4201C82.3923 94.4201 82.8298 94.4201 83.2673 94.4201C83.7048 94.4201 83.7673 94.4696 83.7673 94.915C83.7673 95.452 83.7673 95.9865 83.7673 96.5235C83.7673 96.9814 83.7523 96.9913 83.2673 96.9913C80.519 96.9913 77.769 96.9913 75.0173 96.9913C75.0173 96.8081 74.9873 96.625 74.9873 96.4394C74.9873 91.7688 74.9873 87.0983 74.9873 82.4277C74.9873 81.5393 74.9873 81.5368 75.8773 81.5393L83.7348 81.5541C83.7886 82.5326 83.7886 83.5132 83.7348 84.4916C82.2348 84.4916 80.7523 84.4916 79.2623 84.5114C79.0123 84.5114 78.7623 84.5262 78.5123 84.5337C78.2248 84.4495 78.0798 84.5337 78.0823 84.8554C78.0823 85.7809 78.0823 86.7073 78.0823 87.6345C78.0823 87.9487 78.2323 88.0279 78.5148 87.9586Z" fill="#101212"/>
<path d="M60.2509 81.5469H70.0009C70.0834 81.5469 70.1659 81.5617 70.2509 81.5691V84.4942L67.4484 84.519C66.6984 84.519 66.7709 84.4447 66.7709 85.1673C66.7709 88.848 66.7709 92.5263 66.7709 96.202C66.7709 96.4693 66.7534 96.7365 66.7459 97.0013C65.8709 97.0013 64.9959 97.0013 64.1234 97.0186C63.8184 97.0186 63.7084 96.9098 63.7309 96.6202C63.7309 96.4792 63.7309 96.3331 63.7309 96.1896C63.7309 92.5188 63.7309 88.8505 63.7309 85.1847C63.7309 84.2468 63.6759 84.1948 62.7509 84.1948C61.7734 84.1775 60.7934 84.2616 59.8184 84.1305C59.8184 83.4054 59.8184 82.6828 59.8184 81.9577C60.0409 81.9156 60.2509 81.8463 60.2509 81.5469Z" fill="#101212"/>
<path d="M39.36 97.0108C39.2964 96.8358 39.2784 96.6477 39.3075 96.4639C39.3075 91.7472 39.3075 87.0287 39.3075 82.3087C39.3075 81.5391 39.3075 81.5391 40.0575 81.5391C40.8075 81.5391 41.515 81.5391 42.2425 81.5391C42.3274 81.878 42.3653 82.2269 42.355 82.576C42.355 83.3382 42.355 84.1004 42.355 84.8626V96.3451C42.355 97.0281 42.4175 96.991 41.7275 96.9935L39.36 97.0108Z" fill="#101212"/>
<path d="M74.2508 109.493C73.9199 109.549 73.5817 109.549 73.2508 109.493C73.3008 109.201 73.1883 109.067 72.8833 109.119C72.8108 108.941 72.9183 108.664 72.5633 108.644C72.3408 108.629 72.4658 108.377 72.3783 108.255C72.3783 108.154 72.4008 107.981 72.3583 107.963C72.0083 107.812 72.0183 107.493 71.9558 107.204C71.9083 106.983 71.7058 107.013 71.5583 106.991L71.4758 106.55C71.4758 106.399 71.5283 106.179 71.2758 106.209C71.0833 106.229 71.1358 106.417 71.1458 106.555C71.0558 107.35 71.1333 108.146 71.1083 108.943C71.0883 109.555 71.2133 109.505 70.4883 109.525C70.404 109.52 70.3203 109.508 70.2383 109.488L70.2533 104.818C70.6175 104.759 70.9891 104.759 71.3533 104.818C71.3614 104.848 71.3792 104.875 71.404 104.894C71.4289 104.913 71.4593 104.924 71.4908 104.924L71.5133 105.155C71.4958 105.677 71.4958 105.677 71.9383 105.699L71.9833 106.045C71.9358 106.511 72.3783 106.679 72.5758 106.996C72.5758 107.011 72.6858 106.973 72.7433 106.961C72.8783 107.082 72.7933 107.26 72.8658 107.399C72.8508 107.572 72.7783 107.805 73.0533 107.805C73.3283 107.805 73.2658 107.577 73.2358 107.399L73.2658 105.263C73.2658 104.786 73.2658 104.781 73.7333 104.781C73.8958 104.781 74.0583 104.811 74.2333 104.825L74.2508 109.493Z" fill="#101212"/>
<path d="M37.5243 104.849C37.6118 105.931 37.5443 107.012 37.5643 108.093C37.5643 108.482 37.5643 108.871 37.5643 109.259C37.5643 109.432 37.4993 109.524 37.3143 109.524C37.0645 109.51 36.8141 109.51 36.5643 109.524C36.2493 109.554 36.2568 109.336 36.2268 109.14C36.2268 109.064 36.2268 108.94 36.1893 108.913C36.0728 108.826 35.9758 108.717 35.9048 108.591C35.8337 108.465 35.7901 108.326 35.7768 108.183C35.7605 108.093 35.712 108.013 35.6402 107.956C35.5684 107.9 35.4784 107.871 35.3868 107.876C35.3718 107.717 35.4293 107.497 35.2668 107.428C34.9243 107.279 34.8943 106.861 34.5643 106.685C34.4718 106.641 34.4318 106.438 34.2518 106.478C34.0718 106.517 34.0718 106.68 34.0718 106.821C34.0718 107.707 34.081 108.592 34.0993 109.474C34.0806 109.484 34.0603 109.491 34.0393 109.494C33.2143 109.586 33.2168 109.586 33.2168 108.791C33.2168 107.599 33.2168 106.406 33.2168 105.21C33.2168 104.782 33.2168 104.78 33.6643 104.775C33.8518 104.775 34.0393 104.8 34.2243 104.775C34.5068 104.755 34.5143 104.936 34.5193 105.129C34.4593 105.49 34.6243 105.656 34.9843 105.653C34.9843 106.082 35.5118 106.27 35.4643 106.72C35.4643 106.807 35.5418 106.859 35.6243 106.883C35.7068 106.908 35.7443 106.908 35.8018 106.92C35.8018 107.205 35.8543 107.453 36.2343 107.415C36.1518 107.651 36.1943 107.841 36.4843 107.853C36.7068 107.866 36.7343 107.678 36.7343 107.505C36.7343 107.331 36.7343 107.175 36.7343 107.01C36.7343 106.267 36.7343 105.525 36.7468 104.782L37.5243 104.849Z" fill="#101212"/>
<path d="M41.9041 104.885L41.9266 105.132C41.8891 105.38 41.9066 105.585 42.2191 105.696C42.4316 105.771 42.3916 106.055 42.4041 106.236C42.4216 106.483 42.7566 106.444 42.7566 106.681C42.7566 106.993 43.0066 107.006 43.2216 107.045L43.2391 107.293C43.2239 107.362 43.2257 107.435 43.2444 107.504C43.2631 107.572 43.2981 107.636 43.3466 107.689C43.5017 107.796 43.6919 107.841 43.8791 107.815C44.2316 107.773 44.1166 107.481 44.1291 107.28C44.1441 106.459 44.1291 105.637 44.1416 104.806C44.9841 104.746 44.9841 104.746 44.9841 105.573C44.9841 106.867 44.9841 108.161 44.9841 109.463C44.6708 109.512 44.3537 109.533 44.0366 109.527C43.7041 109.567 43.6616 109.366 43.6266 109.134C43.6391 108.886 43.5091 108.76 43.2591 108.755C43.2494 108.723 43.236 108.693 43.2191 108.664C43.2941 108.315 43.0766 108.248 42.8016 108.233L42.7091 107.805C42.7316 107.684 42.7766 107.557 42.6616 107.461C42.3166 107.196 42.2441 106.753 41.9741 106.439C41.8791 106.33 41.9266 106.078 41.6891 106.112C41.4516 106.147 41.5541 106.377 41.5016 106.516C41.4776 106.596 41.4674 106.68 41.4716 106.763C41.4716 107.669 41.4841 108.572 41.4916 109.485C41.234 109.549 40.9661 109.56 40.7041 109.517C40.6205 109.366 40.5948 109.191 40.6316 109.022C40.6316 107.754 40.6316 106.485 40.6316 105.216C40.6316 104.783 40.6316 104.778 41.0716 104.773C41.2991 104.773 41.5266 104.788 41.7541 104.796C41.7677 104.823 41.7891 104.847 41.8157 104.862C41.8423 104.878 41.8731 104.886 41.9041 104.885Z" fill="#101212"/>
<path d="M30.5891 107.057V107.381C30.0891 107.529 30.1666 107.933 30.1691 108.304L30.1191 108.643C29.6966 108.643 29.6966 108.643 29.7191 109.079L29.6891 109.103C29.4816 109.017 29.2941 109.128 29.0941 109.15C28.8441 109.178 28.8966 109.361 28.8766 109.512C28.2944 109.564 27.7087 109.564 27.1266 109.512C27.1966 109.098 26.9191 109.118 26.6441 109.133L26.3941 109.106C26.3716 108.787 26.2791 108.544 25.8766 108.646L25.8141 108.321C25.9116 107.915 25.7266 107.529 25.7266 107.126C25.7266 106.765 25.9266 106.423 25.8016 106.059C25.8141 105.98 25.8166 105.829 25.8391 105.827C26.2066 105.775 26.1741 105.277 26.5366 105.228C26.7866 105.196 26.6491 104.733 27.0366 104.812C27.1483 104.832 27.263 104.828 27.3729 104.8C27.4829 104.772 27.5856 104.722 27.6741 104.651C27.7652 104.603 27.867 104.578 27.9703 104.578C28.0736 104.578 28.1754 104.603 28.2666 104.651C28.5716 104.857 28.9016 104.787 29.2141 104.849C29.2691 105.268 29.2691 105.268 29.6741 105.23L29.6941 105.26C29.6941 105.713 29.6941 105.713 30.0941 105.703C30.0906 106.065 30.1403 106.426 30.2416 106.775C30.2568 106.855 30.3 106.927 30.3635 106.978C30.4271 107.03 30.5069 107.058 30.5891 107.057ZM27.1166 108.279C27.1016 108.685 27.1016 108.685 27.4966 108.646C27.9448 108.706 28.4 108.694 28.8441 108.608C29.1166 108.646 29.2416 108.524 29.2341 108.255C29.3241 108.118 29.2766 107.958 29.3116 107.809C29.5616 107.794 29.7466 107.735 29.7216 107.428C29.7066 107.248 29.7066 107.068 29.7216 106.888C29.7466 106.582 29.5541 106.522 29.3091 106.505L29.2691 106.144C29.1316 105.649 29.1316 105.649 28.4791 105.693L27.6266 105.676C27.1266 105.646 27.1266 105.646 27.1266 106.045C26.6466 106.074 26.6266 106.092 26.7016 106.589C26.6795 106.991 26.6912 107.394 26.7366 107.794C26.6966 108.237 26.6966 108.237 27.1191 108.289L27.1166 108.279Z" fill="#101212"/>
<path d="M80.2623 104.789L80.7273 104.836C80.7048 104.96 80.6798 105.138 80.7898 105.175C81.3098 105.338 81.1648 105.722 81.1248 106.076H80.7498C80.7298 105.744 80.5598 105.611 80.2323 105.687C79.8228 105.645 79.4104 105.64 78.9998 105.67C78.6098 105.522 78.5423 105.937 78.3073 106.049C78.0723 106.16 78.0848 106.338 78.1273 106.544C78.0736 106.948 78.0736 107.357 78.1273 107.761C78.0698 108.066 78.1273 108.281 78.5098 108.256C78.5323 108.655 78.5323 108.655 78.9823 108.652C79.3972 108.707 79.8175 108.707 80.2323 108.652C80.6873 108.667 80.6873 108.667 80.6723 108.236C80.7373 107.954 80.6723 107.771 80.3323 107.793C80.1739 107.798 80.0153 107.794 79.8573 107.781C79.9198 107.511 79.7498 107.232 79.8823 106.964L81.5673 106.979C81.6623 107.823 81.5948 108.669 81.6048 109.516C81.4453 109.56 81.2758 109.554 81.1198 109.498C81.1398 109.293 81.1673 109.088 80.8573 109.08C80.7155 109.059 80.571 109.093 80.454 109.175C80.337 109.257 80.2567 109.381 80.2298 109.521C79.6525 109.579 79.0702 109.571 78.4948 109.496C78.4948 109.13 78.4948 109.13 78.0923 109.157C77.7748 109.157 77.5698 109.026 77.5698 108.679C77.6323 108.402 77.5698 108.234 77.2323 108.276C77.1673 107.575 77.1673 106.869 77.2323 106.167C77.5898 106.167 77.6598 105.962 77.5948 105.673C77.7275 105.636 77.8493 105.568 77.9498 105.475C78.3598 105.123 78.7648 104.747 79.3973 104.839C79.686 104.882 79.9807 104.865 80.2623 104.789Z" fill="#101212"/>
<path d="M122 109.515C121.454 109.556 120.906 109.556 120.36 109.515C120.36 109.161 120.143 109.104 119.86 109.148L119.523 109.101C119.485 108.658 119.485 108.658 119.023 108.619C119.008 108.505 118.993 108.394 118.98 108.28C119.005 107.797 119.005 107.797 118.628 107.772C118.592 107.361 118.592 106.947 118.628 106.535C118.993 106.51 118.993 106.51 118.98 106.028C118.998 105.916 119.013 105.805 119.03 105.696C119.19 105.709 119.42 105.756 119.458 105.58C119.51 105.332 119.648 105.268 119.833 105.174C119.945 105.117 119.915 104.961 119.893 104.84L120.358 104.793C120.94 104.842 121.525 104.847 122.108 104.808L122.458 104.845C122.288 105.29 122.91 105.283 122.925 105.639C122.925 105.723 123.093 105.723 123.195 105.723C123.236 105.719 123.276 105.711 123.315 105.699C123.33 105.813 123.348 105.924 123.365 106.038V108.265L123.345 108.5C123.315 108.51 123.29 108.53 123.272 108.556C123.255 108.582 123.246 108.612 123.248 108.644C123.148 108.666 123.033 108.644 122.953 108.735C122.588 108.765 122.438 109.173 122.075 109.23C122.048 109.238 122.035 109.416 122 109.515ZM122.123 108.277C122.52 108.292 122.52 108.292 122.483 107.891C122.484 107.855 122.491 107.819 122.503 107.785C122.618 107.758 122.778 107.785 122.813 107.639C122.888 107.325 122.888 106.998 122.813 106.684C122.78 106.548 122.62 106.562 122.505 106.528C122.493 106.406 122.505 106.196 122.458 106.179C122.088 106.062 121.883 105.624 121.43 105.667C121.205 105.689 120.975 105.667 120.748 105.681C119.998 105.644 119.998 105.654 119.875 106.176C119.875 106.293 119.86 106.411 119.85 106.528C119.69 106.543 119.508 106.528 119.505 106.775C119.503 107.023 119.505 107.3 119.505 107.56C119.505 107.82 119.695 107.78 119.855 107.807C119.875 107.956 119.895 108.107 119.913 108.258C119.895 108.599 120.108 108.661 120.388 108.641C120.802 108.701 121.221 108.713 121.638 108.676C122.093 108.72 122.093 108.72 122.138 108.297L122.123 108.277Z" fill="#101212"/>
<path d="M19.7705 104.828L20.1255 104.801C20.7079 104.848 21.2932 104.848 21.8755 104.801L22.2305 104.826C22.2305 105.182 22.4105 105.32 22.7505 105.296C22.8055 105.432 22.728 105.645 23.0005 105.652C23.273 105.659 23.223 105.843 23.203 106.008C23.023 106.036 22.843 106.063 22.663 106.085C22.5942 106.105 22.5209 106.105 22.4523 106.084C22.3838 106.062 22.3231 106.022 22.278 105.966C22.058 105.6 21.7205 105.645 21.378 105.677H20.628C19.878 105.642 19.878 105.642 19.738 106.154C19.683 106.749 19.678 107.346 19.723 107.941C19.743 108.226 19.893 108.268 20.108 108.29C20.108 108.708 20.1255 108.731 20.498 108.639C20.8297 108.686 21.1664 108.686 21.498 108.639C21.9005 108.736 21.9255 108.713 21.898 108.295C22.088 108.236 22.328 108.278 22.363 107.958C22.388 107.738 22.613 107.827 22.7505 107.847C22.6955 108.179 22.843 108.307 23.1705 108.255C23.1705 108.317 23.2155 108.414 23.1905 108.434C22.908 108.654 22.803 109.08 22.378 109.129C22.0955 109.104 21.853 109.129 21.878 109.503C21.2959 109.554 20.7102 109.554 20.128 109.503C20.158 109.203 20.008 109.107 19.728 109.159L19.2905 109.07C19.3155 108.639 19.3155 108.639 18.8905 108.627L18.848 108.29C18.848 107.795 18.848 107.795 18.4355 107.738V106.568C18.843 106.498 18.843 106.498 18.848 106.013C18.8755 105.902 18.818 105.694 18.9305 105.697C19.308 105.709 19.223 105.395 19.3305 105.217C19.7505 105.244 19.7505 105.244 19.7705 104.828Z" fill="#101212"/>
<path d="M156.5 106.532L156.867 106.564C156.85 106.685 156.827 106.853 156.962 106.881C157.354 106.945 157.716 107.128 158 107.403C158.092 107.492 158.22 107.526 158.25 107.685C158.28 107.843 158.447 107.853 158.592 107.786C158.64 108.066 158.64 108.352 158.592 108.633C158.2 108.633 158.2 108.633 158.212 109.1C158.067 109.204 157.772 109.053 157.755 109.385C157.755 109.553 157.58 109.516 157.465 109.526C156.974 109.573 156.48 109.573 155.99 109.526C156.005 109.234 155.867 109.125 155.582 109.192L155.25 109.135C155.215 108.841 155.117 108.608 154.75 108.64C154.722 108.524 154.726 108.402 154.762 108.289L156 108.269C156.025 108.499 156.05 108.709 156.382 108.675C156.626 108.662 156.871 108.662 157.115 108.675C157.22 108.675 157.342 108.657 157.365 108.541C157.42 108.324 157.41 108.097 157.337 107.885C157.245 107.712 157.035 107.816 156.89 107.757C156.932 107.581 156.937 107.423 156.695 107.403C156.471 107.362 156.242 107.357 156.017 107.39L155.66 107.356C155.66 107.173 155.715 106.955 155.45 106.923C155.225 106.895 155.22 106.744 155.165 106.586C155.01 106.133 155.202 105.688 155.165 105.24L155.187 105.208C155.5 105.265 155.657 105.143 155.642 104.822L155.997 104.797C156.457 104.841 156.92 104.841 157.38 104.797L157.732 104.827C157.732 105.007 157.697 105.215 157.95 105.26C158.16 105.297 158.2 105.423 158.2 105.604C158.209 105.744 158.226 105.883 158.25 106.022C158.052 106.072 157.845 106.085 157.642 106.059C157.562 106.059 157.44 106.081 157.42 106C157.282 105.403 156.807 105.732 156.485 105.651C156.325 105.616 156.125 105.547 156.037 105.722C155.988 105.835 155.964 105.958 155.968 106.081C155.971 106.204 156.002 106.325 156.057 106.435C156.135 106.621 156.345 106.542 156.5 106.532Z" fill="#101212"/>
<path d="M141.65 106.555C141.65 106.951 141.65 107.349 141.65 107.745C141.632 107.993 141.557 108.24 141.932 108.282C142.052 108.295 142.08 108.398 142.11 108.497C142.18 108.723 142.36 108.653 142.51 108.624C142.952 108.691 143.402 108.685 143.842 108.604C144.137 108.666 144.267 108.547 144.235 108.252C144.457 108.252 144.677 108.235 144.9 108.238C144.925 108.235 144.95 108.237 144.975 108.245C144.999 108.252 145.021 108.265 145.04 108.281C145.059 108.298 145.074 108.318 145.085 108.341C145.096 108.364 145.102 108.388 145.102 108.413C145.102 108.52 145.102 108.619 144.965 108.638C144.67 108.681 144.715 108.886 144.715 109.094H144.7C144.225 109.074 144.225 109.074 144.222 109.468C143.522 109.547 142.816 109.554 142.115 109.487C142.177 109.072 141.9 109.094 141.615 109.114C141.619 109.065 141.613 109.017 141.596 108.971C141.579 108.926 141.552 108.885 141.517 108.851C141.482 108.817 141.44 108.791 141.394 108.776C141.347 108.76 141.298 108.754 141.25 108.76C141.287 108.426 141.152 108.24 140.8 108.235C140.8 108.121 140.782 108.005 140.775 107.891C140.876 107.442 140.865 106.976 140.742 106.533C140.76 106.377 140.777 106.221 140.797 106.067C141.095 106.067 141.277 105.978 141.222 105.642C141.277 105.466 141.2 105.201 141.525 105.211C141.68 104.8 142.07 104.874 142.387 104.758C142.733 104.652 143.093 104.599 143.455 104.602C143.747 104.585 143.935 104.894 144.237 104.818C144.237 105.142 144.392 105.268 144.715 105.196C144.73 105.384 144.66 105.614 144.965 105.661C145.092 105.684 145.11 105.783 145.1 105.892C145.09 106 144.982 106.033 144.88 106.047L144.282 106.127V106.112C144.282 105.835 144.21 105.637 143.87 105.639C143.703 105.617 143.534 105.622 143.37 105.654H142.62C142.292 105.555 142.165 105.872 141.95 105.958C141.617 106.107 141.58 106.27 141.65 106.555Z" fill="#101212"/>
<path d="M57.5881 105.324L57.6106 105.571C57.5756 105.754 57.7581 106.027 57.4581 106.093C57.2281 106.145 56.8956 106.126 56.7956 105.913C56.6531 105.611 56.4606 105.665 56.2381 105.69H55.3806C54.6981 105.645 54.6981 105.645 54.5906 106.121L54.5706 106.145C54.3206 106.16 54.1356 106.229 54.1406 106.531C54.1456 106.833 54.1406 107.182 54.1256 107.504C54.1131 107.789 54.2731 107.85 54.5106 107.833L54.5806 108.241C54.6081 108.501 54.6831 108.709 55.0181 108.637C55.4318 108.699 55.8518 108.709 56.2681 108.667C56.7256 108.679 56.7256 108.679 56.7456 108.276C57.0481 108.323 57.2456 108.261 57.1756 107.895C57.2386 107.864 57.3071 107.847 57.3771 107.843C57.447 107.839 57.5171 107.849 57.5831 107.873C57.5531 108.17 57.6881 108.459 57.6106 108.756C57.5606 108.749 57.5097 108.753 57.4616 108.769C57.4136 108.784 57.3699 108.81 57.3338 108.845C57.2977 108.88 57.2703 108.923 57.2537 108.97C57.2371 109.017 57.2318 109.068 57.2381 109.117C56.9881 109.117 56.6706 109.068 56.7531 109.499C56.1714 109.554 55.586 109.561 55.0031 109.521C54.9781 109.197 54.7806 109.108 54.4856 109.155L54.1506 109.108C54.3006 108.65 53.6506 108.65 53.6506 108.254C53.6506 108.165 53.5081 108.12 53.4006 108.113C53.3604 108.114 53.3203 108.119 53.2806 108.125C53.2281 107.481 53.2281 106.834 53.2806 106.19C53.6631 106.145 53.6631 106.145 53.6356 105.695C54.1056 105.67 54.1056 105.67 54.1356 105.217C54.4806 105.324 54.5931 105.136 54.6181 104.841L54.9731 104.816C55.5185 104.868 56.0677 104.868 56.6131 104.816L57.0806 104.861C57.1156 105.279 57.1156 105.279 57.5881 105.324Z" fill="#101212"/>
<path d="M100.25 104.8C100.625 104.743 100.78 104.921 100.77 105.275C100.713 105.572 100.888 105.653 101.138 105.668C101.171 106.134 101.171 106.603 101.138 107.069C101.138 107.351 100.988 107.405 100.765 107.423C100.483 107.391 100.245 107.423 100.245 107.786L99.0302 107.814C98.5427 107.836 98.5427 107.836 98.5302 108.249C98.5448 108.672 98.5331 109.095 98.4952 109.516C98.4744 109.518 98.4535 109.518 98.4327 109.516C97.5252 109.496 97.7077 109.536 97.6977 108.791C97.6827 107.702 97.6977 106.611 97.6977 105.522C97.6773 105.296 97.6908 105.069 97.7377 104.847L100.25 104.8ZM100.25 106.532C100.295 106.37 100.295 106.199 100.25 106.037C100.283 105.646 100.283 105.646 99.8652 105.678H99.0177C98.6827 105.619 98.5177 105.72 98.5327 106.094C98.5477 106.467 98.4327 106.898 98.9852 107.136C99.3652 107.296 99.5427 107.457 99.6677 107.207C99.8152 106.913 100.293 107.118 100.283 106.712C100.277 106.653 100.266 106.594 100.25 106.537V106.532Z" fill="#101212"/>
<path d="M148.25 104.8C148.273 104.8 148.293 104.8 148.313 104.8C149.24 104.8 149.028 104.8 149.063 105.508C149.08 105.854 148.995 106.206 149.13 106.545C148.993 106.768 149.053 106.899 149.318 106.906C149.673 106.906 150.025 106.906 150.38 106.906C151.24 106.906 151.26 106.886 151.265 106.06C151.265 105.647 151.265 105.233 151.265 104.823C152.108 104.751 152.108 104.751 152.11 105.528V108.992C152.11 109.522 152.11 109.522 151.565 109.532C151.462 109.528 151.359 109.518 151.258 109.502C151.258 108.931 151.24 108.356 151.235 107.785C151.235 107.537 151.115 107.421 150.858 107.421C150.425 107.421 149.99 107.406 149.558 107.406C149.333 107.412 149.118 107.503 148.958 107.659C148.798 107.816 148.704 108.027 148.695 108.25C148.675 108.676 148.768 109.106 148.628 109.527L148.245 109.515C148.208 107.943 148.2 106.372 148.25 104.8Z" fill="#101212"/>
<path d="M106.874 106.06C106.709 106.1 106.535 106.09 106.374 106.033C106.374 105.659 106.374 105.659 105.874 105.664H105.124C104.642 105.709 104.602 105.766 104.664 106.179C104.707 106.478 104.914 106.508 105.139 106.513L105.489 106.543C105.489 106.79 105.597 106.897 105.844 106.939C106.09 106.978 106.318 107.088 106.499 107.255C106.702 107.434 106.887 107.768 107.249 107.773C107.261 107.808 107.268 107.845 107.269 107.882C107.241 107.944 107.226 108.011 107.226 108.08C107.226 108.148 107.241 108.215 107.269 108.277L107.249 108.641C106.937 108.641 106.817 108.819 106.862 109.116C106.835 109.136 106.807 109.153 106.777 109.168C106.462 109.072 106.339 109.198 106.377 109.507C105.796 109.577 105.208 109.577 104.627 109.507C104.679 109.183 104.514 109.104 104.229 109.158C103.909 109.131 103.729 108.985 103.752 108.639C103.798 108.53 103.803 108.409 103.764 108.297C103.877 108.169 104.062 108.218 104.192 108.102C104.479 107.854 104.492 107.854 104.639 108.258C104.659 108.664 104.659 108.664 105.104 108.659C105.373 108.701 105.646 108.708 105.917 108.681C106.429 108.775 106.392 108.604 106.417 108.169C106.432 107.849 106.319 107.701 105.982 107.812C105.969 107.634 105.997 107.434 105.719 107.431C105.521 107.389 105.315 107.389 105.117 107.431L104.657 107.384C104.644 107.109 104.577 106.889 104.222 106.981L104.199 106.951C104.304 106.592 104.087 106.456 103.792 106.399C103.792 106.164 103.792 105.929 103.792 105.696C103.912 105.667 104.132 105.642 104.134 105.605C104.152 105.241 104.559 105.125 104.634 104.808C104.67 104.797 104.707 104.792 104.744 104.793C105.169 104.855 105.6 104.855 106.024 104.793L106.379 104.815C106.399 104.895 106.379 105.013 106.439 105.043C106.829 105.278 106.827 105.672 106.874 106.06Z" fill="#101212"/>
<path d="M50.6203 109.497C49.8528 109.574 49.0803 109.497 48.3128 109.535C48.0628 109.535 47.9878 109.445 47.9903 109.208C47.9903 107.847 47.9903 106.486 47.9903 105.127C47.9903 104.907 48.0403 104.773 48.2978 104.781C49.0653 104.808 49.8353 104.729 50.6053 104.815V105.642C50.1503 105.642 49.6928 105.669 49.2378 105.659C48.9678 105.659 48.8603 105.748 48.8878 106.013C48.9053 106.176 48.9053 106.342 48.9128 106.508C48.8653 106.785 48.9503 106.939 49.2678 106.921C49.5179 106.91 49.7684 106.915 50.0178 106.936C50.0816 106.936 50.143 106.96 50.1895 107.003C50.2359 107.046 50.264 107.106 50.2678 107.169C50.2678 107.327 50.1753 107.389 50.0428 107.399C49.8353 107.399 49.6278 107.399 49.4228 107.399C48.9553 107.399 48.9553 107.399 48.9078 107.906C48.9078 108.661 48.9078 108.649 49.6253 108.663C49.9503 108.663 50.2753 108.681 50.6028 108.688L50.6203 109.497Z" fill="#101212"/>
<path d="M135.625 104.802C136.305 104.802 136.985 104.777 137.665 104.782C138.165 104.782 138.165 104.794 138.165 105.237C138.165 105.68 138.165 105.638 137.635 105.665C137.23 105.688 136.815 105.576 136.42 105.75C136.148 105.809 136.055 106.049 136.17 106.212C136.35 106.46 136.255 106.915 136.733 106.918C137.003 106.918 137.273 106.918 137.54 106.947C137.69 106.96 137.738 107.083 137.725 107.219C137.723 107.245 137.716 107.27 137.704 107.293C137.692 107.316 137.675 107.336 137.655 107.353C137.635 107.369 137.612 107.382 137.587 107.39C137.562 107.397 137.536 107.4 137.51 107.398C137.283 107.398 137.053 107.417 136.825 107.398C136.5 107.375 136.433 107.554 136.455 107.818C136.431 107.918 136.416 108.019 136.41 108.12C136.41 108.66 136.41 108.66 136.945 108.665H138.048C138.088 108.734 138.125 108.766 138.128 108.803C138.2 109.687 138.175 109.504 137.493 109.521C136.87 109.538 136.243 109.521 135.623 109.521C135.568 107.942 135.569 106.369 135.625 104.802Z" fill="#101212"/>
<path d="M132.485 105.651C131.628 105.683 131.628 105.683 131.628 106.559V109.489C131.341 109.543 131.047 109.543 130.76 109.489C130.76 108.346 130.76 107.205 130.78 106.064C130.78 105.76 130.71 105.581 130.358 105.683L130 105.67C129.485 105.648 129.5 105.648 129.5 105.158C129.5 104.911 129.573 104.794 129.848 104.797C130.738 104.812 131.628 104.797 132.515 104.812C132.544 105.091 132.534 105.374 132.485 105.651Z" fill="#101212"/>
<path d="M116.358 105.642L115.523 105.694C115.155 105.613 115.12 105.825 115.12 106.112C115.12 107.241 115.12 108.372 115.12 109.5C114.846 109.538 114.568 109.538 114.293 109.5C114.224 109.183 114.207 108.856 114.24 108.533C114.24 107.731 114.24 106.927 114.24 106.125C114.24 105.67 114.24 105.67 113.758 105.657L113.385 105.642C113.348 105.362 113.343 105.079 113.373 104.798C114.373 104.764 115.373 104.746 116.373 104.798L116.358 105.642Z" fill="#101212"/>
<path d="M88.1226 104.8C89.0126 104.8 89.9026 104.787 90.7926 104.787C90.9301 104.787 91.1151 104.753 91.1176 104.965C91.1201 105.178 91.2076 105.421 91.0501 105.616C91.0126 105.661 90.8976 105.651 90.8176 105.656C90.6326 105.656 90.4451 105.671 90.2601 105.678C89.9851 105.596 89.8201 105.656 89.8251 105.98C89.8376 107.146 89.8451 108.311 89.8551 109.479C89.5926 109.586 89.3226 109.502 89.0376 109.524C88.9746 109.095 88.9587 108.661 88.9901 108.23C88.9901 107.532 88.9901 106.834 88.9901 106.136C88.9901 105.676 88.9901 105.676 88.5151 105.663L88.1426 105.651C88.0785 105.371 88.0717 105.082 88.1226 104.8Z" fill="#101212"/>
<path d="M61.1076 105.686L60.2676 105.644V104.812C61.2619 104.76 62.2583 104.76 63.2526 104.812C63.2526 105.09 63.2526 105.367 63.2526 105.641C62.3901 105.688 62.3901 105.688 62.3901 106.55V109.472C62.1079 109.538 61.815 109.545 61.5301 109.492C61.5301 108.351 61.5301 107.21 61.5476 106.07C61.5326 105.765 61.4601 105.585 61.1076 105.686Z" fill="#101212"/>
<path d="M94.6245 109.489C94.3383 109.562 94.0381 109.562 93.752 109.489L93.767 104.834C94.0433 104.764 94.3331 104.764 94.6095 104.834L94.6245 109.489Z" fill="#101212"/>
<path d="M67.1199 104.852C67.1999 106.388 67.1399 107.923 67.1599 109.521H66.3749C66.3192 109.301 66.3031 109.074 66.3274 108.848C66.3274 107.796 66.3274 106.745 66.3274 105.693C66.3249 104.854 66.3249 104.854 67.1199 104.852Z" fill="#101212"/>
<path d="M56.6895 94.4657L56.707 96.9652C56.582 96.9652 56.457 96.9949 56.3345 96.9949C54.0445 96.9949 51.7553 96.9949 49.467 96.9949C48.927 96.9949 48.917 96.9949 48.917 96.4455C48.917 94.3865 48.917 92.3243 48.917 90.2587V82.5451C48.917 81.8522 48.9295 81.8448 49.5995 81.8398C50.057 81.8398 50.5145 81.8398 50.972 81.8398C51.5345 81.8398 51.5545 81.8695 51.562 82.4461C51.562 82.6936 51.562 82.9411 51.562 83.1886V93.5055C51.562 94.4162 51.562 94.4187 52.512 94.4236C53.677 94.4236 54.842 94.4236 56.012 94.4236C56.2345 94.4311 56.462 94.4533 56.6895 94.4657Z" fill="#101212"/>
</g>
<defs>
<clipPath id="clip0_802_25407">
<rect width="176" height="110" fill="white"/>
</clipPath>
</defs>
</svg>
