<svg width="56" height="56" viewBox="0 0 56 56" fill="none" xmlns="http://www.w3.org/2000/svg">
<circle cx="36.6893" cy="33.8963" r="19.3103" fill="#EDF2F2"/>
<g clip-path="url(#clip0_810_51711)">
<path d="M31.8185 14.2768L19.3119 25.2975L6.80259 14.2766C6.3045 13.8378 5.54526 13.886 5.1066 14.3838C4.6681 14.8817 4.71584 15.641 5.21394 16.0798L18.5177 27.8007C18.7447 28.0006 19.0285 28.1006 19.3121 28.1006C19.5956 28.1006 19.8795 28.0006 20.1065 27.8005L33.4076 16.0796C33.9054 15.641 33.9533 14.8816 33.5146 14.3836C33.0756 13.8862 32.3166 13.8381 31.8185 14.2768Z" fill="#101212"/>
<path d="M35.0159 9.17188H3.60475C1.61717 9.17188 0 10.7889 0 12.7766V31.8421C0 33.8298 1.61717 35.4468 3.60475 35.4468H35.0159C37.0035 35.4468 38.6207 33.8298 38.6207 31.8421V12.7766C38.6207 10.789 37.0035 9.17188 35.0159 9.17188ZM36.2175 31.8421C36.2175 32.5046 35.6786 33.0437 35.0159 33.0437H3.60475C2.94212 33.0437 2.40317 32.5046 2.40317 31.8421V12.7766C2.40317 12.1142 2.94212 11.575 3.60475 11.575H35.0159C35.6786 11.575 36.2175 12.1142 36.2175 12.7766V31.8421Z" fill="#101212"/>
</g>
<defs>
<clipPath id="clip0_810_51711">
<rect width="38.6207" height="38.6207" fill="white" transform="translate(0 3)"/>
</clipPath>
</defs>
</svg>
