<svg width="20" height="20" viewBox="0 0 20 20" fill="none" xmlns="http://www.w3.org/2000/svg">
<rect width="20" height="20" fill="#101212"/>
<g clip-path="url(#clip0_383_33849)">
<path d="M11.0994 10.0117L15.7719 5.33898C16.076 5.03504 16.076 4.54361 15.7719 4.23967C15.468 3.93573 14.9766 3.93573 14.6726 4.23967L9.99993 8.91238L5.32737 4.23967C5.02329 3.93573 4.532 3.93573 4.22806 4.23967C3.92398 4.54361 3.92398 5.03504 4.22806 5.33898L8.90062 10.0117L4.22806 14.6844C3.92398 14.9883 3.92398 15.4798 4.22806 15.7837C4.37953 15.9353 4.5787 16.0115 4.77772 16.0115C4.97674 16.0115 5.17576 15.9353 5.32737 15.7837L9.99993 11.111L14.6726 15.7837C14.8243 15.9353 15.0233 16.0115 15.2223 16.0115C15.4213 16.0115 15.6203 15.9353 15.7719 15.7837C16.076 15.4798 16.076 14.9883 15.7719 14.6844L11.0994 10.0117Z" fill="#F5F7F7"/>
</g>
<defs>
<clipPath id="clip0_383_33849">
<rect width="12" height="12" fill="white" transform="translate(4 4)"/>
</clipPath>
</defs>
</svg>
