<svg width="24" height="24" viewBox="0 0 24 24" fill="none" xmlns="http://www.w3.org/2000/svg">
<path d="M20.6963 2.56678H18.376V1.68029C18.376 1.42122 18.1657 1.21094 17.9066 1.21094C17.6476 1.21094 17.4373 1.42122 17.4373 1.68029V2.56678H9.51154V1.68029C9.51154 1.42122 9.30126 1.21094 9.04219 1.21094C8.78313 1.21094 8.57285 1.42122 8.57285 1.68029V2.56678H6.09608C4.68559 2.56841 3.54265 3.71119 3.54102 5.12168V12.9433C3.54102 13.2024 3.7513 13.4125 4.01036 13.4125C4.26943 13.4125 4.47955 13.2024 4.47955 12.9433V9.86688H22.3128V20.2434C22.3117 21.1358 21.5887 21.8588 20.6963 21.8598H6.09608C5.20372 21.8588 4.48069 21.1358 4.47955 20.2434V17.5319C4.47955 17.2729 4.26943 17.0626 4.01036 17.0626C3.7513 17.0626 3.54102 17.2729 3.54102 17.5319V20.2434C3.54265 21.6539 4.68559 22.7969 6.09608 22.7985H20.6963C22.1068 22.7969 23.2497 21.6539 23.2514 20.2434V5.12168C23.2497 3.71119 22.1068 2.56841 20.6963 2.56678ZM4.47955 8.92818V5.12168C4.48069 4.22932 5.20372 3.50629 6.09608 3.50531H8.57285V4.77958C7.86613 5.01026 7.43202 5.7204 7.54883 6.45468C7.66563 7.1888 8.29877 7.72912 9.04219 7.72912C9.78561 7.72912 10.4188 7.1888 10.5356 6.45468C10.6524 5.7204 10.2183 5.01026 9.51154 4.77958V3.50531H17.4373V4.77958C16.7306 5.01026 16.2965 5.7204 16.4133 6.45468C16.5301 7.1888 17.1632 7.72912 17.9066 7.72912C18.65 7.72912 19.2832 7.1888 19.4 6.45468C19.5168 5.7204 19.0827 5.01026 18.376 4.77958V3.50531H20.6963C21.5887 3.50629 22.3117 4.22932 22.3128 5.12168V8.92818H4.47955ZM9.04219 5.64324C9.35901 5.64324 9.61579 5.90001 9.61579 6.21683C9.61579 6.53348 9.35901 6.79042 9.04219 6.79042C8.72554 6.79042 8.4686 6.53348 8.4686 6.21683C8.46909 5.90018 8.72571 5.64356 9.04219 5.64324ZM17.9066 5.64324C18.2234 5.64324 18.4802 5.90001 18.4802 6.21683C18.4802 6.53348 18.2234 6.79042 17.9066 6.79042C17.59 6.79042 17.333 6.53348 17.333 6.21683C17.3335 5.90018 17.5901 5.64356 17.9066 5.64324Z" fill="black"/>
<path d="M8.81521 17.3554C8.63201 17.5388 8.63201 17.8357 8.81521 18.0191C8.99858 18.2024 9.29549 18.2024 9.47886 18.0191L11.9297 15.5682C12.1129 15.385 12.1129 15.088 11.9297 14.9048L9.47886 12.4539C9.29549 12.2706 8.99858 12.2706 8.81521 12.4539C8.63201 12.6373 8.63201 12.9342 8.81521 13.1176L10.4649 14.7672H1.2213C0.962238 14.7672 0.751953 14.9774 0.751953 15.2364C0.751953 15.4956 0.962238 15.7058 1.2213 15.7058H10.4649L8.81521 17.3554Z" fill="black"/>
</svg>
