<svg width="17" height="17" viewBox="0 0 17 17" fill="none" xmlns="http://www.w3.org/2000/svg">
<g clip-path="url(#clip0_396_34248)">
<path d="M8.94241 16.3167C8.9426 16.3165 8.94281 16.3163 8.943 16.3161L12.193 13.0504C12.4365 12.8057 12.4356 12.41 12.1909 12.1665C11.9462 11.923 11.5505 11.9239 11.307 12.1686L9.125 14.3612L9.125 1.125C9.125 0.779812 8.84519 0.5 8.5 0.5C8.15481 0.5 7.875 0.779812 7.875 1.125L7.875 14.3612L5.693 12.1686C5.4495 11.9239 5.05378 11.923 4.80913 12.1665C4.56441 12.41 4.56356 12.8058 4.807 13.0504L8.057 16.3162C8.05719 16.3163 8.05741 16.3165 8.0576 16.3167C8.30191 16.5615 8.69891 16.5607 8.94241 16.3167Z" fill="#101212"/>
</g>
<defs>
<clipPath id="clip0_396_34248">
<rect width="16" height="16" fill="white" transform="translate(16.5 0.5) rotate(90)"/>
</clipPath>
</defs>
</svg>
