<svg width="12" height="13" viewBox="0 0 12 13" fill="none" xmlns="http://www.w3.org/2000/svg">
<g clip-path="url(#clip0_845_20255)">
<path d="M11.7447 9.70869C11.5152 9.82618 11.2327 9.73634 11.1142 9.50562H11.1142C10.3955 8.10498 8.48719 6.09697 5.99998 6.09697C3.76938 6.09697 1.78711 7.74913 0.885751 9.50565C0.767181 9.7355 0.484806 9.82623 0.254767 9.70806C0.0247515 9.58988 -0.0662798 9.30807 0.0515405 9.07787C1.08715 7.05566 3.36455 5.15947 5.99998 5.15947C9.0056 5.15947 11.1582 7.53491 11.9484 9.07787C12.0664 9.3083 11.9752 9.59075 11.7447 9.70869ZM0.182134 4.67431L1.22613 5.61613C1.41949 5.79057 1.71579 5.77311 1.88817 5.58205C2.06156 5.38981 2.04633 5.09342 1.8541 4.92001L0.810095 3.9782C0.617931 3.80483 0.321541 3.82002 0.148056 4.01227C-0.0253344 4.20451 -0.0101001 4.5009 0.182134 4.67431ZM10.7738 5.61613L11.8178 4.67431C12.01 4.5009 12.0252 4.20451 11.8519 4.01227C11.6784 3.82006 11.382 3.80478 11.1898 3.9782L10.1458 4.92001C9.9536 5.0934 9.93837 5.38981 10.1118 5.58205C10.2843 5.77332 10.5807 5.79036 10.7738 5.61613ZM5.99995 3.74736C6.25885 3.74736 6.4687 3.53748 6.4687 3.27861V1.87109C6.4687 1.61223 6.25885 1.40234 5.99995 1.40234C5.74106 1.40234 5.5312 1.61223 5.5312 1.87109V3.27861C5.53123 3.5375 5.74109 3.74736 5.99995 3.74736ZM8.30269 9.29143C8.30269 10.5631 7.26968 11.5977 5.99998 11.5977C4.73027 11.5977 3.69727 10.5631 3.69727 9.29143C3.69727 8.01978 4.73027 6.9852 5.99998 6.9852C7.26968 6.9852 8.30269 8.01978 8.30269 9.29143ZM7.36521 9.29143C7.36521 8.53672 6.75279 7.9227 6 7.9227C5.24721 7.9227 4.63477 8.53672 4.63477 9.29143C4.63477 10.0461 5.24719 10.6602 5.99998 10.6602C6.75277 10.6602 7.36521 10.0461 7.36521 9.29143Z" fill="#828B8C"/>
</g>
<defs>
<clipPath id="clip0_845_20255">
<rect width="12" height="12" fill="white" transform="translate(0 0.5)"/>
</clipPath>
</defs>
</svg>
