<svg width="56" height="56" viewBox="0 0 56 56" fill="none" xmlns="http://www.w3.org/2000/svg">
<circle cx="36.6893" cy="33.8963" r="19.3103" fill="#EDF2F2"/>
<g clip-path="url(#clip0_810_51710)">
<path d="M37.0516 27.4034L33.6241 23.9759C32.8876 23.2728 31.9086 22.8805 30.8904 22.8805C29.8723 22.8805 28.8932 23.2728 28.1568 23.9759L26.9499 25.1828C26.131 25.9986 25.0222 26.4567 23.8663 26.4567C22.7104 26.4567 21.6015 25.9986 20.7827 25.1828C19.8534 24.2534 19.262 23.6259 18.6706 23.0103C18.0792 22.3948 17.4637 21.731 16.4982 20.7776C15.6831 19.9608 15.2253 18.854 15.2253 17.7C15.2253 16.546 15.6831 15.4392 16.4982 14.6224L17.7051 13.4155C18.065 13.0584 18.3505 12.6334 18.5453 12.1652C18.74 11.6971 18.84 11.195 18.8396 10.6879C18.8352 9.66485 18.4275 8.68476 17.7051 7.96034L14.2775 4.50862C13.3092 3.5445 11.9991 3.00222 10.6327 3C9.9596 3.00099 9.29333 3.13476 8.67204 3.39363C8.05074 3.6525 7.48662 4.0314 7.01198 4.50862L3.74129 7.75517C1.38437 10.1154 0.0605469 13.3145 0.0605469 16.65C0.0605469 19.9855 1.38437 23.1846 3.74129 25.5448C5.62405 27.4276 7.77232 29.5517 9.90853 31.7724C12.0447 33.9931 14.1447 36.069 16.0154 38C18.3751 40.3532 21.5717 41.6747 24.9042 41.6747C28.2368 41.6747 31.4333 40.3532 33.793 38L37.0516 34.7414C38.0099 33.779 38.5517 32.4787 38.5603 31.1207C38.5721 30.4314 38.4446 29.7468 38.1854 29.1081C37.9262 28.4693 37.5405 27.8895 37.0516 27.4034V27.4034ZM35.2292 32.8707L34.8792 33.1724L31.3792 29.6603C31.2627 29.5276 31.1202 29.4201 30.9604 29.3446C30.8007 29.2691 30.6272 29.2272 30.4506 29.2214C30.2741 29.2157 30.0982 29.2462 29.9339 29.3112C29.7696 29.3761 29.6204 29.4741 29.4954 29.599C29.3705 29.7239 29.2726 29.8731 29.2076 30.0374C29.1427 30.2017 29.1121 30.3776 29.1179 30.5542C29.1236 30.7307 29.1656 30.9043 29.2411 31.064C29.3166 31.2237 29.424 31.3662 29.5568 31.4828L33.1172 35.0431L32.0309 36.1293C30.1532 38.0013 27.61 39.0525 24.9585 39.0525C22.3071 39.0525 19.7638 38.0013 17.8861 36.1293C16.0275 34.2707 13.9154 32.1224 11.8516 29.9741C9.78784 27.8259 7.55508 25.6172 5.67232 23.7345C3.80035 21.8568 2.74917 19.3135 2.74917 16.6621C2.74917 14.0106 3.80035 11.4674 5.67232 9.58966L6.75853 8.50345L10.1982 12.0517C10.4383 12.2998 10.767 12.4423 11.1122 12.448C11.4574 12.4537 11.7906 12.322 12.0387 12.0819C12.2868 11.8418 12.4293 11.5131 12.435 11.1679C12.4406 10.8227 12.3089 10.4894 12.0689 10.2414L8.44818 6.62069L8.79818 6.27069C9.03603 6.029 9.31975 5.83725 9.63269 5.70668C9.94564 5.57612 10.2815 5.50936 10.6206 5.51034C11.3048 5.5124 11.9602 5.78586 12.443 6.27069L15.8827 9.75862C16.1214 9.99951 16.2558 10.3246 16.2568 10.6638C16.257 10.8318 16.224 10.9983 16.1598 11.1536C16.0956 11.3089 16.0014 11.4501 15.8827 11.569L14.6758 12.7759C13.3787 14.0767 12.6503 15.8388 12.6503 17.6759C12.6503 19.5129 13.3787 21.275 14.6758 22.5759C15.6896 23.5172 16.2447 24.1086 16.8965 24.7241C17.5482 25.3397 18.1034 26.0034 19.0568 26.9448C20.3577 28.2419 22.1198 28.9703 23.9568 28.9703C25.7939 28.9703 27.5559 28.2419 28.8568 26.9448L30.0637 25.7379C30.3101 25.5054 30.6361 25.3758 30.9749 25.3758C31.3137 25.3758 31.6397 25.5054 31.8861 25.7379L35.3137 29.1655C35.5548 29.4038 35.7462 29.6876 35.8768 30.0004C36.0073 30.3133 36.0744 30.6489 36.074 30.9879C36.0679 31.3408 35.9897 31.6887 35.8445 32.0104C35.6992 32.332 35.4899 32.6207 35.2292 32.8586V32.8707Z" fill="#101212"/>
</g>
<defs>
<clipPath id="clip0_810_51710">
<rect width="38.6207" height="38.6207" fill="white" transform="translate(0 3)"/>
</clipPath>
</defs>
</svg>
