<svg width="18" height="18" viewBox="0 0 18 18" fill="none" xmlns="http://www.w3.org/2000/svg">
<path d="M17.855 7.33397C17.935 7.33397 17.9999 7.39884 17.9999 7.47885V8.99995C17.9999 9.56926 17.947 10.1259 17.8456 10.6659C17.061 14.8604 13.3658 18.0302 8.93648 17.9996C3.9665 17.9654 -0.0109811 13.9497 2.27767e-05 8.97966C0.0109563 4.01855 4.03625 0 8.99994 0C11.4318 0 13.6382 0.964752 15.2582 2.53187C15.3167 2.58843 15.3182 2.68167 15.2607 2.73918L13.1087 4.89112C13.0533 4.94653 12.9638 4.94797 12.907 4.89393C11.8903 3.92612 10.5146 3.33195 8.99994 3.33195C5.87207 3.33195 3.35331 5.83281 3.33208 8.96061C3.31074 12.1089 5.8566 14.6679 8.99994 14.6679C11.5503 14.6679 13.7074 12.9831 14.4187 10.6659H9.14481C9.0648 10.6659 8.99994 10.6011 8.99994 10.521V7.47882C8.99994 7.3988 9.0648 7.33394 9.14481 7.33394H17.855V7.33397Z" fill="#2196F3"/>
<path d="M17.855 7.33594H16.7685C16.8485 7.33594 16.9133 7.4008 16.9133 7.48082V9.00191C16.9133 9.57123 16.8605 10.1279 16.759 10.6679C16.0105 14.6694 12.6129 17.7384 8.45605 17.9856C8.6151 17.995 8.7752 18.0005 8.93643 18.0016C13.3657 18.0322 17.061 14.8623 17.8455 10.6679C17.947 10.1279 17.9998 9.57123 17.9998 9.00191V7.48078C17.9998 7.4008 17.935 7.33594 17.855 7.33594Z" fill="#1E88E5"/>
<path d="M3.85196 6.62628L1.11865 4.65136C2.65209 1.87786 5.60703 0 9.00022 0C11.4321 0 13.6385 0.964752 15.2585 2.53187C15.317 2.58843 15.3185 2.68167 15.2609 2.73918L13.109 4.89112C13.0537 4.94642 12.9642 4.94814 12.9076 4.89421C11.8908 3.92623 10.5151 3.33198 9.00022 3.33198C6.71746 3.33198 4.74978 4.68141 3.85196 6.62628Z" fill="#F44336"/>
<path d="M3.06299 6.0562L3.85207 6.62633C4.67155 4.85116 6.38253 3.57267 8.41068 3.36297C8.42594 3.36132 8.4406 3.35931 8.45614 3.35784C8.27765 3.34089 8.09677 3.33203 7.91382 3.33203C5.85167 3.33203 4.05449 4.41916 3.06299 6.0562Z" fill="#E53935"/>
<path d="M14.1717 2.53187C14.2302 2.58843 14.2317 2.68167 14.1741 2.73922L12.4275 4.48588C12.5948 4.61314 12.755 4.74927 12.907 4.89397C12.9637 4.948 13.0533 4.94656 13.1087 4.89116L15.2606 2.73922C15.3182 2.68167 15.3166 2.58847 15.2581 2.53187C13.6382 0.964752 11.4317 0 8.99988 0C8.81738 0 8.63633 0.006082 8.45654 0.0168046C10.6728 0.148816 12.6732 1.08231 14.1717 2.53187Z" fill="#E53935"/>
<path d="M15.6022 15.1167C13.9586 16.8903 11.6089 18.0004 9.00017 18.0004C5.47662 18.0004 2.42606 15.9755 0.94873 13.0256L3.73924 11.1133C4.57662 13.1969 6.61673 14.6684 9.00017 14.6684C10.4959 14.6684 11.8562 14.0889 12.8689 13.1422L15.6022 15.1167Z" fill="#4CAF50"/>
<path d="M3.73937 11.1133L2.9165 11.6771C3.87222 13.4576 5.75163 14.6683 7.91376 14.6683C8.09661 14.6683 8.27734 14.6594 8.45576 14.6425C6.30952 14.4378 4.51217 13.0363 3.73937 11.1133Z" fill="#43A047"/>
<path d="M8.9999 18.0001C11.6086 18.0001 13.9584 16.89 15.6019 15.1165L14.9325 14.6328C13.3892 16.5534 11.0742 17.8275 8.45801 17.9837C8.6373 17.9944 8.81794 18.0001 8.9999 18.0001Z" fill="#43A047"/>
<path d="M3.33198 9.00094C3.33198 9.74772 3.47648 10.4609 3.73906 11.1139L0.94851 13.0261C0.341541 11.815 0 10.4478 0 9.00094C0 7.4237 0.40563 5.94131 1.11838 4.65234L3.8517 6.62727C3.51814 7.34906 3.33198 8.15346 3.33198 9.00094Z" fill="#FFC107"/>
<path d="M2.91634 11.6753L3.7392 11.1114C3.47662 10.4584 3.33213 9.74526 3.33213 8.99848C3.33213 8.15101 3.51828 7.3466 3.85184 6.62481L3.06277 6.05469C2.55037 6.90072 2.25298 7.89349 2.24574 8.95917C2.23906 9.94193 2.48259 10.8673 2.91634 11.6753Z" fill="#FFB300"/>
</svg>
