<svg width="24" height="24" viewBox="0 0 24 24" fill="none" xmlns="http://www.w3.org/2000/svg">
<path d="M20.4521 19.7451L16.5458 15.8387C17.7447 14.4716 18.4062 12.7416 18.4062 10.9062C18.4062 8.90283 17.626 7.01953 16.2095 5.60303C14.793 4.18652 12.9097 3.40625 10.9062 3.40625C8.90283 3.40625 7.01953 4.18652 5.60303 5.60303C4.18652 7.01953 3.40625 8.90283 3.40625 10.9062C3.40625 12.9097 4.18652 14.793 5.60303 16.2095C7.01953 17.626 8.90283 18.4062 10.9062 18.4062C12.7416 18.4062 14.4716 17.7447 15.8387 16.5458L19.7451 20.4521C19.8428 20.5498 19.9707 20.5986 20.0986 20.5986C20.2266 20.5986 20.3545 20.5498 20.4521 20.4521C20.6475 20.2568 20.6475 19.9404 20.4521 19.7451ZM6.31006 15.5024C5.08252 14.2747 4.40625 12.6423 4.40625 10.9062C4.40625 9.17017 5.08252 7.53784 6.31006 6.31006C7.53784 5.08252 9.17017 4.40625 10.9062 4.40625C12.6423 4.40625 14.2747 5.08252 15.5024 6.31006C16.73 7.53784 17.4062 9.17017 17.4062 10.9062C17.4062 12.6423 16.73 14.2747 15.5024 15.5024C14.2747 16.73 12.6423 17.4062 10.9062 17.4062C9.17017 17.4062 7.53784 16.73 6.31006 15.5024Z" fill="#3A3F40"/>
</svg>
