<svg width="32" height="32" viewBox="0 0 32 32" fill="none" xmlns="http://www.w3.org/2000/svg">
<rect width="32" height="32" rx="16" fill="#EDF2F2"/>
<path d="M26 16.3033C26 10.7467 21.5229 6.24219 16 6.24219C10.4771 6.24219 6 10.7467 6 16.3033C6 21.325 9.65684 25.4874 14.4375 26.2422V19.2116H11.8984V16.3033H14.4375V14.0867C14.4375 11.5651 15.9305 10.1723 18.2146 10.1723C19.3088 10.1723 20.4531 10.3688 20.4531 10.3688V12.8448H19.1922C17.95 12.8448 17.5625 13.6204 17.5625 14.4161V16.3033H20.3359L19.8926 19.2116H17.5625V26.2422C22.3432 25.4874 26 21.3252 26 16.3033Z" fill="#101212"/>
</svg>
