<svg width="48" height="48" viewBox="0 0 48 48" fill="none" xmlns="http://www.w3.org/2000/svg">
<g clip-path="url(#clip0_837_51676)">
<path d="M45.3882 16.2737C44.5453 16.1005 42.7433 16.3202 41.8564 18.3845C41.8504 18.3985 41.8447 18.4127 41.8392 18.427L39.0992 25.7752C38.6305 25.4998 38.0954 25.353 37.538 25.353C36.9451 25.353 36.3681 25.5228 35.8704 25.8431L28.8432 30.3537C26.177 31.9775 24.7565 34.1096 24 35.912C23.2435 34.1096 21.823 31.9775 19.1568 30.3537L12.1307 25.8439C11.632 25.5228 11.0549 25.3531 10.462 25.3531C9.90469 25.3531 9.36957 25.4999 8.90082 25.7753C8.90082 25.7753 6.14963 18.3986 6.14363 18.3846C5.25676 16.3204 3.45498 16.1008 2.61179 16.2738C0.899913 16.593 -0.18665 18.0677 0.0266316 19.7849C0.0313191 19.8222 3.01604 31.8299 3.01604 31.8299C3.80391 34.9801 5.94479 38.1578 8.74294 40.3304C8.75269 40.338 8.76244 40.3452 8.77238 40.3523L13.5093 43.7415V45.4235C13.5093 46.4573 14.3504 47.2985 15.3843 47.2985H32.6157C33.6496 47.2985 34.4907 46.4573 34.4907 45.4235V43.7415L39.2276 40.3523C39.2376 40.3452 39.2474 40.3379 39.2571 40.3304C42.0552 38.1578 44.196 34.9801 44.9843 31.8288C44.9843 31.8288 47.9687 19.8222 47.9734 19.7849C48.1866 18.0675 47.1001 16.5929 45.3882 16.2737ZM23.052 40.8368C23.0495 40.8649 23.0482 45.4234 23.0482 45.4234H15.3843V43.2594C15.3843 42.9569 15.2383 42.673 14.9922 42.497L9.87844 38.8382C7.44451 36.9431 5.51269 34.0849 4.83516 31.376L1.88185 19.5038C1.8151 18.7909 2.23435 18.2488 2.96166 18.1158C2.98013 18.1124 2.97141 18.1148 2.98201 18.1121C3.16173 18.0844 3.94219 18.0325 4.41254 19.105L7.52757 27.4588C7.17169 28.5088 7.40157 29.7067 8.22301 30.5701C8.25366 30.6024 13.0604 34.3974 13.0604 34.3974C13.4667 34.7181 14.0564 34.6483 14.377 34.2418C14.6977 33.8353 14.6281 33.2458 14.2215 32.9252L9.54291 29.2354C9.13313 28.761 9.15516 28.0322 9.60207 27.5847C9.83222 27.3547 10.1377 27.2279 10.4621 27.2279C10.6943 27.2279 10.9204 27.2944 11.1169 27.4209C11.1169 27.4209 18.1665 31.9458 18.1731 31.9498C20.3866 33.2952 21.8795 35.1875 22.6103 37.5739C23.1655 39.3867 23.0528 40.8255 23.052 40.8368ZM46.1182 19.5038L43.165 31.3748C42.4873 34.085 40.5554 36.9431 38.1215 38.8382L33.0077 42.497C32.7616 42.6729 32.6156 42.9569 32.6156 43.2594V45.4234H24.9518C24.9518 45.4234 24.9504 40.8649 24.9479 40.8368C24.9428 40.7807 24.5017 35.1864 29.8268 31.9498C29.8334 31.9459 36.8842 27.4203 36.8842 27.4203C37.0796 27.2945 37.3057 27.2279 37.5379 27.2279C37.8623 27.2279 38.1678 27.3547 38.3975 27.5842C38.8448 28.0322 38.8669 28.761 38.4571 29.2354L33.7785 32.9252C33.3719 33.2458 33.3023 33.8353 33.623 34.2418C33.9435 34.6484 34.5331 34.718 34.9396 34.3974C34.9396 34.3974 39.7463 30.6024 39.777 30.5701C40.5983 29.7067 40.8282 28.5091 40.4723 27.4589L43.5875 19.1049C44.058 18.0324 44.8388 18.0842 45.018 18.112C45.0285 18.1147 45.0199 18.1122 45.0383 18.1157C45.7657 18.2488 46.1849 18.791 46.1182 19.5038Z" fill="#101212"/>
<path d="M11.2179 20.9111H16.6734V24.9606C16.6734 25.9945 17.5146 26.8356 18.5484 26.8356H19.7352C20.2529 26.8356 20.6727 26.4159 20.6727 25.8981C20.6727 25.3803 20.2529 24.9606 19.7352 24.9606H18.5484C18.5484 24.9606 18.5521 19.9171 18.5496 19.8892C18.5737 18.3961 19.7951 17.1887 21.2939 17.1887H26.7037C28.2025 17.1887 29.4239 18.3961 29.4481 19.8892C29.4457 19.9171 29.4492 24.9606 29.4492 24.9606H28.2777C27.76 24.9606 27.3402 25.3803 27.3402 25.8981C27.3402 26.4159 27.76 26.8356 28.2777 26.8356H29.4492C30.4831 26.8356 31.3242 25.9945 31.3242 24.9606V20.9111H36.7797C37.8476 20.9111 38.7163 20.0423 38.7163 18.9745V14.01C38.7163 11.8742 37.2592 10.0728 35.2871 9.54606C36.1489 8.60537 36.6758 7.35306 36.6758 5.97981C36.6758 3.06587 34.3051 0.695312 31.3912 0.695312C28.4773 0.695312 26.1067 3.06597 26.1067 5.97981C26.1067 6.36981 26.1503 6.74959 26.231 7.11578C25.5524 6.79816 24.7962 6.61966 23.9988 6.61966C23.2013 6.61966 22.4453 6.79825 21.7666 7.11578C21.8471 6.74959 21.8909 6.36981 21.8909 5.97981C21.8909 3.06587 19.5202 0.695312 16.6063 0.695312C13.6925 0.695312 11.3218 3.06597 11.3218 5.97981C11.3218 7.35306 11.8487 8.60537 12.7104 9.54606C10.7383 10.0728 9.28125 11.8742 9.28125 14.01V18.9745C9.28134 20.0424 10.1501 20.9111 11.2179 20.9111ZM36.8414 14.01V18.9745C36.8414 19.0084 36.8137 19.0361 36.7798 19.0361H31.236C30.8938 17.3064 29.5835 15.9212 27.895 15.4701C28.7567 14.5295 29.2835 13.2773 29.2835 11.9041C29.2835 11.6874 29.2688 11.4743 29.2433 11.2644H34.0958C35.6097 11.2645 36.8414 12.4961 36.8414 14.01ZM31.3913 2.57022C33.2714 2.57022 34.8008 4.09975 34.8008 5.97981C34.8008 7.85988 33.2714 9.38941 31.3913 9.38941C29.5113 9.38941 27.9818 7.85988 27.9818 5.97981C27.9818 4.09975 29.5114 2.57022 31.3913 2.57022ZM27.4085 11.9042C27.4085 13.7842 25.8789 15.3138 23.9989 15.3138C22.1188 15.3138 20.5893 13.7842 20.5893 11.9042C20.5893 10.0241 22.1188 8.49456 23.9989 8.49456C25.8789 8.49456 27.4085 10.0241 27.4085 11.9042ZM16.6064 2.57022C18.4865 2.57022 20.016 4.09975 20.016 5.97981C20.016 7.85988 18.4865 9.38941 16.6064 9.38941C14.7263 9.38941 13.1969 7.85988 13.1969 5.97981C13.1969 4.09975 14.7263 2.57022 16.6064 2.57022ZM11.1563 14.01C11.1563 12.4961 12.388 11.2645 13.9018 11.2645H18.7543C18.7289 11.4744 18.7142 11.6875 18.7142 11.9042C18.7142 13.2773 19.241 14.5295 20.1026 15.4702C18.4142 15.9213 17.1038 17.3064 16.7617 19.0362H11.2179C11.184 19.0362 11.1563 19.0085 11.1563 18.9746V14.01Z" fill="#101212"/>
<path d="M24 26.8359C24.5178 26.8359 24.9375 26.4162 24.9375 25.8984C24.9375 25.3807 24.5178 24.9609 24 24.9609C23.4822 24.9609 23.0625 25.3807 23.0625 25.8984C23.0625 26.4162 23.4822 26.8359 24 26.8359Z" fill="#101212"/>
</g>
<defs>
<clipPath id="clip0_837_51676">
<rect width="48" height="48" fill="white"/>
</clipPath>
</defs>
</svg>
