<svg width="12" height="13" viewBox="0 0 12 13" fill="none" xmlns="http://www.w3.org/2000/svg">
<path d="M9.68318 1.42536H9.23558V0.972448C9.23558 0.713672 9.02582 0.503906 8.76704 0.503906C8.50826 0.503906 8.2985 0.713672 8.2985 0.972448V1.42536H3.70148V0.972448C3.70148 0.713672 3.49171 0.503906 3.23293 0.503906C2.97416 0.503906 2.76439 0.713672 2.76439 0.972448V1.42536H2.31682C1.03932 1.42536 0 2.46468 0 3.74216V10.1817C0 11.4592 1.03932 12.4986 2.31682 12.4986H9.6832C10.9607 12.4986 12 11.4592 12 10.1817V3.74216C12 2.46468 10.9607 1.42536 9.68318 1.42536ZM2.31682 2.36245H2.76439V3.2761C2.76439 3.53488 2.97416 3.74464 3.23293 3.74464C3.49171 3.74464 3.70148 3.53488 3.70148 3.2761V2.36245H8.29852V3.2761C8.29852 3.53488 8.50829 3.74464 8.76706 3.74464C9.02584 3.74464 9.23561 3.53488 9.23561 3.2761V2.36245H9.6832C10.444 2.36245 11.0629 2.98139 11.0629 3.74216V4.18976H0.937083V3.74216C0.937083 2.98139 1.55603 2.36245 2.31682 2.36245ZM9.68318 11.5615H2.31682C1.55603 11.5615 0.937083 10.9425 0.937083 10.1817V5.12684H11.0629V10.1817C11.0629 10.9425 10.444 11.5615 9.68318 11.5615ZM4.16222 6.96978C4.16222 7.22855 3.95245 7.43832 3.69368 7.43832H2.77222C2.51344 7.43832 2.30368 7.22855 2.30368 6.96978C2.30368 6.711 2.51344 6.50124 2.77222 6.50124H3.69368C3.95243 6.50124 4.16222 6.711 4.16222 6.96978ZM9.69635 6.96978C9.69635 7.22855 9.48658 7.43832 9.2278 7.43832H8.30635C8.04757 7.43832 7.83781 7.22855 7.83781 6.96978C7.83781 6.711 8.04757 6.50124 8.30635 6.50124H9.2278C9.48656 6.50124 9.69635 6.711 9.69635 6.96978ZM6.92661 6.96978C6.92661 7.22855 6.71684 7.43832 6.45807 7.43832H5.53661C5.27784 7.43832 5.06807 7.22855 5.06807 6.96978C5.06807 6.711 5.27784 6.50124 5.53661 6.50124H6.45807C6.71682 6.50124 6.92661 6.711 6.92661 6.96978ZM4.16222 9.73417C4.16222 9.99295 3.95245 10.2027 3.69368 10.2027H2.77222C2.51344 10.2027 2.30368 9.99295 2.30368 9.73417C2.30368 9.4754 2.51344 9.26563 2.77222 9.26563H3.69368C3.95243 9.26563 4.16222 9.4754 4.16222 9.73417ZM9.69635 9.73417C9.69635 9.99295 9.48658 10.2027 9.2278 10.2027H8.30635C8.04757 10.2027 7.83781 9.99295 7.83781 9.73417C7.83781 9.4754 8.04757 9.26563 8.30635 9.26563H9.2278C9.48656 9.26563 9.69635 9.4754 9.69635 9.73417ZM6.92661 9.73417C6.92661 9.99295 6.71684 10.2027 6.45807 10.2027H5.53661C5.27784 10.2027 5.06807 9.99295 5.06807 9.73417C5.06807 9.4754 5.27784 9.26563 5.53661 9.26563H6.45807C6.71682 9.26563 6.92661 9.4754 6.92661 9.73417Z" fill="#828B8C"/>
</svg>
