<svg width="16" height="16" viewBox="0 0 16 16" fill="none" xmlns="http://www.w3.org/2000/svg">
<g clip-path="url(#clip0_903_51661)">
<path d="M8 16C12.4107 16 16 12.4107 16 8C16 3.58934 12.4107 0 8 0C3.5893 0 0 3.58934 0 8C0 12.4107 3.58934 16 8 16ZM8 1.06665C11.824 1.06665 14.9334 4.17597 14.9334 8C14.9334 11.824 11.824 14.9334 8 14.9334C4.17597 14.9334 1.06665 11.824 1.06665 8C1.06665 4.17597 4.17602 1.06665 8 1.06665Z" fill="black"/>
<path d="M10.3335 10.5486C10.4321 10.6285 10.5494 10.6659 10.6668 10.6659C10.8241 10.6659 10.9788 10.5966 11.0828 10.4659C11.2668 10.2366 11.2294 9.90055 11.0001 9.71654L8.53345 7.74321V3.73254C8.53345 3.43921 8.29346 3.19922 8.00012 3.19922C7.70678 3.19922 7.4668 3.43921 7.4668 3.73254V7.99923C7.4668 8.16191 7.54148 8.3139 7.66679 8.41521L10.3335 10.5486Z" fill="black"/>
</g>
<defs>
<clipPath id="clip0_903_51661">
<rect width="16" height="16" fill="white"/>
</clipPath>
</defs>
</svg>
