<svg width="120" height="120" viewBox="0 0 120 120" fill="none" xmlns="http://www.w3.org/2000/svg">
<g clip-path="url(#clip0_385_37091)">
<path d="M116.568 16.4065C114.803 14.6381 111.939 14.6351 110.174 16.399L55.9174 70.5119L36.3419 49.2511C34.6504 47.415 31.7906 47.2959 29.9515 48.9872C28.1137 50.6787 27.9961 53.5399 29.6876 55.3776L52.4515 80.0998C53.2851 81.0058 54.4519 81.532 55.6821 81.5576C55.7151 81.559 55.747 81.559 55.7787 81.559C56.9742 81.559 58.1243 81.0841 58.9715 80.2399L116.56 22.8028C118.329 21.0391 118.332 18.1748 116.568 16.4065Z" fill="#101212"/>
<path d="M115.477 55.4773C112.979 55.4773 110.955 57.5018 110.955 60C110.955 88.0976 88.0976 110.955 60 110.955C31.9041 110.955 9.04523 88.0976 9.04523 60C9.04523 31.9041 31.9041 9.04523 60 9.04523C62.498 9.04523 64.5227 7.0207 64.5227 4.52273C64.5227 2.02453 62.498 0 60 0C26.9156 0 0 26.9156 0 60C0 93.083 26.9156 120 60 120C93.083 120 120 93.083 120 60C120 57.502 117.975 55.4773 115.477 55.4773Z" fill="#101212"/>
</g>
<defs>
<clipPath id="clip0_385_37091">
<rect width="120" height="120" fill="white"/>
</clipPath>
</defs>
</svg>
