<svg width="24" height="24" viewBox="0 0 24 24" fill="none" xmlns="http://www.w3.org/2000/svg">
<g clip-path="url(#clip0_845_24803)">
<path d="M19.7211 13.9414C19.6625 13.4757 19.4017 13.2767 19.193 13.1917C18.8743 13.0617 18.2819 12.9996 16.7991 13.8755C16.9339 13.3167 16.8808 12.7152 16.6211 12.1751C17.1323 11.537 17.7153 10.6598 17.6339 10.0085C17.575 9.53721 17.3117 9.3363 17.1012 9.25075C15.9001 8.76241 13.172 10.9541 12.1572 11.7654C12.1905 11.4143 12.1439 11.0542 12.0114 10.7141C12.5098 10.1043 13.118 9.22329 13.0368 8.57364C12.9771 8.09543 12.6885 7.91041 12.5219 7.84263C11.8428 7.56654 10.7416 8.17399 9.97256 8.65493C8.81334 9.37975 8.84334 9.4105 0.848109 15.8261C0.309141 16.2586 0 16.9031 0 17.5942C0 18.3527 0 21.8336 0 22.6041C0 23.3725 0.625172 23.9977 1.39359 23.9977H2.14687C2.34108 23.9977 2.49844 23.8403 2.49844 23.6461C2.49844 23.4519 2.34108 23.2946 2.14687 23.2946H1.39359C1.01292 23.2946 0.703172 22.9848 0.703172 22.6041V21.8584L10.5137 13.9862C10.8153 15.6807 12.7111 15.7607 13.7962 14.9652C14.4771 14.4655 15.4672 13.4873 16.1017 12.7827C16.2945 13.4771 16.0654 14.2453 15.4791 14.7157C15.4728 14.7208 14.0144 15.8909 4.78528 23.2946H3.78759C3.59339 23.2946 3.43603 23.4519 3.43603 23.6461C3.43603 23.8403 3.59339 23.9977 3.78759 23.9977C5.41392 23.9977 9.61144 23.9977 11.2377 23.9977C11.888 23.9977 12.5256 23.7735 13.0328 23.3665L15.4995 21.3871C15.6509 21.2655 15.6751 21.0443 15.5536 20.8928C15.432 20.7414 15.2108 20.7171 15.0593 20.8386L12.5927 22.818C12.2098 23.1253 11.7285 23.2945 11.2376 23.2945H5.91164L12.6634 17.8767C12.7252 18.2123 12.8385 18.4659 12.9652 18.6458C13.494 19.3984 14.7322 19.4948 15.6245 19.0156C16.1631 18.726 17.1776 17.7448 17.6015 17.3155C17.7997 18.0332 17.5612 18.8312 16.959 19.3143L16.339 19.8119C16.1876 19.9334 16.1633 20.1547 16.2848 20.3062C16.4063 20.4575 16.6276 20.4818 16.7791 20.3603L17.3992 19.8627C18.3311 19.1149 18.6262 17.8158 18.1405 16.7472C18.5658 16.2796 19.8386 14.8766 19.7211 13.9414ZM10.3503 9.24808C11.7617 8.36636 12.1864 8.46522 12.2571 8.4941C12.2764 8.50193 12.3215 8.52025 12.339 8.66093C12.4514 9.55882 9.67331 12.2545 8.9145 12.7565C8.26556 13.1756 7.42673 13.0676 7.155 12.6986C6.95681 12.4297 6.9533 12.0318 6.93666 11.8421C8.41795 10.6558 9.24089 9.94108 10.3503 9.24808ZM10.6036 13.0121C10.0148 13.4837 1.26352 20.4929 0.703172 20.9417V17.5942C0.703172 17.1174 0.916406 16.6729 1.28822 16.3745L6.28355 12.3662C6.41409 13.0498 6.75248 13.4078 7.25011 13.6007C7.71394 13.7805 8.28975 13.7933 8.83669 13.5836C9.59461 13.2929 10.9101 11.9467 11.4534 11.3537C11.5867 12.4459 10.6805 12.9178 10.6036 13.0121ZM13.3856 14.3943C12.6714 14.9206 11.6594 14.8253 11.3633 14.3242C11.222 14.0852 11.173 13.7356 11.1705 13.4591C12.6829 12.2422 13.6236 11.4358 14.7968 10.7028C16.3012 9.763 16.7597 9.87105 16.8365 9.90218C16.8623 9.91268 16.916 9.93457 16.9362 10.0957C17.0575 11.0662 14.1919 13.8017 13.3856 14.3943ZM15.4175 18.3214C14.8345 18.6963 13.843 18.7383 13.5135 18.1998C13.3635 17.9525 13.3227 17.5859 13.3187 17.3508C15.2159 15.8352 15.7888 15.3266 16.9095 14.6306C18.3993 13.7052 18.8521 13.8119 18.9277 13.8428C18.9525 13.8529 19.004 13.8739 19.0235 14.0291C19.145 14.9973 16.1585 17.8414 15.4175 18.3214Z" fill="black"/>
<path d="M23.6487 1.89619C23.8429 1.89619 24.0002 1.73883 24.0002 1.54463V0.944766C24.0002 0.423844 23.5764 0 23.0555 0H19.7922C19.2712 0 18.8474 0.423844 18.8474 0.944766V3.17798C18.8474 3.64931 19.164 4.0687 19.6172 4.19794L20.3555 4.40845V7.31869C20.3555 7.5322 20.4216 7.73053 20.5343 7.89445C20.4862 8.7195 20.2317 10.4634 18.9799 11.5082C18.6388 11.7928 18.643 12.3202 18.9873 12.6039C19.5921 13.0494 19.7852 13.4085 20.2877 13.4085C20.6281 13.4085 20.9421 13.2209 21.0982 12.9099C21.474 12.1612 22.1044 10.5326 22.1578 7.96941C22.3048 7.79278 22.3933 7.56586 22.3933 7.31869V4.98956C22.5566 5.00138 23.0846 5.33555 23.614 4.93603C23.8595 4.75083 24.0003 4.46817 24.0003 4.16067V3.18534C24.0003 2.99119 23.8429 2.83378 23.6487 2.83378C23.4545 2.83378 23.2971 2.99114 23.2971 3.18534V4.16067C23.2971 4.24561 23.2583 4.32366 23.1905 4.37475C23.0118 4.5098 22.8862 4.36819 22.1383 4.18556C21.6825 4.05558 20.2763 3.65461 19.8101 3.52167C19.6573 3.47812 19.5507 3.3368 19.5507 3.17798V0.944766C19.5507 0.813797 19.6613 0.703172 19.7923 0.703172H23.0556C23.1865 0.703172 23.2971 0.813797 23.2971 0.944766V1.54463C23.2971 1.73883 23.4544 1.89619 23.6487 1.89619ZM20.4697 12.5945C20.4116 12.71 20.2603 12.7416 20.1594 12.6584L19.4343 12.0611C19.4277 12.0557 19.43 12.0482 19.4304 12.048C20.5188 11.1396 21.0504 9.7328 21.2039 8.32359C21.2823 8.33667 21.3652 8.34056 21.4427 8.33536C21.343 10.54 20.8003 11.936 20.4697 12.5945ZM21.0585 4.60898L21.6901 4.78908V7.31869C21.6901 7.41375 21.6477 7.49897 21.581 7.55686C21.3715 7.73513 21.0585 7.58503 21.0585 7.31869V4.60898Z" fill="black"/>
</g>
<defs>
<clipPath id="clip0_845_24803">
<rect width="24" height="24" fill="white"/>
</clipPath>
</defs>
</svg>
