<svg width="48" height="48" viewBox="0 0 48 48" fill="none" xmlns="http://www.w3.org/2000/svg">
<path d="M16.4481 9.54891C14.9841 10.1019 13.9351 11.5063 13.9351 13.1612C13.9351 13.7986 14.1048 14.3917 14.3789 14.9228C13.2176 15.3692 12.3867 16.4889 12.3867 17.8063C12.3867 19.1241 13.2176 20.2434 14.3789 20.6902C14.1048 21.2213 13.9351 21.8144 13.9351 22.4514C13.9351 24.1067 14.9841 25.5111 16.4481 26.0637C16.3321 26.3881 16.2576 26.7328 16.2576 27.0965C16.2576 28.8043 17.6464 30.1932 19.3543 30.1932C19.7399 30.1932 20.1054 30.1134 20.446 29.9849C20.9477 31.0203 21.9997 31.7415 23.2252 31.7415C24.9331 31.7415 26.3219 30.3527 26.3219 28.6448V6.96781C26.3219 5.26031 24.9331 3.87109 23.2252 3.87109C21.9997 3.87109 20.9477 4.59273 20.446 5.62774C20.1054 5.49921 19.7399 5.41945 19.3543 5.41945C17.6464 5.41945 16.2576 6.80866 16.2576 8.51617C16.2576 8.8802 16.3321 9.22457 16.4481 9.54891ZM19.3543 6.96781C20.2083 6.96781 20.9027 7.66223 20.9027 8.51617H22.451C22.451 7.77223 22.1762 7.09709 21.7373 6.56295C21.9169 5.90672 22.5123 5.41945 23.2252 5.41945C24.0792 5.41945 24.7736 6.11387 24.7736 6.96781V28.6448C24.7736 29.4988 24.0792 30.1932 23.2252 30.1932C22.5123 30.1932 21.9169 29.7063 21.7373 29.0497C22.1762 28.5155 22.451 27.8408 22.451 27.0965H20.9027C20.9027 27.9504 20.2083 28.6448 19.3543 28.6448C18.5004 28.6448 17.806 27.9504 17.806 27.0965C17.806 26.2425 18.5004 25.5481 19.3543 25.5481V23.9997C18.6002 23.9997 17.9175 24.2817 17.3803 24.7308C16.3026 24.5301 15.4834 23.5866 15.4834 22.4514C15.4834 21.171 16.5256 20.1289 17.806 20.1289C19.0867 20.1289 20.1285 21.171 20.1285 22.4514H21.6769C21.6769 20.3171 19.9406 18.5805 17.806 18.5805C16.9312 18.5805 16.1321 18.8833 15.4834 19.3751V19.3547C14.6295 19.3547 13.9351 18.6603 13.9351 17.8063C13.9351 16.9524 14.6295 16.258 15.4834 16.258V16.2379C16.1321 16.7297 16.9312 17.0321 17.806 17.0321C19.9406 17.0321 21.6769 15.2959 21.6769 13.1612H20.1285C20.1285 14.442 19.0867 15.4838 17.806 15.4838C16.5256 15.4838 15.4834 14.442 15.4834 13.1612C15.4834 12.0264 16.3026 11.0829 17.3803 10.8822C17.9175 11.3313 18.6002 11.6129 19.3543 11.6129V10.0645C18.5004 10.0645 17.806 9.37011 17.806 8.51617C17.806 7.66223 18.5004 6.96781 19.3543 6.96781Z" fill="#101212"/>
<path d="M34.8387 5.41945C34.4531 5.41945 34.088 5.49921 33.7474 5.62774C33.2454 4.59273 32.1933 3.87109 30.9678 3.87109C29.2599 3.87109 27.8711 5.26031 27.8711 6.96781V28.6448C27.8711 30.3527 29.2599 31.7415 30.9678 31.7415C32.1933 31.7415 33.2454 31.0203 33.7474 29.9849C34.088 30.1134 34.4531 30.1932 34.8387 30.1932C36.5466 30.1932 37.9354 28.8043 37.9354 27.0965C37.9354 26.7328 37.8613 26.3881 37.7449 26.0637C39.209 25.5111 40.258 24.1067 40.258 22.4514C40.258 21.8144 40.0886 21.2213 39.8145 20.6902C40.9758 20.2434 41.8063 19.1241 41.8063 17.8063C41.8063 16.4889 40.9758 15.3692 39.8145 14.9228C40.0886 14.3917 40.258 13.7986 40.258 13.1612C40.258 11.5063 39.209 10.1019 37.7449 9.54891C37.8613 9.22457 37.9354 8.8802 37.9354 8.51617C37.9354 6.80866 36.5466 5.41945 34.8387 5.41945ZM38.7096 13.1612C38.7096 14.442 37.6678 15.4838 36.3871 15.4838C35.1067 15.4838 34.0645 14.442 34.0645 13.1612H32.5162C32.5162 15.2959 34.2528 17.0321 36.3871 17.0321C37.2618 17.0321 38.0609 16.7297 38.7096 16.2379V16.258C39.5635 16.258 40.258 16.9524 40.258 17.8063C40.258 18.6603 39.5635 19.3547 38.7096 19.3547V19.3751C38.0609 18.8833 37.2618 18.5805 36.3871 18.5805C34.2528 18.5805 32.5162 20.3171 32.5162 22.4514H34.0645C34.0645 21.171 35.1067 20.1289 36.3871 20.1289C37.6678 20.1289 38.7096 21.171 38.7096 22.4514C38.7096 23.5866 37.8904 24.5301 36.8131 24.7308C36.2755 24.2817 35.5928 23.9997 34.8387 23.9997V25.5481C35.6926 25.5481 36.3871 26.2425 36.3871 27.0965C36.3871 27.9504 35.6926 28.6448 34.8387 28.6448C33.9848 28.6448 33.2903 27.9504 33.2903 27.0965H31.742C31.742 27.8408 32.0168 28.5155 32.4557 29.0497C32.2761 29.7063 31.6807 30.1932 30.9678 30.1932C30.1139 30.1932 29.4195 29.4988 29.4195 28.6448V6.96781C29.4195 6.11387 30.1139 5.41945 30.9678 5.41945C31.6807 5.41945 32.2761 5.90672 32.4557 6.56295C32.0168 7.09709 31.742 7.77223 31.742 8.51617H33.2903C33.2903 7.66223 33.9848 6.96781 34.8387 6.96781C35.6926 6.96781 36.3871 7.66223 36.3871 8.51617C36.3871 9.37011 35.6926 10.0645 34.8387 10.0645V11.6129C35.5928 11.6129 36.2755 11.3313 36.8131 10.8822C37.8904 11.0829 38.7096 12.0264 38.7096 13.1612Z" fill="#101212"/>
<path d="M39.2896 4.82869C35.6719 1.42842 30.9339 -0.276433 25.9614 0.0365647L26.0574 1.58152C30.6008 1.29914 34.9254 2.85279 38.2296 5.95669C41.5354 9.06324 43.3563 13.2725 43.3563 17.8068C43.3563 23.271 40.6327 28.3379 36.0704 31.3613C34.4967 32.4047 33.3059 33.8929 32.5722 35.6129H21.5927C20.8488 33.8804 19.6535 32.3816 18.0771 31.3288C13.3754 28.1864 10.6737 22.9384 10.8494 17.2881L9.30184 17.2401C9.10905 23.4275 12.0685 29.1756 17.2171 32.6156C18.3542 33.3758 19.2622 34.4108 19.895 35.6129H17.8084V37.1612H20.5127C20.6628 37.6629 20.783 38.177 20.8438 38.7096H19.3567V40.258H20.9051V42.5805C20.9051 43.0088 21.2521 43.3547 21.6793 43.3547H22.4534C22.4534 45.9165 24.5367 47.9998 27.0985 47.9998C29.6603 47.9998 31.7436 45.9165 31.7436 43.3547H32.5178C32.9453 43.3547 33.2919 43.0088 33.2919 42.5805V40.258H34.8403V38.7096H33.3464C33.4012 38.1777 33.5104 37.6621 33.6575 37.1612H36.3887V35.6129H34.2684C34.8921 34.424 35.7948 33.4019 36.9262 32.6526C41.9217 29.3397 44.9046 23.7904 44.9046 17.8068C44.9046 12.9126 42.8577 8.1817 39.2896 4.82869ZM27.0985 46.4514C25.3906 46.4514 24.0018 45.0626 24.0018 43.3547H30.1952C30.1952 45.0626 28.8064 46.4514 27.0985 46.4514ZM31.7436 41.8063H22.4534V40.258H31.7436V41.8063ZM31.7988 38.7096H22.3914C22.3396 38.1826 22.2561 37.6648 22.1291 37.1612H32.0396C31.9163 37.664 31.8449 38.1842 31.7988 38.7096Z" fill="#101212"/>
<path d="M8.51637 5.41925C10.2242 5.41925 11.6131 6.80847 11.6131 8.51597C11.6131 8.94426 11.9601 9.29015 12.3873 9.29015C12.8148 9.29015 13.1614 8.94426 13.1614 8.51597C13.1614 6.80847 14.5503 5.41925 16.2582 5.41925C16.6857 5.41925 17.0323 5.07337 17.0323 4.64507C17.0323 4.21716 16.6857 3.87089 16.2582 3.87089C14.5503 3.87089 13.1614 2.48206 13.1614 0.774179C13.1614 0.346264 12.8148 0 12.3873 0C11.9601 0 11.6131 0.346264 11.6131 0.774179C11.6131 2.48206 10.2242 3.87089 8.51637 3.87089C8.08921 3.87089 7.74219 4.21716 7.74219 4.64507C7.74219 5.07337 8.08921 5.41925 8.51637 5.41925ZM12.3873 3.33902C12.7313 3.85615 13.1762 4.30146 13.6933 4.64507C13.1762 4.98907 12.7313 5.434 12.3873 5.95112C12.0436 5.434 11.5983 4.98907 11.0812 4.64507C11.5983 4.30146 12.0436 3.85615 12.3873 3.33902Z" fill="#101212"/>
<path d="M11.6136 13.1614C12.0412 13.1614 12.3878 12.8156 12.3878 12.3873C12.3878 11.9593 12.0412 11.6131 11.6136 11.6131C9.90574 11.6131 8.51691 10.2242 8.51691 8.51637C8.51691 8.08845 8.17027 7.74219 7.74273 7.74219C7.31557 7.74219 6.96855 8.08845 6.96855 8.51637C6.96855 10.2242 5.57972 11.6131 3.87184 11.6131C3.44468 11.6131 3.09766 11.9593 3.09766 12.3873C3.09766 12.8156 3.44468 13.1614 3.87184 13.1614C5.57972 13.1614 6.96855 14.5507 6.96855 16.2582C6.96855 16.6864 7.31557 17.0323 7.74273 17.0323C8.17027 17.0323 8.51691 16.6864 8.51691 16.2582C8.51691 14.5507 9.90574 13.1614 11.6136 13.1614ZM7.74273 13.6933C7.39911 13.1762 6.95381 12.7313 6.43668 12.3873C6.95381 12.0436 7.39836 11.5983 7.74273 11.0812C8.08673 11.5983 8.53165 12.0429 9.04878 12.3873C8.53165 12.7313 8.08673 13.1762 7.74273 13.6933Z" fill="#101212"/>
</svg>
