<svg width="48" height="48" viewBox="0 0 48 48" fill="none" xmlns="http://www.w3.org/2000/svg">
<g clip-path="url(#clip0_837_51664)">
<path d="M24.0006 28.1379C31.7705 28.1379 38.0695 21.8389 38.0695 14.0689C38.0695 6.29902 31.7705 0 24.0006 0C16.2303 0 9.93164 6.29902 9.93164 14.0689C9.94013 21.8356 16.2339 28.1294 24.0006 28.1379ZM24.0006 1.65517C30.8564 1.65517 36.4143 7.21308 36.4143 14.0689C36.4143 20.9248 30.8564 26.4827 24.0006 26.4827C17.1447 26.4827 11.5868 20.9248 11.5868 14.0689C11.5945 7.21631 17.1479 1.66285 24.0006 1.65517Z" fill="#101212"/>
<path d="M32.9786 12.5521C33.0626 13.0536 33.1047 13.5615 33.1047 14.0699C33.1047 14.5269 33.4752 14.8975 33.9322 14.8975C34.3893 14.8975 34.7598 14.5269 34.7598 14.0699C34.7598 13.4694 34.7097 12.8697 34.6107 12.2773C34.5659 11.9819 34.365 11.7338 34.0858 11.6279C33.8062 11.5221 33.4914 11.575 33.2623 11.7665C33.0327 11.9581 32.9244 12.2583 32.9786 12.5521Z" fill="#101212"/>
<path d="M24.0014 4.96767C27.2523 4.97454 30.2552 6.7077 31.8873 9.51938C32.0304 9.78487 32.3064 9.95176 32.6082 9.955C32.9097 9.95782 33.1889 9.79619 33.3372 9.53353C33.4851 9.27086 33.4786 8.9484 33.3198 8.6918C31.3923 5.36853 27.8435 3.31977 24.0014 3.3125C23.5444 3.3125 23.1738 3.68305 23.1738 4.14008C23.1738 4.59711 23.5444 4.96767 24.0014 4.96767Z" fill="#101212"/>
<path d="M19.963 16.0114L19.2934 19.9158C19.2401 20.2265 19.3678 20.5401 19.6228 20.7252C19.8773 20.9103 20.2152 20.9349 20.494 20.7882L24.0007 18.9451L27.507 20.7882C27.7859 20.9349 28.1237 20.9103 28.3787 20.7252C28.6333 20.5401 28.7609 20.2265 28.708 19.9158L28.0384 16.0114L30.8744 13.2466C31.1002 13.0264 31.1815 12.6975 31.0841 12.398C30.9871 12.0982 30.7281 11.88 30.4161 11.8347L26.4956 11.2653L24.7455 7.71336C24.5907 7.4503 24.3082 7.28906 24.0031 7.28906C23.6981 7.28906 23.4156 7.4503 23.2608 7.71336L21.5079 11.2653L17.5878 11.8347C17.2758 11.88 17.0168 12.0982 16.9194 12.398C16.822 12.6975 16.9036 13.0264 17.1291 13.2466L19.963 16.0114ZM22.1742 12.8409C22.4437 12.8017 22.6769 12.632 22.7973 12.3875L24.0007 9.9484L25.2041 12.3875C25.3241 12.632 25.5573 12.8017 25.8272 12.8409L28.5185 13.2317L26.5712 15.1301C26.376 15.32 26.2867 15.594 26.3327 15.8623L26.793 18.5431L24.3854 17.2775C24.1446 17.151 23.8569 17.151 23.6156 17.2775L21.2084 18.5431L21.6683 15.8623C21.7144 15.594 21.6255 15.32 21.4303 15.1301L19.483 13.2317L22.1742 12.8409Z" fill="#101212"/>
<path d="M47.9065 16.9975C47.7643 16.7115 47.466 16.5365 47.1468 16.5514L44.0502 16.6492C42.943 16.6832 41.8734 17.059 40.988 17.7249C41.2147 16.6577 41.34 15.5711 41.363 14.48L43.493 12.776C44.776 11.7524 45.5215 10.1991 45.5175 8.55805V5.79284C45.5175 5.47481 45.3352 5.18467 45.0483 5.04647C44.7614 4.90868 44.4212 4.94747 44.1727 5.14669L41.7525 7.0823C40.4671 8.10587 39.7204 9.66082 39.7244 11.3039V14.0687C39.7244 22.7531 32.6843 29.7928 24.0003 29.7928C15.3159 29.7928 8.2762 22.7531 8.2762 14.0687V11.3039C8.27984 9.66082 7.53226 8.10627 6.24684 7.08311L3.82794 5.14669C3.57942 4.94747 3.23877 4.90868 2.95226 5.04647C2.66536 5.18467 2.48271 5.47481 2.48311 5.79284V8.55805C2.47947 10.2007 3.22664 11.7552 4.51207 12.7784L6.64164 14.4825C6.66467 15.5735 6.78994 16.6601 7.01664 17.7273C6.13127 17.0618 5.06163 16.686 3.95442 16.6516L0.8534 16.5514C0.535378 16.5413 0.239986 16.7147 0.0932996 16.9971C-0.0533866 17.2796 -0.0255041 17.6211 0.165632 17.8756L1.82525 20.0877C2.808 21.4046 4.33871 22.1999 5.98135 22.2467L8.71222 22.3296C9.19551 23.2085 9.75357 24.0441 10.3799 24.8273C9.32806 24.6608 8.25034 24.8099 7.28294 25.256L4.46923 26.5552C4.18152 26.6889 3.99563 26.9754 3.99078 27.2931C3.98553 27.6103 4.16252 27.9024 4.4462 28.0451L6.91885 29.2812C8.38692 30.0195 10.1116 30.0465 11.6023 29.3551L13.9945 28.2504C14.5494 28.65 15.1268 29.0165 15.7245 29.3483V47.172C15.7245 47.4521 15.8659 47.7135 16.1011 47.8659C16.3359 48.0186 16.6321 48.0421 16.8878 47.9285L24.0003 44.7721L31.1124 47.9326C31.2186 47.9782 31.333 48.0012 31.4486 47.9996C31.9056 47.9996 32.2761 47.6291 32.2761 47.172V29.3483C32.8734 29.0185 33.4504 28.6536 34.0049 28.256L36.3975 29.3608C37.8878 30.0522 39.6125 30.0251 41.0805 29.2873L43.5536 28.0548C43.8369 27.9121 44.0139 27.62 44.009 27.3028C44.0042 26.9855 43.8183 26.699 43.5306 26.5653L40.7165 25.2661C39.7507 24.8168 38.6734 24.664 37.6207 24.8273C38.2458 24.0441 38.8027 23.2085 39.2847 22.3296L42.016 22.2467C43.6611 22.2019 45.195 21.4066 46.1794 20.0877L47.8346 17.8756C48.0253 17.6211 48.0532 17.2796 47.9065 16.9975ZM6.03105 20.5928C4.89111 20.5604 3.82915 20.0085 3.14744 19.0948L2.5219 18.2595L3.89744 18.3036C5.03698 18.3355 6.09894 18.8875 6.78065 19.8016L7.40619 20.6364L6.03105 20.5928ZM41.3796 11.3039C41.3763 10.1639 41.8948 9.08499 42.7862 8.375L43.8623 7.51508V8.55805C43.8652 9.69759 43.3471 10.7765 42.4553 11.4865L41.3796 12.3464V11.3039ZM4.13828 8.55805V7.51508L5.21398 8.375C6.10581 9.08499 6.62386 10.1639 6.62103 11.3039V12.3464L5.54493 11.4865C4.6535 10.7765 4.13505 9.69759 4.13828 8.55805ZM10.9093 27.8572C9.8752 28.3376 8.67827 28.319 7.65955 27.8067L6.72691 27.3399L7.97636 26.7605C9.01044 26.28 10.2074 26.2986 11.2257 26.811L12.1591 27.2777L10.9093 27.8572ZM17.3796 30.1411C17.8868 30.3524 18.952 30.7024 19.0348 30.727V35.5859C19.0348 36.0429 19.4054 36.4135 19.8624 36.4135C20.3194 36.4135 20.69 36.0429 20.69 35.5859V31.1319C21.5083 31.2936 22.3387 31.3861 23.1727 31.4083V43.3255L17.3796 45.9V30.1411ZM30.621 30.1411V45.8983L28.9658 45.1629V42.2065C28.9658 41.7495 28.5953 41.379 28.1382 41.379C27.6812 41.379 27.3106 41.7495 27.3106 42.2065V44.427L24.8279 43.3239V31.4067C26.8193 31.3364 28.7815 30.9077 30.621 30.1411ZM40.0238 26.7629L41.2737 27.3424L40.341 27.8091C39.3219 28.3211 38.125 28.3397 37.0909 27.8596L35.8415 27.2801L36.7749 26.8134C37.7932 26.301 38.9902 26.2824 40.0238 26.7629ZM44.8552 19.0948C44.1739 20.0085 43.1115 20.5604 41.972 20.5928L40.5964 20.6364L41.2224 19.8016C41.9037 18.8875 42.966 18.3355 44.1056 18.3036L45.4811 18.2595L44.8552 19.0948Z" fill="#101212"/>
</g>
<defs>
<clipPath id="clip0_837_51664">
<rect width="48" height="48" fill="white"/>
</clipPath>
</defs>
</svg>
