<svg width="56" height="56" viewBox="0 0 56 56" fill="none" xmlns="http://www.w3.org/2000/svg">
<g clip-path="url(#clip0_810_51709)">
<circle cx="32.6893" cy="33.8963" r="19.3103" fill="#EDF2F2"/>
<g clip-path="url(#clip1_810_51709)">
<path d="M15.3105 3C7.83109 3 1.74609 9.085 1.74609 16.5644C1.74609 25.91 13.9246 40.5947 14.4431 41.2153C14.8943 41.7554 15.7261 41.7562 16.178 41.2153C16.6964 40.5947 28.8749 25.9099 28.8749 16.5644C28.8749 9.085 22.79 3 15.3105 3V3ZM15.3105 38.686C12.5268 35.1487 4.00683 23.7352 4.00683 16.5644C4.00683 10.3316 9.07766 5.26074 15.3105 5.26074C21.5434 5.26074 26.6142 10.3316 26.6142 16.5644C26.6142 23.7352 18.0943 35.1487 15.3105 38.686Z" fill="#101212"/>
<path d="M23.2231 15.4321H21.998C21.5202 12.5963 19.2767 10.3528 16.4409 9.87499V8.6499C16.4409 8.02563 15.9348 7.51953 15.3105 7.51953C14.6863 7.51953 14.1802 8.02563 14.1802 8.6499V9.87499C11.3444 10.3528 9.10081 12.5964 8.62304 15.4321H7.39795C6.77368 15.4321 6.26758 15.9382 6.26758 16.5625C6.26758 17.1867 6.77368 17.6928 7.39795 17.6928H8.62304C9.10081 20.5286 11.3444 22.7722 14.1802 23.25V24.4751C14.1802 25.0993 14.6863 25.6054 15.3105 25.6054C15.9348 25.6054 16.4409 25.0993 16.4409 24.4751V23.25C19.2767 22.7721 21.5202 20.5286 21.998 17.6928H23.2231C23.8474 17.6928 24.3535 17.1867 24.3535 16.5625C24.3535 15.9382 23.8474 15.4321 23.2231 15.4321ZM15.3105 21.084C12.8174 21.084 10.7891 19.0556 10.7891 16.5625C10.7891 14.0693 12.8174 12.041 15.3105 12.041C17.8037 12.041 19.832 14.0693 19.832 16.5625C19.832 19.0556 17.8037 21.084 15.3105 21.084Z" fill="#101212"/>
</g>
</g>
<defs>
<clipPath id="clip0_810_51709">
<rect width="56" height="56" fill="white"/>
</clipPath>
<clipPath id="clip1_810_51709">
<rect width="38.6207" height="38.6207" fill="white" transform="translate(-4 3)"/>
</clipPath>
</defs>
</svg>
