<svg width="32" height="32" viewBox="0 0 32 32" fill="none" xmlns="http://www.w3.org/2000/svg">
<path d="M28.184 15.3618L24.5493 14.3232C22.9125 13.8617 21.4215 12.9879 20.219 11.7854C19.0165 10.5829 18.1427 9.09197 17.6813 7.45518L16.6426 3.82051C16.5904 3.69335 16.5015 3.58458 16.3873 3.50804C16.2731 3.43149 16.1388 3.39062 16.0013 3.39062C15.8638 3.39062 15.7294 3.43149 15.6152 3.50804C15.501 3.58458 15.4122 3.69335 15.36 3.82051L14.3213 7.45518C13.8598 9.09197 12.986 10.5829 11.7835 11.7854C10.581 12.9879 9.09007 13.8617 7.45329 14.3232L3.81862 15.3618C3.67906 15.4015 3.55623 15.4855 3.46877 15.6013C3.38131 15.717 3.33398 15.8581 3.33398 16.0032C3.33398 16.1483 3.38131 16.2894 3.46877 16.4051C3.55623 16.5208 3.67906 16.6049 3.81862 16.6445L7.45329 17.6832C9.09007 18.1446 10.581 19.0184 11.7835 20.2209C12.986 21.4234 13.8598 22.9144 14.3213 24.5512L15.36 28.1858C15.3996 28.3254 15.4836 28.4482 15.5994 28.5357C15.7151 28.6232 15.8562 28.6705 16.0013 28.6705C16.1464 28.6705 16.2875 28.6232 16.4032 28.5357C16.519 28.4482 16.603 28.3254 16.6426 28.1858L17.6813 24.5512C18.1427 22.9144 19.0165 21.4234 20.219 20.2209C21.4215 19.0184 22.9125 18.1446 24.5493 17.6832L28.184 16.6445C28.3235 16.6049 28.4463 16.5208 28.5338 16.4051C28.6213 16.2894 28.6686 16.1483 28.6686 16.0032C28.6686 15.8581 28.6213 15.717 28.5338 15.6013C28.4463 15.4855 28.3235 15.4015 28.184 15.3618Z" fill="#101212"/>
</svg>
