<svg width="32" height="32" viewBox="0 0 32 32" fill="none" xmlns="http://www.w3.org/2000/svg">
<path d="M28.8085 15.488C25.9125 15.4784 22.8725 14.8864 20.5845 12.9984C18.6613 11.4112 17.5189 9.15837 16.9653 6.75837C16.6197 5.26077 16.4949 3.72798 16.5045 2.19518C16.5045 1.87518 16.2485 1.73438 15.9989 1.73438C15.7493 1.73438 15.4933 1.87518 15.4933 2.19518C15.5061 4.80958 15.1381 7.51357 13.9189 9.86237C12.7573 12.0992 10.8437 13.792 8.47252 14.6528C6.77972 15.2672 4.98132 15.4848 3.18932 15.4912C2.86932 15.4912 2.72852 15.7504 2.72852 16C2.72852 16.2496 2.86932 16.5088 3.18932 16.5088C6.08532 16.5184 9.12532 17.1104 11.4133 18.9984C13.3365 20.5856 14.4789 22.8384 15.0325 25.2384C15.3781 26.736 15.4997 28.2688 15.4933 29.8016C15.4933 30.1216 15.7493 30.2624 15.9989 30.2624C16.2485 30.2624 16.5045 30.1216 16.5045 29.8016C16.4917 27.1872 16.8597 24.4832 18.0789 22.1344C19.2405 19.8976 21.1541 18.2048 23.5253 17.344C25.2181 16.7296 27.0165 16.512 28.8085 16.5056C29.1285 16.5056 29.2693 16.2464 29.2693 15.9968C29.2693 15.7472 29.1285 15.488 28.8085 15.488ZM20.0053 18.2336C17.9221 19.9072 16.6517 22.3648 16.0501 24.9344C16.0309 25.0112 16.0181 25.0912 15.9989 25.168C15.7269 23.9328 15.3173 22.7328 14.7285 21.6096C13.4549 19.1776 11.3429 17.3792 8.77332 16.4352C8.28692 16.256 7.78772 16.112 7.28212 15.9936C8.98132 15.5872 10.5941 14.88 11.9893 13.76C14.0725 12.0864 15.3429 9.62877 15.9445 7.05917C15.9637 6.98237 15.9765 6.90237 15.9957 6.82557C16.2677 8.06077 16.6773 9.26077 17.2661 10.384C18.5397 12.816 20.6517 14.6144 23.2213 15.5584C23.7077 15.7376 24.2069 15.8816 24.7125 16C23.0133 16.4096 21.4005 17.1136 20.0053 18.2336Z" fill="#101212"/>
</svg>
