<svg width="40" height="40" viewBox="0 0 40 40" fill="none" xmlns="http://www.w3.org/2000/svg">
<path d="M31.2486 16.1833V15.0089C31.2486 8.56103 26.2124 3.33398 20 3.33398C13.7876 3.33398 8.75145 8.56103 8.75145 15.0089V16.1833C8.75145 17.5926 8.34953 18.9704 7.59633 20.143L5.7506 23.0165C4.06471 25.6412 5.35174 29.2088 8.28394 30.0388C15.9546 32.2101 24.0454 32.2101 31.7161 30.0388C34.6483 29.2088 35.9353 25.6412 34.2494 23.0165L32.4037 20.143C31.6505 18.9704 31.2486 17.5926 31.2486 16.1833Z" stroke="#F5F7F7" stroke-width="1.5"/>
<path opacity="0.5" d="M12.5 31.666C13.5917 34.579 16.5374 36.666 20 36.666C23.4626 36.666 26.4083 34.579 27.5 31.666" stroke="#F5F7F7" stroke-width="1.5" stroke-linecap="round"/>
</svg>
