<svg width="40" height="40" viewBox="0 0 40 40" fill="none" xmlns="http://www.w3.org/2000/svg">
<path d="M34.0827 32.9033L27.5721 26.3927C29.5703 24.1141 30.6729 21.2308 30.6729 18.1719C30.6729 14.8328 29.3724 11.694 27.0116 9.33317C24.6507 6.97233 21.5119 5.67188 18.1729 5.67188C14.8338 5.67188 11.695 6.97233 9.33415 9.33317C6.97331 11.694 5.67285 14.8328 5.67285 18.1719C5.67285 21.5109 6.97331 24.6497 9.33415 27.0106C11.695 29.3714 14.8338 30.6719 18.1729 30.6719C21.2318 30.6719 24.115 29.5693 26.3937 27.5711L32.9043 34.0817C33.0671 34.2445 33.2803 34.3258 33.4935 34.3258C33.7067 34.3258 33.9199 34.2445 34.0827 34.0817C34.4082 33.7562 34.4082 33.2288 34.0827 32.9033ZM10.5125 25.8322C8.46663 23.7859 7.33952 21.0653 7.33952 18.1719C7.33952 15.2784 8.46663 12.5579 10.5125 10.5116C12.5588 8.46566 15.2794 7.33854 18.1729 7.33854C21.0663 7.33854 23.7869 8.46566 25.8332 10.5116C27.8791 12.5579 29.0062 15.2784 29.0062 18.1719C29.0062 21.0653 27.8791 23.7859 25.8332 25.8322C23.7869 27.8781 21.0663 29.0052 18.1729 29.0052C15.2794 29.0052 12.5588 27.8781 10.5125 25.8322Z" fill="white"/>
</svg>
