<svg width="40" height="40" viewBox="0 0 40 40" fill="none" xmlns="http://www.w3.org/2000/svg">
<g clip-path="url(#clip0_802_26024)">
<path d="M20 0C31.0453 0 40 8.95469 40 20C40 31.0453 31.0453 40 20 40C8.95469 40 0 31.0453 0 20C0 8.95469 8.95469 0 20 0ZM17.0086 29.4898V20.3852H15.7227C15.332 20.3852 15.0156 20.068 15.0156 19.6781V16.7953C15.0156 16.407 15.3336 16.0891 15.7227 16.0891H17.0086V13.7711C17.0086 11.5797 18.7859 9.80313 20.9773 9.80313H24.2773C24.668 9.80313 24.9844 10.1195 24.9844 10.5102V13.3922C24.9844 13.7828 24.668 14.0992 24.2773 14.0992H22.3242C22.1016 14.0992 21.918 14.2828 21.918 14.5055V16.0906L24.2344 16.0891C24.625 16.1164 24.9414 16.3797 24.9414 16.7953C24.8727 17.7719 24.7773 18.7586 24.6945 19.7367C24.6641 20.1016 24.357 20.3852 23.9906 20.3852H21.918V29.4898C21.918 29.8781 21.6008 30.1961 21.2117 30.1961L17.7156 30.1969C17.3258 30.1969 17.0086 29.8797 17.0086 29.4898ZM17.932 29.275H20.9945V19.4617H23.7922L23.9992 17.0102H20.9945V14.5055C20.9945 13.7711 21.5898 13.1758 22.3242 13.1758H24.0609V10.7266H20.9773C19.2953 10.7266 17.932 12.0898 17.932 13.7711V17.0117H15.9391V19.4617H17.932V29.275ZM20 0.922656C9.46406 0.922656 0.922656 9.46406 0.922656 20C0.922656 30.5359 9.46406 39.0773 20 39.0773C30.5359 39.0773 39.0773 30.5359 39.0773 20C39.0773 9.46406 30.5359 0.922656 20 0.922656Z" fill="black"/>
</g>
<defs>
<clipPath id="clip0_802_26024">
<rect width="40" height="40" fill="white"/>
</clipPath>
</defs>
</svg>
