<svg width="24" height="24" viewBox="0 0 24 24" fill="none" xmlns="http://www.w3.org/2000/svg">
<path d="M2.2271 1.49624C2.02896 1.49973 1.84025 1.58149 1.7022 1.72366C1.56414 1.86583 1.48796 2.05683 1.49029 2.25499V21.7536C1.48953 21.9525 1.5678 22.1435 1.7079 22.2847C1.848 22.4259 2.03845 22.5057 2.23736 22.5065H21.7432C21.8431 22.5087 21.9424 22.491 22.0354 22.4543C22.1283 22.4176 22.213 22.3627 22.2844 22.2928C22.3558 22.223 22.4126 22.1395 22.4513 22.0474C22.4901 21.9553 22.51 21.8564 22.51 21.7565C22.51 21.6566 22.4901 21.5577 22.4513 21.4656C22.4126 21.3735 22.3558 21.29 22.2844 21.2202C22.213 21.1503 22.1283 21.0954 22.0354 21.0587C21.9424 21.022 21.8431 21.0043 21.7432 21.0065H2.99175V2.25499C2.99294 2.15452 2.97392 2.05488 2.93584 1.9619C2.89776 1.86892 2.84138 1.78449 2.77006 1.71371C2.69874 1.64294 2.61393 1.58723 2.52066 1.54987C2.42739 1.51251 2.32756 1.49428 2.2271 1.49624ZM21.7256 6.37269C21.5313 6.37888 21.347 6.46031 21.2115 6.59977L13.5152 14.2961L10.294 10.7526C10.1602 10.6061 9.97372 10.5185 9.77549 10.5092C9.57726 10.4998 9.38341 10.5694 9.23638 10.7027L4.73492 14.8277C4.66218 14.8942 4.60327 14.9745 4.56155 15.0638C4.51983 15.1532 4.49611 15.2498 4.49175 15.3483C4.48739 15.4468 4.50247 15.5451 4.53614 15.6378C4.5698 15.7305 4.62139 15.8156 4.68795 15.8883C4.75452 15.961 4.83476 16.02 4.92408 16.0617C5.01341 16.1034 5.11008 16.1271 5.20857 16.1314C5.30707 16.1358 5.40545 16.1206 5.4981 16.0869C5.59076 16.0533 5.67587 16.0017 5.74859 15.9351L9.69634 12.3198L12.9351 15.8853C13.0032 15.9604 13.0858 16.0209 13.1779 16.0632C13.27 16.1054 13.3697 16.1285 13.471 16.1312C13.5723 16.1338 13.6731 16.1159 13.7673 16.0786C13.8615 16.0412 13.9472 15.9851 14.0191 15.9137L22.2691 7.65931C22.3763 7.55387 22.4494 7.41863 22.4788 7.27115C22.5082 7.12368 22.4925 6.9708 22.434 6.8323C22.3754 6.69381 22.2765 6.5761 22.1502 6.4945C22.0239 6.41289 21.876 6.36918 21.7256 6.37269Z" fill="#101212"/>
</svg>
