<svg width="24" height="24" viewBox="0 0 24 24" fill="none" xmlns="http://www.w3.org/2000/svg">
<path d="M2.25 5.25H3.75V20.61C3.75198 21.3096 4.03076 21.9799 4.52542 22.4746C5.02009 22.9692 5.69044 23.248 6.39 23.25H17.64C18.3343 23.2402 18.997 22.9579 19.4852 22.4641C19.9735 21.9703 20.2481 21.3044 20.25 20.61V5.25H21.75C21.9489 5.25 22.1397 5.17098 22.2803 5.03033C22.421 4.88968 22.5 4.69891 22.5 4.5C22.5 4.30109 22.421 4.11032 22.2803 3.96967C22.1397 3.82902 21.9489 3.75 21.75 3.75H2.25C2.05109 3.75 1.86032 3.82902 1.71967 3.96967C1.57902 4.11032 1.5 4.30109 1.5 4.5C1.5 4.69891 1.57902 4.88968 1.71967 5.03033C1.86032 5.17098 2.05109 5.25 2.25 5.25ZM18.75 5.25V20.61C18.75 20.9123 18.6299 21.2023 18.4161 21.4161C18.2023 21.6299 17.9123 21.75 17.61 21.75H6.36C6.06288 21.7422 5.78057 21.6186 5.57322 21.4057C5.36588 21.1927 5.2499 20.9072 5.25 20.61V5.25H18.75Z" fill="#606769"/>
<path d="M9 2.25H15C15.1989 2.25 15.3897 2.17098 15.5303 2.03033C15.671 1.88968 15.75 1.69891 15.75 1.5C15.75 1.30109 15.671 1.11032 15.5303 0.96967C15.3897 0.829018 15.1989 0.75 15 0.75H9C8.80109 0.75 8.61032 0.829018 8.46967 0.96967C8.32902 1.11032 8.25 1.30109 8.25 1.5C8.25 1.69891 8.32902 1.88968 8.46967 2.03033C8.61032 2.17098 8.80109 2.25 9 2.25Z" fill="#606769"/>
<path d="M9.50977 18.75C9.70868 18.75 9.89944 18.671 10.0401 18.5303C10.1807 18.3897 10.2598 18.1989 10.2598 18V9C10.2598 8.80109 10.1807 8.61032 10.0401 8.46967C9.89944 8.32902 9.70868 8.25 9.50977 8.25C9.31085 8.25 9.12009 8.32902 8.97943 8.46967C8.83878 8.61032 8.75977 8.80109 8.75977 9V18C8.75977 18.1989 8.83878 18.3897 8.97943 18.5303C9.12009 18.671 9.31085 18.75 9.50977 18.75Z" fill="#606769"/>
<path d="M14.4902 18.75C14.6891 18.75 14.8799 18.671 15.0206 18.5303C15.1612 18.3897 15.2402 18.1989 15.2402 18V9C15.2402 8.80109 15.1612 8.61032 15.0206 8.46967C14.8799 8.32902 14.6891 8.25 14.4902 8.25C14.2913 8.25 14.1006 8.32902 13.9599 8.46967C13.8193 8.61032 13.7402 8.80109 13.7402 9V18C13.7402 18.1989 13.8193 18.3897 13.9599 18.5303C14.1006 18.671 14.2913 18.75 14.4902 18.75Z" fill="#606769"/>
</svg>
