<svg width="24" height="24" viewBox="0 0 24 24" fill="none" xmlns="http://www.w3.org/2000/svg">
<path fill-rule="evenodd" clip-rule="evenodd" d="M5.66001 6.72001C4.34049 8.30143 3.66022 10.3192 3.75291 12.3767C3.84561 14.4343 4.70456 16.3827 6.16092 17.8391C7.61729 19.2955 9.56574 20.1544 11.6233 20.2471C13.6808 20.3398 15.6986 19.6595 17.28 18.34L5.66001 6.72001ZM5.06201 5.15001C3.25751 6.97283 2.24673 9.43507 2.25001 12C2.25001 17.385 6.61501 21.75 12 21.75C13.2911 21.7517 14.5696 21.4961 15.7608 20.9982C16.9521 20.5003 18.0321 19.77 18.938 18.85C20.7425 17.0272 21.7533 14.5649 21.75 12C21.75 6.61501 17.385 2.25001 12 2.25001C10.7089 2.24833 9.43041 2.50391 8.23918 3.00183C7.04795 3.49975 5.96787 4.23002 5.06201 5.15001ZM6.72101 5.66001L18.34 17.28C19.6595 15.6986 20.3398 13.6808 20.2471 11.6233C20.1544 9.56574 19.2955 7.61729 17.8391 6.16092C16.3827 4.70456 14.4343 3.84561 12.3767 3.75291C10.3192 3.66022 8.30143 4.34049 6.72001 5.66001H6.72101Z" fill="#606769"/>
</svg>
