<svg width="20" height="20" viewBox="0 0 20 20" fill="none" xmlns="http://www.w3.org/2000/svg">
<path d="M11.6654 15.8333C11.6654 14.9129 10.9192 14.1667 9.9987 14.1667C9.07822 14.1667 8.33203 14.9129 8.33203 15.8333C8.33203 16.7538 9.07822 17.5 9.9987 17.5C10.9192 17.5 11.6654 16.7538 11.6654 15.8333Z" fill="#101212"/>
<path d="M11.6654 9.99935C11.6654 9.07887 10.9192 8.33268 9.9987 8.33268C9.07822 8.33268 8.33203 9.07887 8.33203 9.99935C8.33203 10.9198 9.07822 11.666 9.9987 11.666C10.9192 11.666 11.6654 10.9198 11.6654 9.99935Z" fill="#101212"/>
<path d="M11.6654 4.16732C11.6654 3.24684 10.9192 2.50065 9.9987 2.50065C9.07822 2.50065 8.33203 3.24684 8.33203 4.16732C8.33203 5.08779 9.07822 5.83398 9.9987 5.83398C10.9192 5.83398 11.6654 5.08779 11.6654 4.16732Z" fill="#101212"/>
</svg>
