<svg width="22" height="22" viewBox="0 0 22 22" fill="none" xmlns="http://www.w3.org/2000/svg">
<path fill-rule="evenodd" clip-rule="evenodd" d="M0.25 1C0.25 0.585786 0.585786 0.25 1 0.25H21C21.4142 0.25 21.75 0.585786 21.75 1C21.75 1.41421 21.4142 1.75 21 1.75H19.75V9.55792C19.75 11.0408 19.75 12.2337 19.617 13.1715C19.4786 14.1472 19.1833 14.9558 18.5118 15.5924C17.8458 16.2237 17.0095 16.4963 15.9997 16.625C15.0187 16.75 13.7672 16.75 12.196 16.75H11.75V19.5365L13.3354 20.3292C13.7059 20.5144 13.8561 20.9649 13.6708 21.3354C13.4856 21.7059 13.0351 21.8561 12.6646 21.6708L11 20.8385L9.33541 21.6708C8.96493 21.8561 8.51442 21.7059 8.32918 21.3354C8.14394 20.9649 8.29411 20.5144 8.66459 20.3292L10.25 19.5365V16.75H9.80403C8.23285 16.75 6.98134 16.75 6.00025 16.625C4.99049 16.4963 4.15416 16.2237 3.48824 15.5924C2.81666 14.9558 2.52135 14.1472 2.38296 13.1715C2.24996 12.2337 2.24998 11.0408 2.25 9.55795L2.25 1.75H1C0.585786 1.75 0.25 1.41421 0.25 1ZM3.75 1.75V9.5C3.75 11.0544 3.75177 12.1407 3.86809 12.9608C3.98075 13.7551 4.18755 14.1885 4.52017 14.5038C4.85845 14.8244 5.33235 15.0277 6.18988 15.137C7.06506 15.2486 8.22077 15.25 9.85714 15.25H12.1429C13.7792 15.25 14.9349 15.2486 15.8101 15.137C16.6677 15.0277 17.1415 14.8244 17.4798 14.5038C17.8125 14.1885 18.0193 13.7551 18.1319 12.9608C18.2482 12.1407 18.25 11.0544 18.25 9.5V1.75H3.75ZM14.5303 6.96967C14.8232 7.26256 14.8232 7.73744 14.5303 8.03033L13.2374 9.32322C13.2294 9.3313 13.2212 9.33943 13.2131 9.3476C13.0681 9.49269 12.9113 9.64958 12.7612 9.76416C12.5852 9.89839 12.3335 10.0429 12 10.0429C11.6665 10.0429 11.4148 9.89839 11.2388 9.76416C11.0887 9.64958 10.9319 9.49269 10.7869 9.3476C10.7788 9.33943 10.7706 9.3313 10.7626 9.32322L10.1768 8.73744C10.1067 8.66738 10.0499 8.61061 10 8.56229C9.9501 8.61061 9.89328 8.66738 9.82322 8.73744L8.53033 10.0303C8.23744 10.3232 7.76256 10.3232 7.46967 10.0303C7.17678 9.73744 7.17678 9.26256 7.46967 8.96967L8.76256 7.67678C8.77064 7.6687 8.77876 7.66057 8.78691 7.65241C8.9319 7.50732 9.08867 7.35042 9.23885 7.23584C9.41478 7.10161 9.66653 6.95711 10 6.95711C10.3335 6.95711 10.5852 7.10161 10.7612 7.23584C10.9113 7.35043 11.0681 7.50732 11.2131 7.65242C11.2212 7.66058 11.2294 7.6687 11.2374 7.67678L11.8232 8.26256C11.8933 8.33262 11.9501 8.38939 12 8.43771C12.0499 8.38939 12.1067 8.33262 12.1768 8.26256L13.4697 6.96967C13.7626 6.67678 14.2374 6.67678 14.5303 6.96967Z" fill="#101212"/>
</svg>
