<svg width="24" height="24" viewBox="0 0 24 24" fill="none" xmlns="http://www.w3.org/2000/svg">
<rect width="24" height="24" fill="#F5F7F7"/>
<g clip-path="url(#clip0_411_62557)">
<path d="M15.7269 11.2032C15.5327 11.2032 15.3753 11.3606 15.3753 11.5548V16.7112C15.3753 17.0343 15.1124 17.2972 14.7893 17.2972H7.2891C6.96601 17.2972 6.70315 17.0343 6.70315 16.7112V9.21098C6.70315 8.88788 6.96601 8.62502 7.2891 8.62502H12.4455C12.6397 8.62502 12.7971 8.46761 12.7971 8.27345C12.7971 8.07929 12.6397 7.92188 12.4455 7.92188H7.2891C6.57829 7.92188 6 8.50017 6 9.21098V16.7112C6 17.422 6.57829 18.0003 7.2891 18.0003H14.7893C15.5001 18.0003 16.0784 17.422 16.0784 16.7112V11.5548C16.0784 11.3606 15.921 11.2032 15.7269 11.2032Z" fill="black"/>
<path d="M17.7602 6.90283L17.0973 6.23988C16.7774 5.92004 16.257 5.92004 15.9371 6.23988L10.6337 11.5433C10.5846 11.5924 10.5512 11.6549 10.5375 11.723L10.206 13.3803C10.183 13.4956 10.2191 13.6148 10.3022 13.6979C10.3688 13.7645 10.4585 13.8009 10.5508 13.8009C10.5737 13.8009 10.5968 13.7986 10.6197 13.794L12.2771 13.4626C12.3451 13.4489 12.4076 13.4155 12.4567 13.3664L17.7602 8.06295C17.7602 8.06295 17.7602 8.06295 17.7602 8.06293C18.0801 7.74311 18.0801 7.22269 17.7602 6.90283ZM12.0348 12.7939L10.999 13.0011L11.2062 11.9653L15.5228 7.64861L16.3515 8.47729L12.0348 12.7939ZM17.263 7.56576L16.8487 7.9801L16.02 7.15141L16.4343 6.7371C16.48 6.69139 16.5544 6.69137 16.6001 6.73707L17.263 7.40002C17.3087 7.44571 17.3087 7.52007 17.263 7.56576Z" fill="black"/>
</g>
<defs>
<clipPath id="clip0_411_62557">
<rect width="12" height="12" fill="white" transform="translate(6 6)"/>
</clipPath>
</defs>
</svg>
