<svg width="84" height="84" viewBox="0 0 84 84" fill="none" xmlns="http://www.w3.org/2000/svg">
<circle cx="42" cy="42" r="42" fill="url(#paint0_linear_432_45655)" fill-opacity="0.5"/>
<path d="M43.7487 49.0837H40.6154C38.3987 49.0837 36.582 47.217 36.582 44.917C36.582 44.2337 37.1487 43.667 37.832 43.667C38.5154 43.667 39.082 44.2337 39.082 44.917C39.082 45.8337 39.7654 46.5837 40.6154 46.5837H43.7487C44.3987 46.5837 44.9154 46.0003 44.9154 45.2837C44.9154 44.3837 44.6654 44.2503 44.0987 44.0503L39.082 42.3003C38.0154 41.9337 36.582 41.1503 36.582 38.7003C36.582 36.6171 38.232 34.9004 40.2487 34.9004H43.382C45.5987 34.9004 47.4154 36.7671 47.4154 39.067C47.4154 39.7503 46.8487 40.317 46.1654 40.317C45.482 40.317 44.9154 39.7503 44.9154 39.067C44.9154 38.1504 44.232 37.4004 43.382 37.4004H40.2487C39.5987 37.4004 39.082 37.9837 39.082 38.7003C39.082 39.6003 39.332 39.7337 39.8987 39.9337L44.9154 41.6837C45.982 42.0503 47.4154 42.8337 47.4154 45.2837C47.4154 47.3837 45.7654 49.0837 43.7487 49.0837Z" fill="#00AC4F"/>
<path d="M42 50.75C41.3167 50.75 40.75 50.1833 40.75 49.5V34.5C40.75 33.8167 41.3167 33.25 42 33.25C42.6833 33.25 43.25 33.8167 43.25 34.5V49.5C43.25 50.1833 42.6833 50.75 42 50.75Z" fill="#00AC4F"/>
<path d="M41.9987 59.9173C32.1154 59.9173 24.082 51.884 24.082 42.0006C24.082 32.1173 32.1154 24.084 41.9987 24.084C42.682 24.084 43.2487 24.6507 43.2487 25.334C43.2487 26.0173 42.682 26.584 41.9987 26.584C33.4987 26.584 26.582 33.5006 26.582 42.0006C26.582 50.5006 33.4987 57.4173 41.9987 57.4173C50.4987 57.4173 57.4154 50.5006 57.4154 42.0006C57.4154 41.3173 57.982 40.7506 58.6654 40.7506C59.3487 40.7506 59.9154 41.3173 59.9154 42.0006C59.9154 51.884 51.882 59.9173 41.9987 59.9173Z" fill="#00AC4F"/>
<path d="M56.9987 34.9167H50.332C49.6487 34.9167 49.082 34.35 49.082 33.6667V27C49.082 26.3167 49.6487 25.75 50.332 25.75C51.0154 25.75 51.582 26.3167 51.582 27V32.4167H56.9987C57.682 32.4167 58.2487 32.9833 58.2487 33.6667C58.2487 34.35 57.682 34.9167 56.9987 34.9167Z" fill="#00AC4F"/>
<path d="M50.3318 34.919C50.0151 34.919 49.6984 34.8023 49.4484 34.5523C48.9651 34.069 48.9651 33.269 49.4484 32.7857L57.7818 24.4523C58.2651 23.969 59.0651 23.969 59.5484 24.4523C60.0318 24.9357 60.0318 25.7357 59.5484 26.219L51.2151 34.5523C50.9651 34.8023 50.6484 34.919 50.3318 34.919Z" fill="#00AC4F"/>
<defs>
<linearGradient id="paint0_linear_432_45655" x1="74.55" y1="2.14197e-06" x2="42" y2="84" gradientUnits="userSpaceOnUse">
<stop stop-color="#D3FFE7"/>
<stop offset="1" stop-color="#EFFFF6"/>
</linearGradient>
</defs>
</svg>
