<svg width="24" height="25" viewBox="0 0 24 25" fill="none" xmlns="http://www.w3.org/2000/svg">
<path d="M20.25 3.94727H17.25V3.19727C17.25 2.99835 17.171 2.80759 17.0303 2.66694C16.8897 2.52628 16.6989 2.44727 16.5 2.44727C16.3011 2.44727 16.1103 2.52628 15.9697 2.66694C15.829 2.80759 15.75 2.99835 15.75 3.19727V3.94727H8.25V3.19727C8.25 2.99835 8.17098 2.80759 8.03033 2.66694C7.88968 2.52628 7.69891 2.44727 7.5 2.44727C7.30109 2.44727 7.11032 2.52628 6.96967 2.66694C6.82902 2.80759 6.75 2.99835 6.75 3.19727V3.94727H3.75C3.15326 3.94727 2.58097 4.18432 2.15901 4.60628C1.73705 5.02823 1.5 5.60053 1.5 6.19727V21.1973C1.5 21.794 1.73705 22.3663 2.15901 22.7883C2.58097 23.2102 3.15326 23.4473 3.75 23.4473H20.25C20.8467 23.4473 21.419 23.2102 21.841 22.7883C22.2629 22.3663 22.5 21.794 22.5 21.1973V6.19727C22.5 5.60053 22.2629 5.02823 21.841 4.60628C21.419 4.18432 20.8467 3.94727 20.25 3.94727ZM3.75 5.44727H20.25C20.4489 5.44727 20.6397 5.52628 20.7803 5.66694C20.921 5.80759 21 5.99835 21 6.19727V8.44727H3V6.19727C3 5.99835 3.07902 5.80759 3.21967 5.66694C3.36032 5.52628 3.55109 5.44727 3.75 5.44727ZM20.25 21.9473H3.75C3.55109 21.9473 3.36032 21.8682 3.21967 21.7276C3.07902 21.5869 3 21.3962 3 21.1973V9.94727H21V21.1973C21 21.3962 20.921 21.5869 20.7803 21.7276C20.6397 21.8682 20.4489 21.9473 20.25 21.9473Z" fill="#101212"/>
<path d="M15.2633 12.3785L10.5383 16.4285L8.77885 14.6698C8.6374 14.5331 8.44794 14.4576 8.2513 14.4593C8.05465 14.461 7.86654 14.5398 7.72748 14.6789C7.58843 14.818 7.50955 15.0061 7.50784 15.2027C7.50613 15.3994 7.58173 15.5888 7.71835 15.7303L9.96835 17.9803C10.1019 18.1137 10.2809 18.1918 10.4696 18.199C10.6582 18.2062 10.8427 18.1421 10.9861 18.0193L16.2361 13.5193C16.3151 13.4566 16.3807 13.3786 16.4289 13.29C16.4771 13.2014 16.5069 13.104 16.5166 13.0036C16.5263 12.9032 16.5156 12.8018 16.4852 12.7057C16.4548 12.6095 16.4053 12.5204 16.3397 12.4438C16.2741 12.3672 16.1937 12.3046 16.1033 12.2598C16.013 12.2149 15.9145 12.1888 15.8138 12.1829C15.7131 12.177 15.6123 12.1915 15.5173 12.2255C15.4223 12.2595 15.3352 12.3123 15.2611 12.3808L15.2633 12.3785Z" fill="#101212"/>
</svg>
