<svg width="84" height="84" viewBox="0 0 84 84" fill="none" xmlns="http://www.w3.org/2000/svg">
<circle cx="42" cy="42" r="42" fill="url(#paint0_linear_433_45802)" fill-opacity="0.5"/>
<path d="M33.9471 59.9154C29.9804 59.9154 26.7305 57.032 26.7305 53.482V50.082C26.7305 49.3987 27.2971 48.832 27.9805 48.832C28.6638 48.832 29.2305 49.3987 29.2305 50.082C29.2305 52.1654 31.2471 53.732 33.9471 53.732C36.6471 53.732 38.6638 52.1654 38.6638 50.082C38.6638 49.3987 39.2304 48.832 39.9137 48.832C40.5971 48.832 41.1637 49.3987 41.1637 50.082V53.482C41.1637 57.032 37.9304 59.9154 33.9471 59.9154ZM29.6637 55.1154C30.3971 56.482 32.0471 57.4154 33.9471 57.4154C35.8471 57.4154 37.4971 56.4654 38.2304 55.1154C37.0471 55.832 35.5804 56.2487 33.9471 56.2487C32.3137 56.2487 30.8471 55.832 29.6637 55.1154Z" fill="#0F5FC2"/>
<path d="M33.9471 51.6657C31.2137 51.6657 28.7638 50.4157 27.5471 48.4323C27.0138 47.5657 26.7305 46.549 26.7305 45.5157C26.7305 43.7657 27.4971 42.1323 28.8971 40.9157C31.5971 38.5491 36.2471 38.5491 38.9637 40.8992C40.3637 42.1325 41.1471 43.7657 41.1471 45.5157C41.1471 46.549 40.8637 47.5657 40.3304 48.4323C39.1304 50.4157 36.6804 51.6657 33.9471 51.6657ZM33.9471 41.5825C32.6471 41.5825 31.4471 42.0157 30.5471 42.799C29.6971 43.5323 29.2305 44.499 29.2305 45.5157C29.2305 46.099 29.3804 46.6325 29.6804 47.1325C30.4471 48.3992 32.0804 49.1825 33.9471 49.1825C35.8137 49.1825 37.4471 48.3992 38.1971 47.1492C38.4971 46.6658 38.6471 46.1158 38.6471 45.5325C38.6471 44.5158 38.1805 43.549 37.3305 42.799C36.4471 42.0157 35.2471 41.5825 33.9471 41.5825Z" fill="#0F5FC2"/>
<path d="M33.9471 56.2506C29.8304 56.2506 26.7305 53.6007 26.7305 50.1007V45.5173C26.7305 41.9673 29.9637 39.084 33.9471 39.084C35.8304 39.084 37.6304 39.734 38.9804 40.9007C40.3804 42.134 41.1637 43.7673 41.1637 45.5173V50.1007C41.1637 53.6007 38.0637 56.2506 33.9471 56.2506ZM33.9471 41.584C31.3471 41.584 29.2305 43.3507 29.2305 45.5173V50.1007C29.2305 52.184 31.2471 53.7506 33.9471 53.7506C36.6471 53.7506 38.6638 52.184 38.6638 50.1007V45.5173C38.6638 44.5006 38.1971 43.534 37.3471 42.784C36.4471 42.0173 35.2471 41.584 33.9471 41.584Z" fill="#0F5FC2"/>
<path d="M53.7306 46.6654C51.2139 46.6654 49.0806 44.7987 48.8806 42.3987C48.7473 41.0154 49.2473 39.6654 50.2473 38.682C51.0806 37.8153 52.2639 37.332 53.5139 37.332H56.9973C58.6473 37.382 59.9139 38.682 59.9139 40.282V43.7154C59.9139 45.3154 58.6473 46.6154 57.0473 46.6654H53.7306ZM56.9473 39.832H53.5306C52.9473 39.832 52.4139 40.0487 52.0306 40.4487C51.5473 40.9154 51.3139 41.5487 51.3806 42.182C51.4639 43.282 52.5306 44.1654 53.7306 44.1654H56.9973C57.2139 44.1654 57.4139 43.9654 57.4139 43.7154V40.282C57.4139 40.032 57.2139 39.8487 56.9473 39.832Z" fill="#0F5FC2"/>
<path d="M48.6703 57.4173H44.5036C43.8203 57.4173 43.2536 56.8507 43.2536 56.1673C43.2536 55.484 43.8203 54.9173 44.5036 54.9173H48.6703C52.9703 54.9173 55.7536 52.134 55.7536 47.834V46.6673H53.7369C51.2203 46.6673 49.0869 44.8007 48.8869 42.4007C48.7536 41.0173 49.2538 39.6673 50.2538 38.684C51.0871 37.8173 52.2703 37.334 53.5203 37.334H55.7369V36.1673C55.7369 32.2673 53.4538 29.584 49.7538 29.1506C49.3538 29.084 49.0036 29.084 48.6536 29.084H33.6536C33.2536 29.084 32.8703 29.1173 32.487 29.1673C28.8203 29.634 26.5703 32.3007 26.5703 36.1673V39.5007C26.5703 40.184 26.0036 40.7507 25.3203 40.7507C24.637 40.7507 24.0703 40.184 24.0703 39.5007V36.1673C24.0703 31.034 27.237 27.3173 32.1537 26.7007C32.6037 26.634 33.1203 26.584 33.6536 26.584H48.6536C49.0536 26.584 49.5703 26.6007 50.1036 26.684C55.0203 27.2507 58.2369 30.984 58.2369 36.1673V38.584C58.2369 39.2673 57.6703 39.834 56.9869 39.834H53.5203C52.9369 39.834 52.4038 40.0507 52.0204 40.4507C51.5371 40.9173 51.3036 41.5507 51.3703 42.184C51.4536 43.284 52.5204 44.1673 53.7204 44.1673H57.0036C57.6869 44.1673 58.2536 44.734 58.2536 45.4173V47.834C58.2536 53.5673 54.4036 57.4173 48.6703 57.4173Z" fill="#0F5FC2"/>
<defs>
<linearGradient id="paint0_linear_433_45802" x1="74.55" y1="2.14197e-06" x2="42" y2="84" gradientUnits="userSpaceOnUse">
<stop stop-color="#CAF1FF"/>
<stop offset="1" stop-color="#CDF4FF"/>
</linearGradient>
</defs>
</svg>
