<svg width="24" height="24" viewBox="0 0 24 24" fill="none" xmlns="http://www.w3.org/2000/svg">
<g clip-path="url(#clip0_513_50520)">
<path d="M12 24C18.616 24 24 18.616 24 12C24 5.38401 18.6161 0 12 0C5.38395 0 0 5.38401 0 12C0 18.616 5.38401 24 12 24ZM12 1.59997C17.736 1.59997 22.4 6.26396 22.4 12C22.4 17.736 17.736 22.4 12 22.4C6.26396 22.4 1.59997 17.736 1.59997 12C1.59997 6.26396 6.26402 1.59997 12 1.59997Z" fill="#606769"/>
<path d="M15.5031 15.8209C15.6511 15.9408 15.8271 15.9969 16.0031 15.9969C16.2391 15.9969 16.4711 15.8929 16.6271 15.6969C16.9031 15.3529 16.8471 14.8489 16.5031 14.5729L12.8031 11.6129V5.59686C12.8031 5.15686 12.4431 4.79688 12.0031 4.79688C11.5631 4.79688 11.2031 5.15686 11.2031 5.59686V11.9969C11.2031 12.2409 11.3151 12.4689 11.5031 12.6209L15.5031 15.8209Z" fill="#606769"/>
</g>
<defs>
<clipPath id="clip0_513_50520">
<rect width="24" height="24" fill="white"/>
</clipPath>
</defs>
</svg>
