<svg width="84" height="84" viewBox="0 0 84 84" fill="none" xmlns="http://www.w3.org/2000/svg">
<circle cx="42" cy="42" r="42" fill="url(#paint0_linear_433_46099)" fill-opacity="0.5"/>
<path d="M49.875 36.102C49.1575 36.102 48.5625 35.507 48.5625 34.7895V32.3745C48.5625 30.537 47.775 28.752 46.41 27.5095C45.0275 26.2495 43.2425 25.672 41.3525 25.847C38.2025 26.1445 35.4375 29.3645 35.4375 32.7245V34.422C35.4375 35.1395 34.8425 35.7345 34.125 35.7345C33.4075 35.7345 32.8125 35.1395 32.8125 34.422V32.707C32.8125 27.9995 36.61 23.6595 41.1075 23.222C43.7325 22.977 46.2525 23.7995 48.1775 25.567C50.085 27.2995 51.1875 29.7845 51.1875 32.3745V34.7895C51.1875 35.507 50.5925 36.102 49.875 36.102Z" fill="#DA001A"/>
<path d="M47.2487 60.8125H36.7487C28.6637 60.8125 27.1587 57.05 26.7737 53.3925L25.4612 42.91C25.2687 41.02 25.1987 38.3075 27.0362 36.2775C28.6112 34.5275 31.2187 33.6875 34.9987 33.6875H48.9987C52.7962 33.6875 55.4037 34.545 56.9612 36.2775C58.7812 38.3075 58.7287 41.02 58.5362 42.875L57.2237 53.3925C56.8387 57.05 55.3337 60.8125 47.2487 60.8125ZM34.9987 36.3125C32.0412 36.3125 30.0112 36.89 28.9787 38.045C28.1212 38.99 27.8412 40.4425 28.0687 42.6125L29.3812 53.095C29.6787 55.895 30.4487 58.205 36.7487 58.205H47.2487C53.5487 58.205 54.3187 55.9125 54.6162 53.13L55.9287 42.6125C56.1562 40.4775 55.8762 39.025 55.0187 38.0625C53.9862 36.89 51.9562 36.3125 48.9987 36.3125H34.9987Z" fill="#DA001A"/>
<path d="M47.9863 44.0117C47.0063 44.0117 46.2188 43.2242 46.2188 42.2617C46.2188 41.2992 47.0062 40.5117 47.9688 40.5117C48.9313 40.5117 49.7188 41.2992 49.7188 42.2617C49.7188 43.2242 48.9488 44.0117 47.9863 44.0117Z" fill="#DA001A"/>
<path d="M35.7362 44.0117C34.7563 44.0117 33.9688 43.2242 33.9688 42.2617C33.9688 41.2992 34.7562 40.5117 35.7187 40.5117C36.6812 40.5117 37.4687 41.2992 37.4687 42.2617C37.4687 43.2242 36.6987 44.0117 35.7362 44.0117Z" fill="#DA001A"/>
<defs>
<linearGradient id="paint0_linear_433_46099" x1="74.55" y1="2.14197e-06" x2="42" y2="84" gradientUnits="userSpaceOnUse">
<stop offset="1" stop-color="#FFD5F3"/>
</linearGradient>
</defs>
</svg>
