<svg width="24" height="24" viewBox="0 0 24 24" fill="none" xmlns="http://www.w3.org/2000/svg">
<g clip-path="url(#clip0_516_53888)">
<path d="M12 0.900391C9.77497 0.900391 7.59989 1.56019 5.74984 2.79636C3.89979 4.03252 2.45785 5.78953 1.60636 7.8452C0.754875 9.90087 0.532087 12.1629 0.966171 14.3452C1.40025 16.5274 2.47171 18.532 4.04505 20.1053C5.61839 21.6787 7.62295 22.7501 9.80524 23.1842C11.9875 23.6183 14.2495 23.3955 16.3052 22.544C18.3609 21.6925 20.1179 20.2506 21.354 18.4006C22.5902 16.5505 23.25 14.3754 23.25 12.1504C23.25 9.16671 22.0647 6.30522 19.955 4.19544C17.8452 2.08565 14.9837 0.900391 12 0.900391ZM12 21.9004C10.0716 21.9004 8.18657 21.3286 6.5832 20.2572C4.97982 19.1859 3.73013 17.6631 2.99218 15.8816C2.25423 14.1 2.06114 12.1396 2.43735 10.2483C2.81355 8.35695 3.74215 6.61966 5.10571 5.2561C6.46928 3.89254 8.20656 2.96394 10.0979 2.58773C11.9892 2.21153 13.9496 2.40461 15.7312 3.14257C17.5127 3.88052 19.0355 5.1302 20.1068 6.73358C21.1782 8.33696 21.75 10.222 21.75 12.1504C21.75 14.7363 20.7228 17.2162 18.8943 19.0447C17.0658 20.8732 14.5859 21.9004 12 21.9004Z" fill="#606769"/>
<path d="M18.2032 7.92122C18.0627 7.78153 17.8726 7.70313 17.6744 7.70312C17.4763 7.70312 17.2862 7.78153 17.1457 7.92122L10.1782 14.8887C10.1406 14.9241 10.091 14.9437 10.0394 14.9437C9.98786 14.9437 9.93823 14.9241 9.90067 14.8887L6.85567 11.8437C6.71515 11.704 6.52506 11.6256 6.32692 11.6256C6.12878 11.6256 5.93869 11.704 5.79817 11.8437C5.65848 11.9842 5.58008 12.1743 5.58008 12.3725C5.58008 12.5706 5.65848 12.7607 5.79817 12.9012L9.90067 17.0037C9.93823 17.0391 9.98786 17.0587 10.0394 17.0587C10.091 17.0587 10.1406 17.0391 10.1782 17.0037L18.2032 9.00122C18.3429 8.8607 18.4213 8.67061 18.4213 8.47247C18.4213 8.27433 18.3429 8.08424 18.2032 7.94372V7.92122Z" fill="#606769"/>
</g>
<defs>
<clipPath id="clip0_516_53888">
<rect width="24" height="24" fill="white"/>
</clipPath>
</defs>
</svg>
