<svg width="24" height="24" viewBox="0 0 24 24" fill="none" xmlns="http://www.w3.org/2000/svg">
<g clip-path="url(#clip0_416_124456)">
<path d="M12 24C18.616 24 24 18.616 24 12C24 5.38401 18.6161 0 12 0C5.38394 0 0 5.38401 0 12C0 18.616 5.38401 24 12 24ZM12 1.59997C17.736 1.59997 22.4 6.26396 22.4 12C22.4 17.736 17.736 22.4 12 22.4C6.26396 22.4 1.59997 17.736 1.59997 12C1.59997 6.26396 6.26402 1.59997 12 1.59997Z" fill="black"/>
<path d="M15.4992 15.8228C15.6472 15.9428 15.8232 15.9988 15.9992 15.9988C16.2352 15.9988 16.4672 15.8948 16.6232 15.6988C16.8992 15.3548 16.8431 14.8508 16.4992 14.5748L12.7992 11.6148V5.59881C12.7992 5.15881 12.4392 4.79883 11.9992 4.79883C11.5592 4.79883 11.1992 5.15881 11.1992 5.59881V11.9988C11.1992 12.2429 11.3112 12.4708 11.4992 12.6228L15.4992 15.8228Z" fill="black"/>
</g>
<defs>
<clipPath id="clip0_416_124456">
<rect width="24" height="24" fill="white"/>
</clipPath>
</defs>
</svg>
