<svg width="24" height="24" viewBox="0 0 24 24" fill="none" xmlns="http://www.w3.org/2000/svg">
<path d="M23.5409 11.3406L20.0977 10.3566C18.5471 9.91949 17.1347 9.09174 15.9956 7.95259C14.8564 6.81344 14.0286 5.401 13.5915 3.85044L12.6075 0.407243C12.5581 0.286777 12.4739 0.183742 12.3657 0.111229C12.2575 0.0387161 12.1302 0 12 0C11.8698 0 11.7425 0.0387161 11.6343 0.111229C11.5261 0.183742 11.4419 0.286777 11.3925 0.407243L10.4085 3.85044C9.97135 5.401 9.1436 6.81344 8.00445 7.95259C6.8653 9.09174 5.45286 9.91949 3.9023 10.3566L0.459103 11.3406C0.326896 11.3781 0.210538 11.4577 0.127683 11.5674C0.0448281 11.677 0 11.8107 0 11.9481C0 12.0856 0.0448281 12.2192 0.127683 12.3289C0.210538 12.4385 0.326896 12.5182 0.459103 12.5557L3.9023 13.5396C5.45286 13.9768 6.8653 14.8045 8.00445 15.9437C9.1436 17.0828 9.97135 18.4953 10.4085 20.0458L11.3925 23.489C11.43 23.6212 11.5096 23.7376 11.6192 23.8205C11.7289 23.9033 11.8626 23.9481 12 23.9481C12.1374 23.9481 12.2711 23.9033 12.3808 23.8205C12.4904 23.7376 12.57 23.6212 12.6075 23.489L13.5915 20.0458C14.0286 18.4953 14.8564 17.0828 15.9956 15.9437C17.1347 14.8045 18.5471 13.9768 20.0977 13.5396L23.5409 12.5557C23.6731 12.5182 23.7895 12.4385 23.8723 12.3289C23.9552 12.2192 24 12.0856 24 11.9481C24 11.8107 23.9552 11.677 23.8723 11.5674C23.7895 11.4577 23.6731 11.3781 23.5409 11.3406Z" fill="#101212"/>
</svg>
