<svg width="40" height="40" viewBox="0 0 40 40" fill="none" xmlns="http://www.w3.org/2000/svg">
<circle cx="20" cy="20" r="19.5" stroke="black"/>
<g clip-path="url(#clip0_802_26031)">
<path d="M23.6689 12H16.331C13.9429 12 12 13.9429 12 16.331V23.669C12 26.0571 13.9429 28 16.331 28H23.669C26.0571 28 28 26.0571 28 23.669V16.331C28 13.9429 26.0571 12 23.6689 12ZM27.062 23.669C27.062 25.5399 25.5399 27.062 23.6689 27.062H16.331C14.4601 27.062 12.938 25.5399 12.938 23.669V16.331C12.938 14.4601 14.4601 12.938 16.331 12.938H23.669C25.5399 12.938 27.062 14.4601 27.062 16.331V23.669Z" fill="black"/>
<path d="M19.9999 15.625C17.5875 15.625 15.625 17.5875 15.625 19.9999C15.625 22.4122 17.5875 24.3747 19.9999 24.3747C22.4122 24.3747 24.3747 22.4122 24.3747 19.9999C24.3747 17.5875 22.4122 15.625 19.9999 15.625ZM19.9999 23.4368C18.1049 23.4368 16.563 21.895 16.563 19.9999C16.563 18.1049 18.1049 16.563 19.9999 16.563C21.895 16.563 23.4368 18.1049 23.4368 19.9999C23.4368 21.895 21.895 23.4368 19.9999 23.4368Z" fill="black"/>
<path d="M24.4802 14.0703C23.7673 14.0703 23.1875 14.6503 23.1875 15.363C23.1875 16.0759 23.7673 16.6559 24.4802 16.6559C25.1931 16.6559 25.7731 16.0759 25.7731 15.363C25.7731 14.6501 25.1931 14.0703 24.4802 14.0703ZM24.4802 15.7178C24.2847 15.7178 24.1255 15.5586 24.1255 15.363C24.1255 15.1674 24.2847 15.0083 24.4802 15.0083C24.6759 15.0083 24.8351 15.1674 24.8351 15.363C24.8351 15.5586 24.6759 15.7178 24.4802 15.7178Z" fill="black"/>
</g>
<defs>
<clipPath id="clip0_802_26031">
<rect width="16" height="16" fill="white" transform="translate(12 12)"/>
</clipPath>
</defs>
</svg>
