<svg width="40" height="41" viewBox="0 0 40 41" fill="none" xmlns="http://www.w3.org/2000/svg">
<circle cx="20" cy="20.5" r="20" fill="#22AD5C"/>
<path d="M20.0008 9.17578C13.7383 9.17578 8.67578 14.2383 8.67578 20.5008C8.67578 26.7633 13.7383 31.8633 20.0008 31.8633C26.2633 31.8633 31.3633 26.7633 31.3633 20.5008C31.3633 14.2383 26.2633 9.17578 20.0008 9.17578ZM20.0008 30.1758C14.6758 30.1758 10.3633 25.8258 10.3633 20.5008C10.3633 15.1758 14.6758 10.8633 20.0008 10.8633C25.3258 10.8633 29.6758 15.2133 29.6758 20.5383C29.6758 25.8258 25.3258 30.1758 20.0008 30.1758Z" fill="white"/>
<path d="M23.2256 17.0135L18.7631 21.3635L16.7381 19.376C16.4006 19.0385 15.8756 19.076 15.5381 19.376C15.2006 19.7135 15.2381 20.2385 15.5381 20.576L17.9381 22.901C18.1631 23.126 18.4631 23.2385 18.7631 23.2385C19.0631 23.2385 19.3631 23.126 19.5881 22.901L24.4256 18.251C24.7631 17.9135 24.7631 17.3885 24.4256 17.051C24.0881 16.7135 23.5631 16.7135 23.2256 17.0135Z" fill="white"/>
</svg>
