<svg width="40" height="40" viewBox="0 0 40 40" fill="none" xmlns="http://www.w3.org/2000/svg">
<g clip-path="url(#clip0_281_43204)">
<path d="M31.0622 32.4167C30.6664 32.4736 30.3828 32.831 30.3828 33.2308V39.2309C30.3828 40.2551 31.9782 40.2566 31.9782 39.2309V33.2059C31.9782 32.7265 31.5553 32.3459 31.0622 32.4167Z" fill="#101212"/>
<path d="M28.941 9.27293C29.0146 7.81907 28.5028 6.43732 27.4998 5.38223C26.4969 4.32713 25.1428 3.74609 23.6871 3.74609H18.6151C17.1594 3.74609 15.8053 4.32713 14.8024 5.38223C13.3849 6.87318 13.3302 8.66199 13.4275 10.5819C11.1865 12.6672 9.90625 15.5974 9.90625 18.6639V39.2321C9.90625 40.2563 11.5016 40.2578 11.5016 39.2321V18.6638C11.5016 16.524 12.2309 14.462 13.5401 12.8061L13.8825 19.5647C13.8936 23.5632 17.1499 26.8125 21.1511 26.8125C25.1523 26.8125 28.4086 23.5632 28.4198 19.5647L28.7356 13.3288C29.8077 14.8871 30.3847 16.7299 30.3847 18.6638V26.6825C30.3847 27.7067 31.9801 27.7082 31.9801 26.6825V18.6638C31.9801 15.7651 30.8716 13.0411 28.8551 10.9695L28.941 9.27293ZM27.3476 9.19221L26.8254 19.5035C26.8248 19.5169 26.8244 19.5304 26.8244 19.5438C26.8244 22.6721 24.2793 25.2171 21.151 25.2171C18.0227 25.2171 15.4777 22.6721 15.4777 19.5438C15.4777 19.5304 15.4774 19.517 15.4766 19.5035L14.9544 9.19221C14.9014 8.14397 15.285 7.1495 16.0328 6.40542C16.7315 5.71015 17.6912 5.34146 18.6768 5.34146H23.6251C24.6107 5.34146 25.5704 5.71015 26.2691 6.40542C27.017 7.1495 27.4007 8.14397 27.3476 9.19221Z" fill="#101212"/>
<path d="M39.4487 7.88864L37.3653 6.74914L36.2258 4.66567C35.9324 4.12922 35.1219 4.12492 34.8261 4.66567L33.6866 6.74914L31.6032 7.88864C31.0667 8.18202 31.0624 8.99255 31.6032 9.28833L33.6866 10.4278L34.8261 12.5112C35.1195 13.0477 35.9301 13.052 36.2258 12.5112L37.3653 10.4278L39.4487 9.28833C39.9851 8.99494 39.9895 8.18434 39.4487 7.88864ZM37.4036 8.58844L36.1899 9.25228L35.526 10.466L34.8622 9.25228L33.6484 8.58836L34.8622 7.92453L35.526 6.71077L36.1899 7.92453L37.4036 8.58844Z" fill="#101212"/>
<path d="M3.23989 4.71464L5.12171 5.74389L6.15088 7.62571C6.44427 8.16216 7.2548 8.16646 7.55058 7.62571L8.57983 5.74389L10.4616 4.71464C10.9981 4.42125 11.0024 3.61072 10.4616 3.31494L8.57983 2.28577L7.55058 0.403949C7.25719 -0.132494 6.44666 -0.136801 6.15088 0.403949L5.12171 2.28577L3.23989 3.31502C2.70344 3.60833 2.69914 4.41894 3.23989 4.71464ZM5.28507 4.01483L6.29725 3.46124L6.85085 2.44905L7.40444 3.46124L8.41662 4.01475L7.40444 4.56834L6.85085 5.58053L6.29733 4.56834L5.28507 4.01483Z" fill="#101212"/>
<path d="M8.17475 22.5525L6.16219 21.4517L5.06146 19.4391C4.76807 18.9027 3.95755 18.8984 3.66177 19.4391L2.56104 21.4517L0.548481 22.5525C0.0120374 22.8459 0.00772989 23.6564 0.548481 23.9522L2.56104 25.0529L3.66177 27.0655C3.95507 27.6018 4.76576 27.6062 5.06146 27.0655L6.16219 25.0529L8.17475 23.9522C8.71111 23.6589 8.7155 22.8483 8.17475 22.5525ZM4.98664 23.8774L4.3615 25.0203L3.73651 23.8775L2.59359 23.2524L3.73659 22.6272L4.36157 21.4844L4.98664 22.6273L6.12956 23.2524L4.98664 23.8774Z" fill="#101212"/>
<path d="M30.4442 30.2297C30.7127 30.8735 31.6568 30.8764 31.9212 30.22C32.0044 30.0134 31.9968 29.7766 31.8987 29.5766C31.687 29.1453 31.17 29.0159 30.7879 29.2309C30.4419 29.4255 30.2917 29.8633 30.4442 30.2297Z" fill="#101212"/>
<path d="M23.3337 32.609C24.358 32.609 24.3595 31.0137 23.3337 31.0137H18.8898C17.8656 31.0137 17.8641 32.609 18.8898 32.609H23.3337Z" fill="#101212"/>
<path d="M24.5788 34.2695H17.718C16.6937 34.2695 16.6922 35.8649 17.718 35.8649H24.5788C25.603 35.8649 25.6044 34.2695 24.5788 34.2695Z" fill="#101212"/>
</g>
<defs>
<clipPath id="clip0_281_43204">
<rect width="40" height="40" fill="white"/>
</clipPath>
</defs>
</svg>
